<?xml version="1.0" encoding="utf-8"?>
<!-- Generator: Adobe Illustrator 27.5.0, SVG Export Plug-In . SVG Version: 6.00 Build 0)  -->
<svg version="1.1" xmlns="http://www.w3.org/2000/svg" xmlns:xlink="http://www.w3.org/1999/xlink" x="0px" y="0px"
	 viewBox="0 0 750 500" style="enable-background:new 0 0 750 500;" xml:space="preserve">
<g id="BACKGROUND">
	<rect style="fill:#FFFFFF;stroke:#1D1D1B;stroke-miterlimit:10;" width="750" height="500"/>
</g>
<g id="OBJECTS">
	<g>
		<rect style="fill:#E6F4F6;" width="750" height="186.723"/>
		<path style="fill:#FFFFFF;" d="M0,39.642C6.91,43.416,74.154,78.68,148.5,64c78.5-15.5,127-26.5,215-22c0,0-49.5-11-144.5,0.5
			C146.374,51.292,97.712,18.882,60.052,0H0V39.642z"/>
		<path style="fill:#FFFFFF;" d="M750,55.767c-9.521,0.762-19.845,2.622-30.546,6.233C675,77,624.6,97.804,546.8,84.902
			C469,72,430.279,48.667,297.64,55.333S161.59,96.684,73.795,83.842C34.398,78.079,13.893,70.272,0,63.143v55.091
			c10.994-7.29,33.949-16.181,79.644-14.314C155,107,180.371,66,337.185,68s245.073,64.648,328.944,56.824
			c43.314-4.041,65.859-8.993,83.87-9.447V55.767z"/>
		<path style="fill:#FFFFFF;" d="M750,0H640.881C635.219,7.158,628.938,14.751,620,21.667c-28,21.667-97.893,12.112-97.893,12.112
			c57.56,28.222,126.56,16.555,168.299,0c24.707-9.799,46.18-9.905,59.594-8.36V0z"/>
		<rect y="186.374" style="fill:#8CDCDC;" width="750" height="313.626"/>
		<g>
			<defs>
				<rect id="SVGID_1_" y="186.374" width="750" height="137.068"/>
			</defs>
			<clipPath id="SVGID_00000021083823985236349430000002319210757422361475_">
				<use xlink:href="#SVGID_1_"  style="overflow:visible;"/>
			</clipPath>
			<g style="clip-path:url(#SVGID_00000021083823985236349430000002319210757422361475_);">
				<g>
					<path style="fill:#B2EAE8;" d="M370.983,216.117c-0.038,0.235-1.931-0.192-4.794,0.285c-2.874,0.365-6.566,1.739-10.492,2.992
						c-1.968,0.609-4.027,1.139-6.071,1.352c-2.047,0.229-4.032,0.078-5.756-0.195c-3.453-0.589-5.958-1.47-6.872-1.71
						c-0.913-0.249-3.294-1.052-6.388-1.74c-3.087-0.686-6.992-0.964-10.733-0.515c-3.747,0.399-7.269,1.489-9.773,2.54
						c-2.508,1.053-4.047,1.973-4.141,1.822c-0.105-0.157,1.31-1.313,3.805-2.567c2.488-1.249,6.096-2.489,9.967-2.968
						c1.93-0.252,3.914-0.332,5.815-0.247c1.902,0.086,3.716,0.36,5.322,0.693c3.204,0.71,5.573,1.526,6.484,1.774
						c0.909,0.241,3.412,1.098,6.714,1.661c1.652,0.261,3.506,0.406,5.426,0.203c1.924-0.187,3.911-0.673,5.856-1.242
						c3.874-1.169,7.716-2.481,10.739-2.675C369.111,215.277,371.033,215.99,370.983,216.117z"/>
				</g>
				<g>
					<path style="fill:#B2EAE8;" d="M461.79,247.264c0.026,0.087-0.825,0.365-2.36,0.789c-0.389,0.105-0.815,0.22-1.276,0.344
						c-0.47,0.099-0.988,0.155-1.539,0.241c-1.105,0.141-2.353,0.396-3.737,0.389c-0.692,0.024-1.413,0.048-2.16,0.074
						c-0.749,0.027-1.519-0.061-2.316-0.089c-0.794-0.059-1.62-0.054-2.451-0.171c-0.833-0.107-1.685-0.215-2.554-0.327
						c-3.462-0.519-7.146-1.322-10.815-2.32c-7.352-1.969-14.784-4.315-20.975-5.521c-1.549-0.271-3.011-0.53-4.361-0.728
						c-1.356-0.143-2.596-0.274-3.695-0.39c-2.204-0.052-3.844-0.166-4.708-0.095c-0.864,0.019-2.443,0.096-4.534,0.341
						c-2.09,0.25-4.689,0.686-7.593,1.326c-5.815,1.246-12.817,3.428-19.87,4.662c-3.52,0.619-7.049,0.917-10.328,0.891
						c-3.28-0.037-6.306-0.471-8.803-1.135c-2.499-0.668-4.466-1.533-5.761-2.259c-1.292-0.734-1.961-1.244-1.926-1.298
						c0.135-0.249,2.95,1.654,7.884,2.763c2.453,0.557,5.404,0.906,8.611,0.884c3.206-0.034,6.659-0.368,10.119-1.01
						c6.922-1.275,13.922-3.473,19.8-4.738c2.936-0.649,5.582-1.091,7.717-1.343c2.137-0.248,3.758-0.324,4.646-0.344
						c0.889-0.072,2.57,0.037,4.833,0.09c1.124,0.117,2.391,0.249,3.777,0.393c1.376,0.2,2.863,0.462,4.438,0.739
						c6.282,1.226,13.753,3.606,21.037,5.621c3.642,1.024,7.267,1.857,10.667,2.427c0.852,0.125,1.688,0.248,2.505,0.368
						c0.816,0.132,1.622,0.144,2.4,0.22c0.78,0.046,1.537,0.154,2.269,0.148c0.732-0.002,1.438-0.005,2.116-0.007
						c1.36,0.054,2.585-0.146,3.677-0.228c0.545-0.056,1.059-0.081,1.527-0.148c0.461-0.088,0.887-0.17,1.275-0.244
						C460.869,247.294,461.763,247.172,461.79,247.264z"/>
				</g>
				<g>
					<path style="fill:#B2EAE8;" d="M656.024,217c-0.018,0.233-3.304-0.31-8.169,0.84c-2.431,0.529-5.218,1.444-8.255,2.439
						c-3.028,1.004-6.368,2.03-9.873,2.568c-7.016,1.133-14.332,0.36-20.094-0.653c-5.781-1.044-10.137-2.218-11.706-2.599
						c-1.562-0.4-5.699-1.457-11.024-2.819c-5.314-1.318-11.9-2.64-18.366-3.038c-3.23-0.186-6.419-0.127-9.353,0.18
						c-2.943,0.271-5.602,0.91-7.826,1.561c-4.443,1.374-7.051,3.022-7.156,2.831c-0.055-0.091,0.571-0.534,1.732-1.252
						c0.567-0.386,1.328-0.718,2.187-1.139c0.85-0.448,1.875-0.797,2.985-1.217c2.244-0.757,4.956-1.484,7.957-1.821
						c2.994-0.374,6.249-0.478,9.538-0.322c6.583,0.339,13.25,1.661,18.602,2.984c5.354,1.327,9.464,2.457,11.031,2.831
						c1.564,0.38,5.907,1.534,11.619,2.567c5.695,1.003,12.861,1.772,19.696,0.73c3.408-0.492,6.682-1.448,9.732-2.397
						c3.05-0.937,5.902-1.796,8.407-2.244c2.499-0.472,4.621-0.552,6.081-0.439C655.233,216.687,656.036,216.93,656.024,217z"/>
				</g>
				<g>
					<path style="fill:#B2EAE8;" d="M681.038,277.149c0.016,0.153-2.964,0.477-7.465-0.099c-4.506-0.508-10.394-2.065-16.474-3.161
						c-6.081-1.102-12.465-1.052-17.622-0.601c-5.16,0.445-9.117,1.099-10.537,1.309c-1.421,0.232-5.183,0.845-10.026,1.635
						c-4.852,0.782-10.842,1.616-16.71,1.773c-2.931,0.078-5.828,0.006-8.5-0.281c-2.674-0.276-5.116-0.748-7.166-1.26
						c-2.04-0.558-3.688-1.139-4.804-1.62c-1.111-0.497-1.722-0.809-1.691-0.881c0.097-0.231,2.628,0.817,6.686,1.706
						c2.035,0.413,4.441,0.802,7.071,1.014c2.629,0.223,5.478,0.25,8.366,0.141c5.782-0.219,11.711-1.063,16.547-1.845
						c4.847-0.785,8.613-1.395,10.035-1.626c1.427-0.211,5.399-0.883,10.625-1.333c2.612-0.214,5.541-0.354,8.6-0.272
						c3.057,0.076,6.25,0.4,9.335,0.97c6.163,1.178,11.969,2.83,16.385,3.514C678.095,276.984,681.032,276.929,681.038,277.149z"/>
				</g>
				<g>
					<path style="fill:#B2EAE8;" d="M732.546,265.466c-0.165,0.156-1.566-1.519-4.385-3.131c-2.789-1.633-7.042-2.965-11.551-3.169
						c-4.503-0.29-9.14,0.51-12.862,1.304c-3.726,0.812-6.591,1.56-7.626,1.8c-1.034,0.241-3.759,0.953-7.35,1.599
						c-3.591,0.635-8.045,1.086-12.371,1.048c-4.326-0.021-8.502-0.492-11.549-1.078c-3.05-0.581-4.981-1.197-4.947-1.334
						c0.052-0.22,2.034,0.137,5.077,0.527c3.042,0.396,7.161,0.747,11.416,0.703c4.255-0.028,8.626-0.49,12.152-1.117
						c3.525-0.637,6.243-1.333,7.273-1.573c1.032-0.239,3.885-1,7.658-1.821c3.761-0.8,8.529-1.611,13.204-1.247
						c2.326,0.163,4.608,0.567,6.649,1.22c2.044,0.642,3.842,1.513,5.257,2.429C731.44,263.483,732.668,265.388,732.546,265.466z"/>
				</g>
				<g>
					<path style="fill:#B2EAE8;" d="M263.09,208.599c0.033,0.145-2.087,0.752-5.437,1.01c-3.345,0.271-7.885,0.061-12.46-0.676
						c-4.583-0.697-9.21-1.788-12.965-2.625c-3.754-0.846-6.647-1.458-7.688-1.628c-1.037-0.202-3.797-0.689-7.378-1.02
						c-3.577-0.341-7.994-0.403-12.198,0.213c-4.212,0.575-8.117,1.998-10.784,3.468c-2.67,1.478-4.18,2.827-4.314,2.672
						c-0.115-0.113,1.239-1.686,3.904-3.379c2.656-1.684,6.686-3.272,11.014-3.929c4.323-0.701,8.846-0.654,12.488-0.31
						c3.648,0.333,6.445,0.841,7.496,1.046c1.061,0.173,3.978,0.775,7.738,1.624c3.761,0.839,8.36,1.941,12.874,2.691
						c4.509,0.79,8.94,1.104,12.232,1.025C260.905,208.717,263.049,208.378,263.09,208.599z"/>
				</g>
				<g>
					<path style="fill:#B2EAE8;" d="M96.996,227.951c0.012,0.09-0.618,0.219-1.752,0.377c-0.566,0.086-1.259,0.176-2.06,0.169
						c-0.799-0.004-1.712,0.086-2.699-0.02c-3.974-0.181-9.229-1.356-14.406-3.062c-5.195-1.67-10.453-3.545-14.842-4.578
						c-4.38-1.102-7.839-1.262-9.069-1.323c-0.617-0.03-1.745-0.001-3.242,0.057c-0.748,0.072-1.59,0.129-2.505,0.233
						c-0.911,0.148-1.904,0.255-2.944,0.464c-4.175,0.757-9.174,2.278-14.046,3.762c-4.864,1.497-9.701,2.71-13.369,3.142
						c-0.91,0.149-1.758,0.161-2.498,0.226c-0.741,0.067-1.389,0.06-1.921,0.043c-1.063-0.023-1.661-0.071-1.66-0.148
						c0.001-0.252,2.387-0.306,5.961-0.93c3.579-0.61,8.302-1.905,13.14-3.463c4.837-1.542,9.888-3.102,14.16-3.881
						c1.062-0.215,2.085-0.326,3.019-0.476c0.942-0.106,1.812-0.165,2.583-0.236c1.549-0.058,2.719-0.083,3.356-0.053
						c1.272,0.06,4.865,0.218,9.331,1.344c4.479,1.057,9.772,2.965,14.91,4.683c5.131,1.757,10.232,3.006,14.102,3.37
						C94.413,228.029,96.967,227.702,96.996,227.951z"/>
				</g>
				<g>
					<path style="fill:#B2EAE8;" d="M139.838,239.582c-0.065,0.206-2.669-0.702-6.772-1.352c-2.05-0.314-4.478-0.517-7.093-0.343
						c-2.617,0.176-5.411,0.686-8.226,1.359c-2.818,0.661-5.668,1.453-8.461,2.059c-1.394,0.309-2.775,0.569-4.119,0.757
						c-0.671,0.106-1.334,0.173-1.985,0.208c-0.65,0.047-1.284,0.093-1.901,0.138c-2.467,0.098-4.659,0.043-6.383-0.137
						c-1.734-0.111-3.004-0.325-3.676-0.421c-1.351-0.156-4.898-0.774-9.374-1.878c-4.477-1.101-9.857-2.725-15.113-4.078
						c-5.251-1.376-10.417-2.325-14.293-2.648c-0.965-0.072-1.85-0.138-2.639-0.197c-0.775-0.013-1.454-0.024-2.027-0.033
						c-1.123-0.027-1.765-0.076-1.771-0.153c-0.008-0.106,0.625-0.214,1.756-0.323c0.565-0.05,1.256-0.119,2.052-0.153
						c0.806,0.013,1.705,0.028,2.683,0.044c3.948,0.139,9.222,0.996,14.525,2.318c5.311,1.299,10.692,2.904,15.131,3.991
						c4.438,1.092,7.922,1.711,9.246,1.864c0.66,0.094,1.909,0.301,3.602,0.405c0.845,0.06,1.798,0.18,2.843,0.159
						c0.522,0.005,1.066,0.011,1.63,0.017c0.564,0.016,1.147,0.014,1.745-0.048c0.598-0.043,1.214-0.087,1.844-0.133
						c0.632-0.032,1.275-0.096,1.926-0.198c1.306-0.18,2.656-0.429,4.031-0.728c2.752-0.584,5.602-1.355,8.46-1.992
						c2.853-0.648,5.729-1.131,8.436-1.252c2.712-0.121,5.214,0.167,7.291,0.582C137.37,238.269,139.894,239.436,139.838,239.582z"
						/>
				</g>
				<g>
					<path style="fill:#B2EAE8;" d="M59.825,296.548c0.032,0.085-0.291,0.259-0.896,0.502c-0.303,0.122-0.676,0.26-1.109,0.413
						c-0.438,0.131-0.952,0.2-1.51,0.311c-2.237,0.412-5.343,0.287-8.387-0.365c-3.054-0.625-6.08-1.6-8.531-2.336
						c-2.451-0.743-4.345-1.231-5.027-1.394c-0.342-0.072-0.966-0.204-1.796-0.379c-0.413-0.102-0.886-0.139-1.396-0.223
						c-0.512-0.06-1.064-0.189-1.653-0.2c-2.35-0.27-5.254-0.048-7.883,0.855c-2.638,0.909-4.957,2.425-6.631,3.588
						c-1.675,1.177-2.749,1.996-2.855,1.872c-0.134-0.154,0.767-1.173,2.361-2.523c1.594-1.334,3.931-3.01,6.724-4.048
						c2.793-1.036,5.934-1.288,8.39-1.009c0.624,0.013,1.193,0.145,1.728,0.209c0.53,0.087,1.027,0.13,1.45,0.235
						c0.854,0.183,1.497,0.321,1.849,0.397c0.698,0.166,2.641,0.653,5.106,1.401c2.466,0.742,5.458,1.723,8.412,2.391
						c2.95,0.694,5.878,0.917,8.033,0.709c0.537-0.061,1.038-0.075,1.471-0.146c0.428-0.093,0.803-0.167,1.116-0.221
						C59.416,296.48,59.792,296.458,59.825,296.548z"/>
				</g>
				<g>
					<path style="fill:#B2EAE8;" d="M100.445,290.444c-0.09,0.164-1.57-0.528-3.812-1.593c-2.243-1.055-5.274-2.464-8.537-3.39
						c-3.255-0.963-6.76-1.171-9.504-0.662c-2.738,0.534-4.775,1.463-5.518,1.727c-0.742,0.273-2.676,1.154-5.312,2.007
						c-2.623,0.855-5.928,1.628-9.184,1.965c-3.253,0.366-6.435,0.321-8.768,0.078c-2.336-0.235-3.824-0.604-3.802-0.745
						c0.057-0.427,6.08,0.394,12.429-0.507c3.169-0.393,6.378-1.164,8.931-1.999c2.549-0.826,4.482-1.689,5.238-1.969
						c0.754-0.264,2.806-1.231,5.756-1.809c1.477-0.251,3.151-0.359,4.88-0.225c1.728,0.13,3.501,0.48,5.184,0.996
						c3.374,1.026,6.41,2.567,8.586,3.798C99.187,289.357,100.535,290.281,100.445,290.444z"/>
				</g>
				<g>
					<path style="fill:#B2EAE8;" d="M245.026,226.411c0.004,0.147-2.417,0.293-6.058-0.27c-1.824-0.253-3.922-0.746-6.178-1.318
						c-2.246-0.6-4.638-1.315-7.055-2.044c-2.416-0.726-4.867-1.431-7.236-2.008c-2.37-0.574-4.665-0.951-6.732-1.181
						c-4.145-0.399-7.329,0.068-8.458,0.264c-1.136,0.168-4.128,0.768-7.907,1.97c-3.79,1.145-8.37,2.885-13.069,3.858
						c-4.671,1.015-9.437,1.062-12.808,0.204c-1.687-0.408-3.009-0.979-3.89-1.437c-0.869-0.487-1.321-0.821-1.285-0.882
						c0.121-0.226,2.059,0.912,5.347,1.52c3.274,0.642,7.84,0.492,12.388-0.56c4.552-1.006,9.111-2.753,12.938-3.915
						c3.816-1.218,6.908-1.827,8.081-2.001c1.156-0.201,4.492-0.704,8.785-0.287c2.134,0.237,4.494,0.631,6.903,1.228
						c2.407,0.599,4.877,1.331,7.29,2.09c2.411,0.761,4.778,1.513,6.987,2.165c2.214,0.622,4.267,1.181,6.042,1.521
						C242.655,226.063,245.032,226.185,245.026,226.411z"/>
				</g>
				<g>
					<path style="fill:#B2EAE8;" d="M279.788,288.391c-0.099,0.204-2.023-0.738-5.156-1.523c-0.784-0.193-1.635-0.396-2.559-0.523
						c-0.913-0.181-1.897-0.259-2.915-0.362c-2.042-0.135-4.252-0.184-6.487,0.024c-8.99,0.679-18.03,4.153-19.986,4.825
						c-0.997,0.322-3.576,1.416-7.157,2.217c-1.792,0.39-3.852,0.58-5.958,0.526c-2.111-0.042-4.277-0.272-6.387-0.528
						c-4.218-0.559-8.303-1.121-11.327-1.581c-3.024-0.46-4.987-0.82-4.965-0.973c0.062-0.42,7.989,0.395,16.418,1.38
						c2.111,0.224,4.243,0.427,6.28,0.454c2.04,0.038,3.966-0.147,5.674-0.519c3.415-0.764,5.999-1.835,6.993-2.159
						c1.956-0.668,11.087-4.253,20.329-4.827c2.293-0.18,4.572-0.087,6.669,0.113c1.047,0.135,2.055,0.251,2.99,0.474
						c0.944,0.17,1.812,0.42,2.606,0.665C278.03,287.065,279.862,288.265,279.788,288.391z"/>
				</g>
				<g>
					<path style="fill:#B2EAE8;" d="M478.593,301.01c-0.053,0.191-2.981-0.576-7.468-1.615c-4.471-0.999-10.617-2.263-16.915-1.69
						c-3.139,0.238-6.237,1.114-9.277,1.876c-3.031,0.797-6.07,1.277-8.781,1.418c-2.716,0.149-5.122,0.065-7.021-0.091
						c-1.901-0.143-3.304-0.318-4.044-0.413c-1.482-0.171-5.39-0.753-10.355-1.694c-4.968-0.914-11.021-2.091-16.967-2.27
						c-2.967-0.104-5.893,0.019-8.572,0.404c-2.68,0.377-5.102,1.029-7.089,1.779c-4.016,1.456-6.194,3.311-6.324,3.116
						c-0.065-0.084,0.458-0.559,1.445-1.339c0.511-0.363,1.158-0.771,1.907-1.236c0.784-0.397,1.649-0.908,2.67-1.301
						c2.01-0.86,4.488-1.605,7.232-2.052c2.742-0.455,5.737-0.625,8.763-0.552c6.067,0.117,12.206,1.293,17.163,2.202
						c4.965,0.938,8.82,1.525,10.283,1.693c0.73,0.093,2.114,0.263,3.98,0.399c1.865,0.15,4.215,0.228,6.855,0.084
						c2.646-0.14,5.541-0.588,8.551-1.365c3.007-0.74,6.21-1.627,9.479-1.844c6.534-0.524,12.76,0.888,17.215,2.073
						C475.795,299.822,478.64,300.841,478.593,301.01z"/>
				</g>
				<g>
					<path style="fill:#B2EAE8;" d="M525.125,204.885c-0.079,0.208-1.561-0.423-3.954-0.413c-2.39-0.06-5.571,0.652-8.912,1.374
						c-1.675,0.343-3.407,0.66-5.117,0.738c-1.708,0.084-3.339-0.054-4.775-0.266c-2.873-0.448-4.989-1.097-5.756-1.289
						c-0.757-0.213-2.759-0.776-5.339-1.501c-2.567-0.711-5.724-1.381-8.843-1.327c-3.105,0.008-6.077,0.764-7.978,1.904
						c-1.946,1.078-2.848,2.302-3.003,2.165c-0.137-0.079,0.583-1.528,2.574-2.861c1.943-1.391,5.121-2.318,8.382-2.389
						c3.269-0.126,6.605,0.566,9.195,1.282c2.582,0.731,4.588,1.298,5.345,1.513c0.756,0.19,2.853,0.814,5.61,1.245
						c1.378,0.204,2.924,0.338,4.529,0.272c1.605-0.06,3.284-0.344,4.946-0.652c3.309-0.649,6.653-1.288,9.18-1.033
						C523.748,203.834,525.203,204.757,525.125,204.885z"/>
				</g>
				<g>
					<path style="fill:#B2EAE8;" d="M423.958,203.251c-0.064,0.364-2.361,0.109-4.801,0.055c-2.439-0.085-5.017,0.057-5.578,0.111
						c-0.563,0.038-2.974,0.279-5.22,0.705c-2.252,0.387-4.337,0.939-4.438,0.637c-0.135-0.395,1.9-1.263,4.194-1.794
						c2.284-0.568,4.783-0.766,5.36-0.804c0.575-0.055,3.236-0.261,5.742-0.044C421.726,202.303,424.027,202.88,423.958,203.251z"/>
				</g>
				<g>
					<path style="fill:#B2EAE8;" d="M589.93,303.795c0.125,0.333-1.985,1.24-4.38,1.665c-2.386,0.467-4.968,0.401-5.522,0.372
						c-0.557-0.005-2.977-0.119-5.173-0.696c-2.21-0.523-4.126-1.465-4.008-1.742c0.163-0.403,2.121,0.214,4.259,0.587
						c2.128,0.427,4.427,0.586,4.963,0.591c0.534,0.026,2.99,0.035,5.292-0.288C587.666,304.005,589.798,303.427,589.93,303.795z"/>
				</g>
				<g>
					<path style="fill:#B2EAE8;" d="M703.023,219.79c0.019-0.089,0.523-0.092,1.383-0.031c0.855,0.111,2.093,0.08,3.571,0.024
						c2.971-0.177,6.863-1.281,10.664-2.97c3.807-1.681,7.593-3.777,10.77-5.325c3.17-1.565,5.716-2.599,6.652-2.913
						c0.459-0.178,1.301-0.494,2.458-0.821c0.573-0.179,1.218-0.375,1.942-0.523c0.716-0.183,1.502-0.319,2.338-0.449
						c3.338-0.534,7.532-0.485,11.445,0.369c3.922,0.829,7.505,2.432,9.912,3.981c2.427,1.533,3.75,2.87,3.666,2.964
						c-0.152,0.187-1.626-0.928-4.08-2.259c-2.439-1.35-5.941-2.792-9.736-3.529c-3.787-0.76-7.814-0.786-11.016-0.271
						c-0.802,0.125-1.556,0.255-2.242,0.43c-0.693,0.141-1.316,0.329-1.87,0.501c-1.115,0.311-1.935,0.616-2.382,0.79
						c-0.908,0.304-3.385,1.324-6.525,2.872c-3.148,1.531-6.949,3.618-10.861,5.276c-3.9,1.666-7.996,2.713-11.099,2.704
						c-1.544-0.036-2.817-0.124-3.674-0.372C703.475,220.038,703.003,219.884,703.023,219.79z"/>
				</g>
				<g>
					<path style="fill:#B2EAE8;" d="M764.138,298.959c0.014,0.16-1.172,0.352-3.009,0.336c-1.831-0.072-4.294-0.442-6.713-1.194
						c-2.419-0.738-4.835-1.69-6.75-2.531c-1.914-0.838-3.388-1.483-3.917-1.715c-0.528-0.226-1.923-0.843-3.732-1.571
						c-0.9-0.382-1.923-0.723-2.975-1.128c-1.075-0.312-2.172-0.742-3.292-0.972c-2.215-0.628-4.426-0.79-6.07-0.888
						c-1.639,0.016-2.734,0.05-2.761-0.116c-0.036-0.195,1.037-0.495,2.743-0.701c1.703-0.092,4.05-0.029,6.359,0.556
						c1.177,0.21,2.305,0.627,3.42,0.938c1.079,0.399,2.134,0.746,3.045,1.131c1.841,0.737,3.234,1.368,3.766,1.596
						c0.529,0.229,2.002,0.869,3.914,1.699c1.906,0.839,4.266,1.785,6.602,2.565c2.335,0.791,4.671,1.25,6.426,1.506
						C762.948,298.67,764.126,298.747,764.138,298.959z"/>
				</g>
				<g>
					<path style="fill:#B2EAE8;" d="M17.049,204.133c0.061,0.163-0.992,0.685-2.673,1.32c-1.688,0.608-4.007,1.319-6.451,1.818
						c-4.882,1.08-10.184,1.246-11.33,1.249c-1.147,0.047-6.126,0.068-10.728-0.745c-2.305-0.353-4.497-0.913-6.101-1.384
						c-1.595-0.512-2.606-0.925-2.562-1.07c0.063-0.207,1.144-0.048,2.762,0.277c1.629,0.284,3.804,0.726,6.075,1.008
						c4.531,0.668,9.401,0.699,10.529,0.654c1.128-0.004,6.311-0.223,11.122-1.157c2.411-0.427,4.716-1.018,6.437-1.44
						C15.842,204.216,16.98,203.946,17.049,204.133z"/>
				</g>
				<g>
					<path style="fill:#B2EAE8;" d="M34.033,268.002c0.04,0.131-1.763,0.636-4.501,0.158c-1.348-0.263-2.895-0.72-4.495-1.36
						c-1.597-0.642-3.26-1.424-4.948-2.163c-1.687-0.739-3.409-1.427-5.105-1.853c-1.695-0.447-3.357-0.511-4.82-0.367
						c-2.941,0.371-5.04,1.584-5.795,1.919c-0.766,0.356-2.703,1.479-5.293,2.91c-1.297,0.705-2.81,1.428-4.443,2.004
						c-1.634,0.577-3.387,1.017-5.139,1.283c-3.507,0.553-6.973,0.33-9.454-0.165c-2.49-0.499-4.005-1.187-3.96-1.311
						c0.072-0.224,1.646,0.203,4.092,0.504c2.441,0.298,5.776,0.4,9.132-0.195c1.676-0.287,3.35-0.729,4.908-1.293
						c1.56-0.565,2.988-1.253,4.261-1.946c2.532-1.402,4.538-2.548,5.331-2.918c0.388-0.198,1.132-0.567,2.174-0.994
						c1.046-0.41,2.411-0.882,4.037-1.064c1.62-0.165,3.469-0.077,5.274,0.413c1.81,0.467,3.588,1.205,5.286,1.984
						c1.699,0.78,3.331,1.595,4.87,2.276c1.539,0.678,2.994,1.183,4.261,1.525C32.252,267.984,34.007,267.767,34.033,268.002z"/>
				</g>
			</g>
		</g>
		<path style="fill:#FFEBCE;" d="M0,333.852c0,0,112.284-30.476,261.167-18.538c135.934,10.9,465.245-19.438,488.833,10.326V500H0
			V333.852z"/>
		<g>
			<path style="fill:#D3C3AE;" d="M722.318,421.325c0,3.339-32.229,6.047-71.985,6.047s-71.985-2.707-71.985-6.047
				c0-3.339,32.229-6.046,71.985-6.046S722.318,417.986,722.318,421.325z"/>
			<ellipse style="fill:#D3C3AE;" cx="516.6" cy="421.325" rx="71.985" ry="1.978"/>
			<g>
				<g>
					<path style="fill:#65A49B;" d="M630.005,122.872c0,0-8.499,24.08-12.768,36.07c-4.663,13.092-30.758,37.522-35.941,50.381
						l8.143,0.951c0,0,31.858-16.771,40.566-34.443C639.442,156.677,630.005,122.872,630.005,122.872z"/>
					<path style="fill:#36302C;" d="M625.368,135.997L625.368,135.997c0,0-3.712,35.116-3.451,50.748
						c3.381-3.499,6.251-7.186,8.088-10.915c9.438-19.153,0-52.958,0-52.958S627.957,128.674,625.368,135.997z"/>
					<path style="fill:#FF9C80;" d="M669.594,208.303l-48.104-10.224c0,0-2.35,44.441-3.92,98.326
						c-1.201,41.255,1.087,84.706,2.832,106.605h13.825c0,0,18.204-66.628,16.342-102.111
						C650.57,300.9,665.022,221.983,669.594,208.303z"/>
					<path style="fill:#FF9C80;" d="M633.422,206.952c0,0,17.102,106.313,54.768,196.059h15.073c0,0-16.287-159.908-16.781-163.856
						c-0.493-3.948,1.916-26.03-3.607-37.692L633.422,206.952z"/>
					<path style="fill:#65A49B;" d="M683.41,197.557c1.553-15.02-8.928-75.633-8.928-75.633s-0.363-9.48-8.948-9.48l-25.385,2.41
						c0,0-6.529,0-10.144,8.018c-3.572,7.922-8.708,68.447-8.708,73.349c0,0.611,0.064,1.235,0.194,1.859h0
						c0,0-0.237,4.31,11.931,8.873c10.108,3.791,34.094,4.493,46.871-2.263c1.051-0.778,2.005-1.82,2.581-3.225
						c0-0.001,0.001-0.001,0.001-0.002h-0.001C683.316,200.385,683.537,199.097,683.41,197.557z"/>
					<path style="fill:#A48075;" d="M642.15,116.491c0,0,1.809-12.083,1.458-20.542l12.111,0.657c0,0,2.288,9.127,3.572,16.386
						C659.291,112.992,646.826,118.565,642.15,116.491z"/>
					
						<rect x="642.012" y="83.403" transform="matrix(0.9652 -0.2614 0.2614 0.9652 -1.238 172.523)" style="fill:#A48075;" width="11.951" height="15.026"/>
					<path style="fill:#A48075;" d="M640.267,85.268c0,0-1.363,11.379,1.265,16.54c2.286,4.488,9.748,1.092,10.64-4.082
						C653.064,92.551,650.449,82.064,640.267,85.268z"/>
					<path style="fill:#8F7168;" d="M643.479,103.622c0,0,3.398,1.184,6.294-1.756c0,0-0.887,6.26-6.612,5.948L643.479,103.622z"/>
					<path style="fill:#A48075;" d="M642.15,116.491l-2.236,7.607c0,0,16.357-4.143,19.377-11.106L642.15,116.491z"/>
					<path style="fill:#36302C;" d="M638.977,236.502C638.976,236.502,638.976,236.501,638.977,236.502
						c0,0,4.511,43.546,11.593,64.399l1.474-7.965c0,0,0-0.004,0-0.005C646.361,270.981,642.027,251.408,638.977,236.502z"/>
					<path style="fill:#36302C;" d="M683.426,189.041l-28.894,15.497c0,0,18.788-4.263,28.953-7.893
						C683.616,194.663,683.584,192.071,683.426,189.041z"/>
					<path style="fill:#36302C;" d="M672.767,143.769c0,0,4.425,3.162,5.866,4.178l1.868,13.173
						C680.5,161.121,673.067,152.352,672.767,143.769z"/>
					<polygon style="fill:#36302C;" points="621.533,403.011 620.175,410.899 600.434,418.179 600.434,421.325 635.043,419.845 
						634.55,413.182 633.422,403.011 					"/>
					<polygon style="fill:#36302C;" points="690.148,403.011 688.79,410.899 686.354,417.439 686.354,420.585 703.658,419.845 
						703.165,413.182 702.037,403.011 					"/>
					<g>
						<path style="fill:#868063;" d="M462.374,256.5c-0.795,0-1.531-0.517-1.771-1.318c-0.295-0.979,0.259-2.011,1.238-2.306
							l255.347-76.861c0.98-0.294,2.011,0.261,2.305,1.239c0.295,0.979-0.26,2.011-1.238,2.306l-255.347,76.86
							C462.73,256.474,462.55,256.5,462.374,256.5z"/>
					</g>
					<g>
						<path style="fill:#432918;" d="M513.419,264.769c-0.098,0-0.197-0.007-0.298-0.024l-93.279-15.086
							c-1.009-0.163-1.695-1.113-1.531-2.123c0.163-1.009,1.111-1.7,2.123-1.531l93.28,15.086c1.008,0.163,1.695,1.113,1.531,2.123
							C515.097,264.123,514.312,264.769,513.419,264.769z"/>
					</g>
					<path style="fill:#432918;" d="M431.976,251.485v13.622c0,0.379,0.525,0.474,0.659,0.12l4.789-12.726L431.976,251.485z"/>
					<path style="fill:#432918;" d="M448.031,253.984v13.622c0,0.379,0.526,0.474,0.659,0.12L453.479,255L448.031,253.984z"/>
					<path style="fill:#432918;" d="M464.179,256.5v13.622c0,0.379,0.526,0.474,0.659,0.12l4.789-12.726L464.179,256.5z"/>
					<path style="fill:#432918;" d="M479.772,259.181v13.622c0,0.379,0.525,0.474,0.659,0.12l4.789-12.726L479.772,259.181z"/>
					<path style="fill:#432918;" d="M495.674,261.582v13.622c0,0.379,0.525,0.474,0.659,0.12l4.789-12.726L495.674,261.582z"/>
					<path style="fill:#432918;" d="M515.02,263.893l-5.004,13.761c-0.138,0.38-0.701,0.284-0.705-0.12l-0.147-13.142
						c-0.002-0.186,0.136-0.343,0.32-0.365l5.151-0.619C514.904,263.376,515.112,263.639,515.02,263.893z"/>
					<path style="fill:#432918;" d="M504.921,239.909l-43.08,12.967c-0.979,0.294-1.533,1.327-1.238,2.306
						c0.241,0.801,0.976,1.318,1.771,1.318c0.176,0,0.356-0.026,0.534-0.079l44.189-13.301
						C508.058,240.183,504.922,239.909,504.921,239.909z"/>
					<path style="fill:#A48075;" d="M590.19,212.717c0-0.005-0.001-0.012-0.002-0.016c-0.055-0.274-0.268-2.13-0.749-2.427l0,0
						l-7.24-0.846c-0.369,0.249-0.84,0.647-1.283,1.119c-0.854,0.871-1.558,1.966-1.712,2.223c-0.124,0.191-0.585,0.924-0.993,1.807
						c-0.238,0.385-0.527,0.809-0.883,1.204c-0.248,0.286-0.518,0.558-0.795,0.801c-0.137,0.122-0.278,0.234-0.414,0.341
						c-0.07,0.051-0.138,0.102-0.205,0.152l-0.115,0.084c-0.051,0.038-0.129,0.102-0.183,0.157c-0.24,0.229-0.333,0.527-0.287,0.789
						c0.042,0.265,0.213,0.462,0.403,0.577c0.185,0.11,0.435,0.162,0.55,0.172c0.116,0.012,0.205,0.013,0.269,0.011
						c0.06,0,0.164-0.008,0.266-0.021c0.09-0.012,0.2-0.027,0.325-0.044c0.251-0.035,0.569-0.079,0.931-0.144
						c0.699-0.125,2.687-0.74,2.972-0.928c-0.006,0.089-0.012,0.179-0.019,0.272c-0.022,0.467-0.088,0.952-0.11,1.065
						c-0.017,0.114-0.144,0.62-0.304,1.089c-0.144,0.454-0.312,0.897-0.314,0.932c-0.017,0.22,1.606,0.67,3.243,0.532
						c0.815-0.073,1.656-0.241,2.321-0.473c0.666-0.227,1.158-0.48,1.337-0.586c0.181-0.093,0.704-0.384,1.276-0.886
						c0.573-0.499,1.176-1.239,1.555-2.073c0.335-0.703,0.469-1.461,0.455-2.078c0.003-0.007,0.011-0.025,0.011-0.025
						C590.572,214.694,590.408,213.662,590.19,212.717z"/>
					<path style="fill:#8F7168;" d="M581.047,217.728c0,0-0.046-1.666,0.925-2.193c0,0-1.837,0.531-1.913,2.57L581.047,217.728z"/>
					<path style="fill:#65A49B;" d="M669.594,113.344c0,0,35.395,19.205,42.062,39.441c6.571,19.943-21.531,39.057-57.125,51.753
						l-4.198-6.151c0,0,27.573-25.799,44.971-38.199c0,0-13.24-9.883-16.672-12.24C678.632,147.948,660.357,113.881,669.594,113.344
						z"/>
					<g>
						<g>
							<g>
								<path style="fill:#494949;" d="M698.193,158.365c0.207,0.308-5.655,4.426-11.648,9.099
									c-6.017,4.642-12.171,9.818-13.501,10.968c-1.349,1.127-7.039,6.091-12.295,10.887c-5.275,4.775-10.161,9.332-10.382,9.103
									c-0.29-0.299,4.382-5.087,9.58-9.971c5.179-4.904,10.924-9.846,12.278-10.977c1.333-1.153,7.476-6.396,13.597-10.957
									C691.922,161.926,697.985,158.052,698.193,158.365z"/>
							</g>
						</g>
					</g>
					<path style="fill:#A48075;" d="M653.513,203.089c0,0-2.217-3.404-2.565-3.737c-0.344-0.333-0.92-0.661-1.559-0.838
						c-0.637-0.187-1.322-0.223-1.873-0.189c-0.547,0.038-0.958,0.128-1.113,0.16c-0.317,0.041-1.709,0.424-2.892,0.961
						c-0.907,0.389-1.755,0.799-2.068,1.089c-0.081,0.023-0.145,0.062-0.177,0.129c-0.104,0.215,0.521,0.64,1.256,0.957
						c0.378,0.17,0.712,0.322,1.04,0.421l-6.823,2.054c-0.09-0.004,1.247,1.244,3.353,1.855c2.086,0.667,4.434,0.709,4.966,0.674
						c0.269,0.002,1.023-0.02,1.992-0.143c0.969-0.131,2.144-0.399,3.243-0.811c1.1-0.412,2.108-1.026,2.721-1.637
						C653.638,203.427,653.621,203.164,653.513,203.089z"/>
					<path style="fill:#36302C;" d="M648.526,86.261c0,0-8.044,1.581-8.259-0.993l-0.108,1.079c0,0-0.431,0.138-0.847-1.079
						c-0.416-1.217,0.185-3.592,2.684-3.808c2.499-0.216,2.9,0.617,4.843,0.309c1.943-0.309,4.392-1.571,5.923-0.74
						c2.159,1.172,1.761,5.08,0.634,6.998C653.395,88.025,651.016,85.727,648.526,86.261z"/>
					<path style="fill:#36302C;" d="M652.709,89.47c0,0,0.456,1.21,1.48,1.489c0,0,0.426-5.983,0.079-7.307L652.709,89.47z"/>
					<path style="fill:#A48075;" d="M650.947,85.84c0,0,1.608-1.385,2.84,0.065c1.016,1.196,0.176,4.222-3.349,3.984
						C650.438,89.888,649.661,87.925,650.947,85.84z"/>
				</g>
				<path style="fill:#432918;" d="M418.296,247.615v15.137c0,0.424,0.589,0.531,0.738,0.134l4.71-12.516L418.296,247.615z"/>
			</g>
		</g>
		<g>
			<ellipse style="fill:#D3C3AE;" cx="270.802" cy="451.237" rx="119.671" ry="5.713"/>
			<path style="fill:#D3C3AE;" d="M373.744,455.109c0,3.155-13.949,5.713-31.155,5.713c-17.207,0-31.155-2.558-31.155-5.713
				c0-3.155,13.949-5.712,31.155-5.712C359.795,449.397,373.744,451.955,373.744,455.109z"/>
			<ellipse style="fill:#D3C3AE;" cx="169.759" cy="449.994" rx="17.199" ry="3.943"/>
			<ellipse style="fill:#D3C3AE;" cx="179.939" cy="452.935" rx="25.708" ry="3.943"/>
			<g>
				<path style="fill:#36302C;" d="M305.705,245.06c0,0,7.428,7.646,5.807,11.998l-6.927-1.324L305.705,245.06z"/>
				<path style="fill:#578C83;" d="M316.106,260.224c0,0,7.409,7.109,10.638,60.781c0,0,0.617-9.501,25.047-53.367l7.773,2.034
					c0,0-7.65,73.58-37.262,70.581L316.106,260.224z"/>
				<path style="fill:#FF9C80;" d="M325.462,344.323c0,0-7.735,69.469-13.283,80.573c-5.548,11.105-10.36,18.878-24.055,21.099
					l-100.508,2.221v-12.832c0,0,58.125-19.187,87.923-12.709c0,0-1.433-46.63-2.174-48.481c-0.74-1.851-9.003-11.845-5.617-28.153
					L325.462,344.323z"/>
				<path style="fill:#FF9C80;" d="M325.462,344.323l-55.693,3.749c0,0-0.801,14.278,7.435,28.056l12.277,52.593
					c-41.951-3.948-99.891,10.858-99.891,10.858v14.358h110.265c13.335-0.448,23.681-9.916,25.607-22.98
					C327.389,417.894,325.462,344.323,325.462,344.323z"/>
				<path style="fill:#65A49B;" d="M265.326,338.083c0.374-23.676,7.652-72.271,7.652-72.271s0.516-7.092,7.532-9.393
					c2.055-0.674,9.457-2.033,9.457-2.033h13.102c0,0,12.979,1.755,15.994,10.334c2.514,7.156,5.736,55.556,7.605,73.843
					c0.291,3.853-0.462,6.327-5.137,9.063c-6.225,3.311-28.317,7.958-49.132,1.88C265.326,346.836,265.323,339.09,265.326,338.083z"
					/>
				<path style="fill:#A48075;" d="M307.033,257.929c0,0-1.81-12.083-1.458-20.542l-12.111,0.657c0,0-2.288,9.127-3.572,16.386
					C289.893,254.43,302.357,260.003,307.033,257.929z"/>
				
					<rect x="295.221" y="224.841" transform="matrix(-0.9652 -0.2614 0.2614 -0.9652 531.1934 535.3536)" style="fill:#A48075;" width="11.951" height="15.026"/>
				<path style="fill:#A48075;" d="M308.916,226.706c0,0,1.363,11.379-1.265,16.54c-2.285,4.488-9.748,1.092-10.639-4.082
					C296.12,233.989,298.734,223.503,308.916,226.706z"/>
				<path style="fill:#8F7168;" d="M305.705,245.06c0,0-3.398,1.184-6.294-1.756c0,0,0.887,6.26,6.611,5.948L305.705,245.06z"/>
				<path style="fill:#A48075;" d="M307.73,255.52c0,0,4.269,10.301-2.522,11.06c-9.503,1.063-16.763-7.334-17.502-11.766
					l2.261-0.429l16.233,0.639L307.73,255.52z"/>
				<path style="fill:#36302C;" d="M281.957,293.639c0,0-8.443,19.39-15.456,25.121l0.578-6.083
					C267.079,312.677,279.163,294.806,281.957,293.639z"/>
				<path style="fill:#36302C;" d="M269.538,343.437c0.006,1.852,0.007,2.774,0.099,4.553c1.938,0.893,3.783,1.415,5.814,1.737
					c17.823,2.835,44.672,1.204,44.672,1.204C298.102,349.368,281.554,346.908,269.538,343.437z"/>
				<path style="fill:#36302C;" d="M269.637,347.991l-0.099-4.553l-3.919-2.1C266.082,343.445,267.166,346.098,269.637,347.991z"/>
				<path style="fill:#65A49B;" d="M275.481,260.246c0,0-32.54,38.18-32.54,58.764c0,17.926,20.462,27.893,77.203,31.923
					l2.166-8.879c0,0-48.376-22.281-61.085-22.034c0,0,15.026-18.733,22.333-28.502
					C290.866,281.747,284.775,259.431,275.481,260.246z"/>
				<g>
					<g>
						<path style="fill:none;stroke:#000000;stroke-width:0.15;stroke-miterlimit:10;" d="M258.193,320.512"/>
					</g>
				</g>
				<g>
					<g>
						<g>
							<path style="fill:#494949;" d="M321.872,342.321c-0.165,0.328-7.3-3.081-15.021-6.366c-7.705-3.322-15.969-6.57-17.782-7.266
								c-0.907-0.345-3.309-1.26-6.401-2.438c-3.103-1.137-6.883-2.642-10.582-3.846c-3.702-1.217-7.412-1.94-10.192-2.012
								c-2.782-0.096-4.574,0.345-4.616,0.166c-0.058-0.174,1.723-0.891,4.619-0.984c2.886-0.117,6.753,0.524,10.538,1.7
								c3.799,1.167,7.56,2.646,10.677,3.785c3.096,1.184,5.502,2.105,6.41,2.452c1.815,0.697,10.124,3.9,17.804,7.35
								C315.025,338.278,322.045,341.982,321.872,342.321z"/>
						</g>
					</g>
				</g>
				<path style="fill:#36302C;" d="M289.481,428.721l-12.277-52.593l7.64,49.138c0,0-28.934-5.799-95.254,14.313
					C189.59,439.579,247.53,424.773,289.481,428.721z"/>
				<g>
					<g>
						<g>
							<path style="fill:#494949;" d="M278.788,378.14c-0.274,0.22-2.486-2.401-4.215-5.598c-1.782-3.167-2.98-6.833-3.218-7.63
								c-0.268-0.789-1.308-4.256-1.657-7.633c-0.427-3.369-0.191-6.551,0.105-6.538c0.439,0.01,0.522,3.122,1.066,6.378
								c0.467,3.268,1.426,6.642,1.688,7.413c0.232,0.779,1.447,4.314,3.068,7.453C277.191,375.15,279.102,377.899,278.788,378.14z"
								/>
						</g>
					</g>
				</g>
				<path style="fill:#905A51;" d="M380.253,298.575c-19.033-19.807-17.499-33.543-17.499-33.543s-0.551-4.388,2.051-6.199
					c2.646-1.841,3.499-2.628,3.482-4.716c0,0,0.418-3.26-9.288-3.234c-8.3,0.022-9.007,3.054-9.007,3.054s-1.114,2.021,1.322,3.943
					c1.91,1.506,4.477,2.743,4.895,7.422c0,0,4.24,13.73-13.373,29.848c-11.845,10.839-17.059,38.456,10.241,44.211
					C381.455,345.343,397.645,316.674,380.253,298.575z"/>
				<path style="fill:#724640;" d="M358.875,252.094c0,0-5.306-0.123-7.033,1.666c-1.598,1.655,1.188,3.518,4.642,3.788
					c0.216-0.002,1.921-0.064,1.342-1.567c-0.617-1.604,2.965-0.813,3.087,1.443c2.974-0.301,5.148-1.061,5.797-2.585
					C367.599,252.752,361.038,252.007,358.875,252.094z"/>
				<path style="fill:#724640;" d="M364.805,258.833c0,0-2.907,1.405-6.238,1.035c0,0,0.447,1.65,2.067,1.326
					c1.619-0.324,2.39,0.205,2.282,0.8C362.915,261.994,363.194,260.012,364.805,258.833z"/>
				<path style="fill:#724640;" d="M357.025,279.918c0,0-2.221,7.208-9.007,13.721c-6.786,6.514,1.727,6.637,5.306,0.715
					C356.901,288.432,357.641,282.879,357.025,279.918z"/>
				<path style="fill:#724640;" d="M383.371,302.453c0,0.001-1.083,22.159-18.566,28.679c-17.483,6.521-27.864-1.299-27.864-1.299
					l0,0c3.084,4.378,8.252,7.865,16.135,9.527C379.499,344.931,395.35,320.461,383.371,302.453z"/>
				<path style="fill:#724640;" d="M334.219,324.273c-0.143-0.503-2.82-16.471,7.505-16.223c10.37,0.249,12.339-8.39,12.339-8.39
					c-2.468,3.825-10.981,6.293-12.585,2.793c-1.604-3.499,1.357-7.305,1.357-7.305C335.765,301.618,331.06,314.065,334.219,324.273
					z"/>
				<path style="fill:#724640;" d="M362.754,265.031c0,0-0.077-0.617-0.037-1.484c0,0-4.952,6.808,5.042,18.468
					C362.029,271.523,362.754,265.031,362.754,265.031z"/>
				<polygon style="fill:#36302C;" points="189.59,452.843 158.867,452.935 158.867,451.085 177.853,441.784 187.328,441.784 
					189.59,443.034 				"/>
				<polygon style="fill:#36302C;" points="187.616,447.267 156.893,447.36 156.893,445.509 175.878,436.209 185.353,436.209 
					187.616,437.458 				"/>
				<path style="fill:#DC4240;" d="M322.388,356.065c0,0,6.167-3.46,11.759,5.001c4.98,7.534,14.3,16.964,21.286,19.454
					c6.986,2.49,13.106,12.137-4.058,12.935C334.21,394.253,315.697,359.391,322.388,356.065z"/>
				<path style="fill:#DC4240;" d="M320.986,358.46c0,0,2.431,19.983-2.119,35.739c-4.55,15.756-5.149,44.497,11.417,53.878
					c16.566,9.381,37.723-3.736,38.721-18.235c0.998-14.498-9.708-32.244-9.121-38.195L320.986,358.46z"/>
				<path style="fill:#BC3737;" d="M324.896,358.46c0,0-1.697,0.607,0.399,4.844c2.096,4.237,5.589,19.107,15.169,23.598
					c9.58,4.491,16.866,2.894,18.263,1.796c1.397-1.098,0-3.992-5.788-6.187c-5.788-2.195-11.377-7.585-16.067-13.473
					C332.181,363.15,328.588,356.247,324.896,358.46z"/>
				<path style="fill:#BC3737;" d="M339.13,404.848c-16.23,1.913,0.735,5.705,9.118,3.709c8.383-1.996,21.356,24.169,2.595,41.025
					c0,0,0.206,0.034,0.555,0.091c9.479-3.284,17.022-11.316,17.608-19.832c0.998-14.498-9.708-32.244-9.121-38.195
					C359.884,391.647,355.36,402.935,339.13,404.848z"/>
				<path style="fill:#BC3737;" d="M327.782,379.182c0,0,6.293,12.277,17.767,13.634c11.475,1.357-5.059,7.403-10.858,1.727
					C328.893,388.867,326.178,378.38,327.782,379.182z"/>
				<path style="fill:#36302C;" d="M308.916,226.706c0,0-1.122,1.59-3.898,0.665c-2.776-0.925-8.132,0.203-10.012,4.983
					c0,0,0.927-11.368,2.647-11.553C299.373,220.616,310.455,224.931,308.916,226.706z"/>
				<path style="fill:#36302C;" d="M308.544,227.068c0,0,0.081,0.549,0.487,0.79l0.032,0.378c0,0,0.49-0.333,0.605-0.83
					c0.116-0.497-0.22-1.099-0.81-1.134L308.544,227.068z"/>
				<path style="fill:#36302C;" d="M296.663,222.226c0,0-2.288,8.153-10.524,14.075s-9.637,18.27,1.567,22.091
					c11.204,3.82,8.306-16.631,6.84-20.055c-1.466-3.424,1.59-8.572,3.107-9.481L296.663,222.226z"/>
				<path style="fill:#A48075;" d="M296.911,227.278c0,0-1.608-1.385-2.84,0.065c-1.016,1.196-0.176,4.222,3.349,3.984
					C297.42,231.327,298.197,229.363,296.911,227.278z"/>
				<path style="fill:#36302C;" d="M296.663,222.226c0,0-1.257-3.217-4.416-2.304c-3.023,0.873-2.149,7.311,3.414,5.275
					C295.661,225.197,297.101,223.882,296.663,222.226z"/>
				<path style="fill:#A48075;" d="M364.255,265.737c0.016-0.079,0.034-0.153,0.049-0.237c0.109-0.621,0.156-1.393,0.073-2.134
					c-0.08-0.74-0.285-1.444-0.539-1.92c-0.24-0.452-0.494-0.682-0.632-0.645c-0.074-0.054-0.244-0.013-0.477,0.113
					c0.031-0.311-0.027-0.544-0.193-0.579c-0.013-0.003-0.027,0.003-0.041,0.004c-0.156-0.009-0.459,0.114-0.88,0.27
					c-0.533,0.204-1.258,0.438-2.034,0.65c-0.774,0.215-1.591,0.429-2.259,0.667c-0.665,0.235-1.162,0.481-1.338,0.575
					c-0.176,0.09-0.654,0.324-1.204,0.758c-0.547,0.421-1.144,1.132-1.439,1.901c-0.305,0.752-0.477,1.442-0.666,1.92
					c-0.176,0.481-0.294,0.623-0.183,0.742l4.162,1.089c0,0,1.793-0.377,2.054-4.078c0.089,0.162,0.42,0.11,0.817-0.068
					c-0.084,0.177-0.143,0.314-0.172,0.385c-0.133,0.292-0.7,1.601-0.829,2.931c-0.172,1.3,0.087,2.508,0.384,2.515
					c0.074,0.109,0.425,0.137,0.941,0.018c0.365-0.082,0.8-0.254,1.237-0.492c0.028,0.034,0.046,0.068,0.085,0.103
					c0.297,0.277,0.825,0.348,1.278,0.246c0.453-0.081,0.916-0.375,1.166-0.649c0.264-0.267,0.424-0.511,0.481-0.604
					c0.129-0.166,0.642-1.073,0.608-2.027C364.709,266.547,364.478,265.993,364.255,265.737z"/>
				<path style="fill:#A48075;" d="M354.78,263.258l0.731-0.939l0.141,0.357C355.652,262.676,355.401,263.039,354.78,263.258z"/>
				<path style="fill:#8F7168;" d="M362.729,260.914c0,0-0.311,2.053-3.204,3.85l-0.327,0.748
					C359.197,265.513,362.233,264.66,362.729,260.914z"/>
				<path style="fill:#A48075;" d="M329.482,350.011c-0.078-0.194-0.244-0.343-0.48-0.448c-0.233-0.094-0.532-0.151-0.59-0.185
					c-0.225-0.081-0.433-0.187-0.614-0.298c-0.363-0.221-0.618-0.454-0.71-0.533c-0.202-0.146-0.876-0.958-1.579-1.801
					c-0.357-0.411-0.758-0.791-1.109-1.01c-0.184-0.116-1.136-0.913-1.45-1.111c-0.775-0.487-1.135-0.576-1.209-0.444l-0.968,3.963
					c-0.113,0.339-0.297,1.027-0.248,2.035c0.039,1.009,0.063,1.914,0.139,2.158c0.059,0.243,0.357,1.403,1.005,2.347
					c0.381,0.596,0.888,1.048,1.259,1.256c0.034,0.178,0.075,0.366,0.118,0.557c0.208,0.841,0.404,1.63,0.452,1.822
					c0.045,0.194,0.244,1.056,0.447,1.937c0.211,0.843,0.445,1.636,0.719,1.596c0.129-0.045,0.249-0.098,0.37-0.15
					c0.272-0.068,0.623-0.207,1.012-0.451c0.862-0.525,1.785-1.604,2.244-2.925c0.481-1.323,0.471-2.773,0.311-3.892
					c-0.16-1.126-0.439-1.949-0.527-2.245c-0.046-0.147-0.131-0.415-0.259-0.765c0.096-0.017,0.2-0.043,0.317-0.082
					c0.217-0.076,0.424-0.159,0.708-0.323c0.177-0.114,0.435-0.258,0.554-0.426C329.515,350.448,329.567,350.221,329.482,350.011z"
					/>
			</g>
		</g>
		<g>
			<ellipse style="fill:#D3C3AE;" cx="431.877" cy="463.673" rx="31.155" ry="5.713"/>
			<ellipse style="fill:#D3C3AE;" cx="488.214" cy="460.973" rx="100.559" ry="5.713"/>
			<ellipse style="fill:#D3C3AE;" cx="517.67" cy="455.26" rx="63.811" ry="9.585"/>
			<g>
				<path style="fill:#36302C;" d="M517.383,222.215c0,0,0.756,7.453,9.002,9.508c9.041,2.253,20.777,3.887,20.407,17.49
					c-0.37,13.603-18.183,12.863-20.798,11.012S515.276,224.066,517.383,222.215z"/>
				<g>
					<path style="fill:#868063;" d="M389.892,367.504c0,0,3.047,4.479,1.402,13.581c-1.511,8.363-10.92,22.151-6.663,40.347
						c4.756,20.329,25.762,27.228,47.724,25.934c23.408-1.38,36.162-12.848,37.811-30.398c2.279-24.263-14.403-37.363-10.023-49.464
						H389.892z"/>
					<path style="fill:#6A6E62;" d="M460.143,367.504h-1.144c-3.912,2.621-8.665,4.182-8.665,4.182
						c7.403,11.823,12.206,35.929,5.531,51.932c-8.83,21.172-32.095,23.78-32.177,23.813c2.849,0.13,5.749,0.107,8.667-0.065
						c23.408-1.38,36.162-12.848,37.811-30.398C472.446,392.706,455.764,379.605,460.143,367.504z"/>
					<path style="fill:#868063;" d="M446.92,347.525c0,0-7.69-7.54-16.08-7.225c-8.39,0.315-15.053,7.341-18.014,8.64
						c-2.961,1.299-25.202,2.04-25.171,13.144c0.031,11.085,21.698,13.079,41.334,13.079c22.003,0,33.068-6.893,34.425-12.076
						C464.385,359.382,463.66,350.486,446.92,347.525z"/>
					<path style="fill:#6A6E62;" d="M430.439,343.978c0,0-4.966,0.432-8.483,3.301c-3.517,2.869-6.644,4.647-12.844,5.48
						c-6.2,0.833-15.967,3.064-16.707,7.599s14.529,9.532,35.35,9.902c20.821,0.37,33.748-3.237,35.659-7.171
						c1.912-3.934-6.593-11.8-17.892-12.355C445.523,350.733,438.922,343.759,430.439,343.978z"/>
					<path style="fill:#6A6E62;" d="M391.295,381.086c-1.512,8.363-10.92,22.151-6.663,40.347
						c1.827,7.809,6.057,13.629,11.813,17.771c-15.723-18.116-3.36-46.769-1.017-51.826c2.344-5.059,0.987-11.722,9.871-11.105
						c8.884,0.617,21.66-1.111,21.66-1.111c-26.337,0.185-37.066-7.659-37.066-7.659S392.94,371.984,391.295,381.086z"/>
				</g>
				<path style="fill:#6A6E62;" d="M461.995,411.156c0,0-25.417,2.715-42.321,1.234c-16.904-1.481,6.416,11.105,17.521,8.02
					c11.105-3.085,21.099-7.033,24.8-7.156C465.696,413.131,464.306,410.929,461.995,411.156z"/>
				<path style="fill:#D1DCFF;" d="M427.755,370.259c0,0-0.062-6.937,5.676-11.059c5.737-4.122,16.639-0.551,18.323,9.25
					C451.754,368.45,441.713,370.856,427.755,370.259z"/>
				<path style="fill:#7781B2;" d="M495.406,262.412c0,0-18.235,31.303-49.205,71.103l5.185,7.072c0,0,37.356-25.671,48.194-46.276
					L495.406,262.412z"/>
				<path style="fill:#FFBE6A;" d="M526.621,345.461c0,0-62.464,32.22-73.822,38.993c-7.371,4.396-15.894,23.705,6.78,32.122
					c23.091,8.572,93.656,17.777,93.656,17.777v-13.987c0,0-55.451-30.308-82.662-23.029c0,0,73.383-2.097,88.189-21.16
					c0,0,11.216-15.551-0.612-34.242l-17.269-3.643L526.621,345.461z"/>
				<path style="fill:#8790C8;" d="M558.687,338.027c0.075-18.669-21.436-76.414-21.436-76.414s-2.961-9.44-9.742-9.44h-6.362
					l-10.115,0.74l-5.482,1.481c0,0-6.734,0.606-10.144,8.018c-3.632,7.895,1.167,69.376,1.167,74.278
					c0,0.611-0.132,6.574,12.125,10.732c10.223,3.468,34.094,4.493,46.871-2.263c1.051-0.778,2.005-1.82,2.581-3.225
					c0-0.001,0.001-0.002,0.001-0.002h-0.001C558.592,340.854,558.813,339.566,558.687,338.027z"/>
				<path style="fill:#E4B69E;" d="M506.298,255.696c0,0,1.81-12.083,1.458-20.542l12.111,0.657c0,0,2.288,9.127,3.572,16.386
					C523.439,252.197,510.974,257.77,506.298,255.696z"/>
				
					<rect x="506.16" y="222.608" transform="matrix(0.9652 -0.2614 0.2614 0.9652 -42.3431 141.8489)" style="fill:#E4B69E;" width="11.951" height="15.026"/>
				<path style="fill:#E4B69E;" d="M504.415,224.473c0,0-1.363,11.379,1.265,16.54c2.285,4.488,9.748,1.092,10.639-4.082
					C517.212,231.756,514.597,221.269,504.415,224.473z"/>
				<path style="fill:#8F7168;" d="M507.626,242.827c0,0,3.398,1.184,6.294-1.756c0,0-0.887,6.26-6.611,5.948L507.626,242.827z"/>
				<path style="fill:#E4B69E;" d="M506.298,255.696c0,0-3.299,8.483,2.75,8.744c6.113,0.264,13.652-7.811,14.39-12.243
					L506.298,255.696z"/>
				<path style="fill:#36302C;" d="M517.604,404.435c-3.032-1.1-6.135-2.152-9.261-3.115l12.67,28.319
					c0.19,0.03,0.378,0.06,0.567,0.09l1.157,0.183c0.017,0.003,0.033,0.005,0.05,0.008
					C522.786,429.919,521.293,412.982,517.604,404.435z"/>
				<g>
					<polygon style="fill:#36302C;" points="517.604,404.435 517.604,404.435 517.604,404.435 					"/>
					<path style="fill:#36302C;" d="M483.496,371.904l18.736,22.914c3.626-0.442,7.379-0.958,11.157-1.561
						c-2.482-5.861-5.785-12.489-9.147-15.784L483.496,371.904z"/>
				</g>
				<path style="fill:#FFBE6A;" d="M521.766,338.291c0,0-40.923,3.888-51.229,5.262s-23.705,5.153-19.582,27.141
					c4.123,21.987,60.529,80.487,60.529,80.487l16.248-1.169c0,0-21.863-79.82-54.351-82.223c0,0,37.875,16.706,66.39,18.767
					c28.515,2.061,29.813-32.589,18.916-48.53L521.766,338.291"/>
				<path style="fill:#36302C;" d="M551.858,305.385c0.589,4.553,0.585,8.66-0.325,11.861
					c-3.995,14.049-15.667,23.384-54.509,21.639c0.151,0.379,0.348,0.791,0.616,1.232c0,0,20.408,2.561,34.967,0.71
					c13.039-1.658,21.521-10.343,23.328-20.292C554.8,315.769,553.389,310.606,551.858,305.385z"/>
				<path style="fill:#8790C8;" d="M535.574,257.936c0,0,20.763,42.414,15.959,59.309c-4.684,16.473-19.915,26.469-77.14,19.716
					l-1.277-9.033c0,0,47.481-9.286,58.578-9.665c0,0-6.547-24.165-10.601-36.563C517.471,270.624,527.235,254.787,535.574,257.936z
					"/>
				<g>
					<g>
						<g>
							<path style="fill:#494949;" d="M550.818,385.24c0.042,0.067-0.362,0.412-1.203,0.771c-0.838,0.357-2.098,0.7-3.641,0.92
								c-1.545,0.213-3.366,0.337-5.353,0.249c-1.012-0.047-1.999-0.189-3.034-0.293c-1.031-0.106-2.082-0.235-3.137-0.385
								c-8.469-1.082-17.256-3.201-19.16-3.698c-1.918-0.451-10.124-2.571-17.661-5.165c-3.772-1.282-7.396-2.611-10.052-3.68
								c-2.659-1.063-4.36-1.838-4.307-1.979c0.156-0.408,7.169,2.124,14.728,4.535c7.546,2.46,15.686,4.616,17.593,5.065
								c1.895,0.494,10.632,2.542,19.023,3.742c1.046,0.165,2.088,0.311,3.109,0.439c1.018,0.125,2.028,0.294,2.963,0.365
								c1.903,0.143,3.69,0.097,5.195-0.017c1.507-0.121,2.736-0.341,3.578-0.555C550.301,385.339,550.765,385.147,550.818,385.24z"
								/>
						</g>
					</g>
				</g>
				<g>
					<g>
						<g>
							<path style="fill:#494949;" d="M488.177,425.594c-0.274,0.231-4.384-4.362-8.642-9.336
								c-4.276-4.959-8.561-10.416-9.485-11.618c-0.93-1.195-4.935-6.343-8.3-11.481c-3.414-5.105-6.184-10.158-5.927-10.307
								c0.378-0.222,3.405,4.646,6.905,9.643c3.451,5.031,7.39,10.179,8.316,11.37c0.92,1.197,5.23,6.591,9.402,11.627
								C484.6,420.542,488.474,425.343,488.177,425.594z"/>
						</g>
					</g>
				</g>
				<g>
					<g>
						<g>
							<path style="fill:#494949;" d="M531.647,318.279c-0.353,0.111-2.04-4.96-3.569-10.407
								c-1.515-5.454-3.112-11.203-3.461-12.462c-0.184-0.626-0.672-2.282-1.3-4.414c-0.627-2.116-1.562-4.673-2.299-7.244
								c-0.753-2.561-1.182-5.175-1.119-7.127c0.052-1.955,0.463-3.176,0.593-3.145c0.229,0.043,0.089,1.275,0.224,3.128
								c0.125,1.856,0.636,4.314,1.434,6.806c0.78,2.493,1.738,5.055,2.381,7.211c0.65,2.138,1.114,3.809,1.296,4.437
								c0.375,1.255,1.988,7.023,3.398,12.495C530.63,313.03,532.007,318.166,531.647,318.279z"/>
						</g>
					</g>
				</g>
				<g>
					<g>
						<g>
							<path style="fill:#494949;" d="M537.211,320.815c-0.141,0.179-1.488-1.237-4.26-1.726c-1.362-0.271-3.018-0.312-4.806-0.182
								c-1.783,0.134-3.737,0.457-5.715,0.702c-7.909,1.065-16.239,2.453-18.057,2.777c-1.821,0.306-9.622,1.721-16.956,3.153
								c-7.337,1.415-14.225,2.747-14.291,2.438c-0.087-0.411,6.736-2.051,14.057-3.596c7.317-1.562,15.15-2.93,16.975-3.236
								c1.821-0.324,10.167-1.775,18.12-2.716c1.991-0.214,3.936-0.494,5.805-0.575c1.859-0.075,3.608,0.042,5.049,0.428
								c1.448,0.358,2.548,0.985,3.209,1.521C537.012,320.336,537.263,320.765,537.211,320.815z"/>
						</g>
					</g>
				</g>
				<polygon style="fill:#36302C;" points="511.986,451.145 513.385,453.601 496.913,460.758 496.913,463.904 531.523,462.423 
					528.932,452.614 526.136,450.127 				"/>
				<polygon style="fill:#36302C;" points="553.235,422.047 556.515,420.966 564.575,421.725 566.916,443.677 560.076,449.529 
					557.119,449.529 556.865,446.985 558.582,446.921 560.583,441.115 556.841,434.199 553.235,433.88 				"/>
				<path style="fill:#36302C;" d="M504.415,224.473c0,0,6.429,4.484,13.005,2.304c0,0,0.552-8.411-1.742-8.534
					C513.385,218.12,503.342,223.239,504.415,224.473z"/>
				<path style="fill:#36302C;" d="M505.671,225.219c0,0-0.629,1.972-1.609,2.156c0,0-0.311-3.85,0.804-3.499
					C505.982,224.227,505.671,225.219,505.671,225.219z"/>
				<path style="fill:#36302C;" d="M516.483,227.043c0,0-0.624,7.145,4.123,11.82l-1.607-9.021l-1.579-3.064
					C517.42,226.777,516.866,226.28,516.483,227.043z"/>
				<path style="fill:#E4B69E;" d="M516.42,225.045c0,0,1.608-1.385,2.84,0.065c1.016,1.196,0.176,4.222-3.349,3.984
					C515.911,229.094,515.134,227.13,516.42,225.045z"/>
				<path style="fill:#E4B69E;" d="M450.402,339.243l-3.324-4.534c-0.42-0.017-1.257,0.325-2.552,0.839
					c-1.299,0.503-4.449,2.595-5.581,3.626c-1.153,1.014-1.675,2.043-1.634,2.272c0.214,0.065,0.651,0.25,0.965,0.377
					c-0.083,0.292-0.202,0.706-0.285,1.015c-0.117,0.448-0.234,0.898-0.347,1.329c-0.011,0.06-0.098,0.342-0.112,0.528
					c-0.016,0.201,0.022,0.374,0.116,0.518c0.209,0.307,0.567,0.375,0.919,0.259c0.143-0.053,0.282-0.104,0.417-0.154
					c0.089-0.038,0.175-0.074,0.258-0.109c0.162-0.077,0.312-0.146,0.44-0.217c0.259-0.137,0.446-0.254,0.547-0.321
					c0.194-0.126,0.738-0.475,1.326-1.065c1.342,0.729,3.773,2.534,3.773,2.534c0.127,0.19,0.913-0.228,1.647-0.965
					c0.749-0.721,1.312-1.684,1.427-1.911c0.149-0.217,0.628-1.286,1.035-2.196c0.214-0.456,0.446-0.86,0.64-1.153
					C450.267,339.62,450.482,339.358,450.402,339.243z"/>
				<path style="fill:#8F7168;" d="M441.555,343.607c0,0,1.083-1.531,1.523-3.197c0,0,0.251,2.584-0.245,3.999L441.555,343.607z"/>
				<path style="fill:#E4B69E;" d="M473.431,330.172c-0.065-0.248-2.212,0.184-4.425,0.85c-0.276,0.08-0.552,0.166-0.825,0.258
					c-0.508,0.056-1.426,0.319-2.4,0.569c-1.394,0.378-2.887,0.711-3.237,0.78c-0.349,0.076-1.953,0.361-3.481,0.562
					c-1.526,0.215-2.98,0.361-2.976,0.673c0,0.013,0,0.687,1.065,1.118c0.708,0.287,1.471,0.508,1.651,0.547
					c0.154,0.036,0.789,0.187,1.475,0.232c-0.267,0.252-0.529,0.514-0.775,0.794c-0.855,0.932-1.522,1.982-1.892,2.814
					c-0.372,0.834-0.47,1.429-0.333,1.481c0.018,0.007,0.553-0.142,1.158-0.498c0.606-0.356,1.459-0.759,2.399-1.044
					c1.876-0.579,4.026-0.779,4.521-0.852c0.266-0.046,1.087-0.106,2.126-0.25l-0.093,0.172c-0.091,0.181-0.328,0.539-0.354,0.773
					c-0.042,0.248,0.013,0.483,0.181,0.673c0.17,0.175,0.357,0.26,0.601,0.253c0.254-0.038,0.494-0.074,0.716-0.107
					c0.171-0.035,0.255-0.07,0.368-0.1c0.208-0.056,0.355-0.126,0.439-0.153c0.167-0.057,0.627-0.242,1.174-0.573
					c0.546-0.331,1.159-0.835,1.641-1.424c0.34-0.406,0.601-0.851,0.783-1.261c0.06-0.041,0.131-0.081,0.186-0.122
					c0.668-0.492,1.121-0.969,1.024-1.077L473.431,330.172z"/>
				<g>
					<path style="fill:#FFFFFF;" d="M431.397,346.958c-1.542-0.001-3.131,0.525-4.18,1.655c-0.784,0.844-1.214,1.951-1.555,3.051
						c-0.396,1.276-0.695,2.652-0.328,3.936c0.366,1.285,1.601,2.409,2.923,2.22c1.251-0.179,2.094-1.383,3.263-1.863
						c0.616-0.253,1.295-0.294,1.955-0.386c1.626-0.227,3.288-0.845,4.306-2.134c1.018-1.289,1.147-3.357-0.045-4.486
						C436.095,347.398,432.645,346.911,431.397,346.958"/>
				</g>
			</g>
		</g>
		<g>
			<path style="fill:#D3C3AE;" d="M197.824,370.442c0,2.531-27.569,4.583-61.577,4.583s-61.577-2.052-61.577-4.583
				c0-2.531,27.569-4.583,61.577-4.583S197.824,367.911,197.824,370.442z"/>
			<ellipse style="fill:#D3C3AE;" cx="170.151" cy="373.15" rx="24.993" ry="4.583"/>
			<g>
				<path style="fill:#FFBE6A;" d="M89.739,208.293c0,0,19.858,53.987,21.084,56.758c-17.421,20.786-20.728,87.827-20.728,87.827
					l14.004,3.037l34.241-91.062L89.739,208.293z"/>
				<path style="fill:#7781B2;" d="M152.818,134.694c0,0-0.266,37.84,0.275,45.634c0.499,7.177,2.412,7.662,22.562,44.414
					l-5.392,4.541c0,0-29.373-23.677-32.495-43.137C134.646,166.686,146.03,137.016,152.818,134.694z"/>
				<path style="fill:#8790C8;" d="M93.255,177.932c3.387-11.63,26.964-54.532,26.964-54.532s3.136-6.935,9.516-4.339l17.966,7.311
					c0,0,4.851,1.974,5.113,9.025c0.258,6.966-11.52,56.679-13.002,60.322c-0.185,0.454-0.421,0.898-0.706,1.323l0,0
					c0,0-1.127,3.274-11.548,2.985c-8.657-0.24-26.692-6.97-34.143-15.854c-0.546-0.896-0.939-1.959-0.942-3.176
					c0-0.001,0-0.001,0-0.002l0,0C92.47,180.062,92.696,179.038,93.255,177.932z"/>
				<path style="fill:#E4B69E;" d="M145.261,125.38c0,0-0.11-10.006,1.063-16.695l-9.7-0.757c0,0-2.784,7.017-4.572,12.653
					C132.052,120.581,141.323,126.535,145.261,125.38z"/>
				
					<rect x="138.58" y="98.193" transform="matrix(-0.9224 -0.3862 0.3862 -0.9224 235.3757 255.723)" style="fill:#E4B69E;" width="9.587" height="12.054"/>
				<path style="fill:#E4B69E;" d="M150.109,100.544c0,0-0.118,9.193-2.753,13.019c-2.291,3.327-7.867-0.161-8.029-4.37
					C139.163,104.984,142.35,96.921,150.109,100.544z"/>
				<path style="fill:#8F7168;" d="M145.616,114.801c0,0-2.827,0.582-4.82-2.061c0,0,0.044,5.072,4.629,5.429L145.616,114.801z"/>
				<path style="fill:#E4B69E;" d="M146.844,126.025c0,0-0.52,7.092-6.972,7.315c-7.218,0.249-11.32-6.261-8.784-13.727
					L146.844,126.025z"/>
				<path style="fill:#36302C;" d="M151.127,101.756c0,0-0.052,1.471-1.201,1.962c0,0,0.089-1.447,0.129-1.805
					C150.096,101.554,151.127,101.756,151.127,101.756z"/>
				<path style="fill:#36302C;" d="M122.419,246.325l-3.444,1.814c0,0,8.427,16.169,8.872,16.763c0,0-9.263,20.095-5.671,42.934
					l16.163-42.983L122.419,246.325z"/>
				<path style="fill:#FFBE6A;" d="M132.809,200.046l-40.337-19.05c-5.185,7.149-6.297,18.982-2.734,27.296
					s42.364,55.033,41.658,57.804c-7.932,16.685-0.335,92.02-0.335,92.02l12.895-0.234l16.06-95.108
					C157.64,254.209,132.809,200.046,132.809,200.046z"/>
				<g>
					<g>
						<g>
							<path style="fill:#494949;" d="M124.749,256.232c-0.582,0.436-19.632-25.239-21.984-28.38
								c-0.588-0.785-2.143-2.864-4.146-5.542c-1.987-2.681-4.499-5.94-6.568-9.379c-2.096-3.418-3.598-7.088-4.132-9.949
								c-0.558-2.864-0.298-4.776-0.183-4.763c0.251-0.001,0.262,1.87,0.981,4.583c0.697,2.718,2.236,6.198,4.342,9.511
								c2.078,3.33,4.582,6.55,6.578,9.236c1.999,2.68,3.552,4.761,4.138,5.547C106.126,230.237,125.364,255.771,124.749,256.232z"
								/>
						</g>
					</g>
				</g>
				<path style="fill:#36302C;" d="M117.826,141.907c0,0-4.863,9.665-14.495,13.549l5.405-10.553
					C108.736,144.903,116.119,143.143,117.826,141.907z"/>
				<polygon style="fill:#36302C;" points="142.332,357.912 143.227,363.113 159.273,369.351 159.273,371.875 131.124,371.487 
					131.905,366.159 132.8,358.085 				"/>
				<polygon style="fill:#36302C;" points="102.471,355.561 102.776,360.904 114.856,367.866 117.751,368.683 117.751,371.207 
					115.44,371.649 96.534,369.517 90.086,367.891 91.595,359.305 92.472,353.393 				"/>
				<g>
					<g>
						<path style="fill:#868063;" d="M139.889,313.481c-0.627,0-1.209-0.4-1.412-1.028L74.743,115.346
							c-0.252-0.78,0.176-1.617,0.956-1.87c0.78-0.252,1.617,0.176,1.87,0.956l63.734,197.106c0.252,0.781-0.176,1.618-0.956,1.87
							C140.195,313.457,140.041,313.481,139.889,313.481z"/>
					</g>
					<g>
						<g>
							<path style="fill:#432918;" d="M176.918,303.229c-0.072,0.033-0.146,0.062-0.225,0.083L103.75,323.93
								c-0.789,0.223-1.609-0.236-1.832-1.025c-0.223-0.789,0.232-1.613,1.025-1.832l72.943-20.618
								c0.789-0.223,1.609,0.236,1.832,1.025C177.919,302.19,177.566,302.927,176.918,303.229z"/>
						</g>
						<path style="fill:#432918;" d="M101.917,322.905l5.126,11.008c0.144,0.308,0.608,0.187,0.582-0.152l-0.813-10.697
							L101.917,322.905z"/>
						<path style="fill:#432918;" d="M113.192,321.149l4.613,9.906c0.128,0.275,0.543,0.167,0.52-0.136l-0.827-10.876
							L113.192,321.149z"/>
						<path style="fill:#432918;" d="M125.714,317.529l4.613,9.906c0.128,0.275,0.543,0.167,0.52-0.136l-0.827-10.876
							L125.714,317.529z"/>
						<path style="fill:#432918;" d="M138.309,313.89l4.613,9.906c0.128,0.275,0.543,0.167,0.52-0.136l-0.827-10.876L138.309,313.89
							z"/>
						<path style="fill:#432918;" d="M150.556,310.56l4.613,9.906c0.128,0.275,0.543,0.167,0.52-0.136l-0.827-10.876L150.556,310.56
							z"/>
						<path style="fill:#432918;" d="M162.933,306.92l4.613,9.906c0.128,0.275,0.543,0.167,0.52-0.136l-0.827-10.876L162.933,306.92
							z"/>
						<path style="fill:#432918;" d="M177.785,302.05l1.021,11.702c0.028,0.323-0.413,0.444-0.554,0.151l-4.557-9.507
							c-0.064-0.134-0.017-0.295,0.109-0.374l3.536-2.194C177.525,301.713,177.766,301.833,177.785,302.05z"/>
					</g>
					<path style="fill:#432918;" d="M129.834,276.07c-2.036-0.998-2.794,1.01-2.794,1.01v0l11.437,35.372
						c0.203,0.628,0.786,1.028,1.412,1.028c0.151,0,0.305-0.024,0.457-0.072c0.78-0.252,1.208-1.089,0.956-1.87L129.834,276.07z"/>
				</g>
				<path style="fill:#8790C8;" d="M126.488,118.48c0,0-40.809,8.239-50.185,19.624c-9.141,11.1-7.835,36.099,25.139,67.643
					l5.177-5.052c0,0-16.511-40.557-21.548-48.402c0,0,19.869-6.623,29.383-8.913C123.969,141.089,132.644,122.736,126.488,118.48z"
					/>
				<g>
					<g>
						<g>
							<path style="fill:#494949;" d="M97.376,179.005c-0.346,0.125-1.737-3.291-3.308-6.872c-1.552-3.588-3.303-7.335-3.701-8.146
								c-0.389-0.816-2.11-4.296-3.824-7.528c-1.691-3.243-3.363-6.247-3.094-6.412c0.358-0.22,2.31,2.638,4.13,5.843
								c1.842,3.193,3.53,6.726,3.922,7.547c0.401,0.817,2.219,4.57,3.665,8.235C96.63,175.331,97.733,178.877,97.376,179.005z"/>
						</g>
					</g>
				</g>
				<path style="fill:#E4B69E;" d="M111.93,217.919c-0.163-0.819-0.364-1.922-0.53-3.072c-0.17-1.163-0.344-2.347-0.485-3.311
					c-0.155-0.971-0.303-1.719-0.363-1.987c-0.112-0.527-0.144-3.287-1.242-5.274c-0.536-0.991-1.226-1.861-1.832-2.402
					c-0.608-0.542-1.225-0.85-1.302-0.748l-3.516,3.429c-0.243-0.046-0.587,1.547-0.394,3.331c0.089,0.892,0.283,1.776,0.534,2.508
					c0.239,0.752,0.757,1.275,0.972,1.397c0.192,0.165,0.809,0.425,1.492,0.513c0.662,0.108,1.445,0.284,2.175,0.546
					c0.733,0.254,1.388,0.609,1.856,0.912c0.017,0.011,0.03,0.02,0.046,0.031c0.187,0.557,0.349,1.005,0.412,1.152
					c0.093,0.253,0.501,1.419,0.967,2.491c0.463,1.072,0.911,2.107,1.202,2.039C112.048,219.445,112.092,218.738,111.93,217.919z"/>
				<path style="fill:#DC4240;" d="M189.908,220.906c0,0-14.253,1.625-20.043,11.007c-5.79,9.383-6.236,13.688-15.441,32.099
					c-9.205,18.41,2.355,33.691,22.398,32.614c20.044-1.077,26.177-20.529,13.532-33.951c-7.374-7.827-18.921-23.322-12.579-29.552
					c6.343-6.23,12.876,1.285,17.923-1.211C200.746,229.418,195.995,220.015,189.908,220.906z"/>
				<path style="fill:#BC3737;" d="M191.318,222.44c0,0-1.559,0.223-0.965,2.004c0.594,1.782-0.148,3.149,0.965,4.989
					c1.114,1.84,4.009,1.273,4.825-0.151C196.96,227.859,194.362,222.143,191.318,222.44z"/>
				<path style="fill:#BC3737;" d="M189.561,225.275c0,0-5.691-2.128-11.63,2.92c0,0,5.147-2.445,8.215-1.767
					S190.105,225.869,189.561,225.275z"/>
				<path style="fill:#E4B69E;" d="M178.396,232.736c0-0.081-0.005-0.14-0.011-0.17c0,0-0.639-0.016-1.223-0.376
					c0.108-0.152-0.142-0.836-0.275-1.629c-0.16-0.829-0.298-1.747-0.344-1.961c-0.043-0.209-0.17-1.207-0.528-2.128
					c-0.183-0.457-0.434-0.879-0.681-1.145c-0.25-0.264-0.102-0.238-0.176-0.167l-4.124,3.473c0,0,0.394,1.142,0.253,1.313
					c0,0,1.19-1.355,1.942-1.991c0,0-0.069,0.097-0.077,0.315c-0.065,0.129,0.031,0.493,0.227,0.896
					c0.002,0.005,0.003,0.009,0.006,0.014c0.003,0.007,0.008,0.014,0.011,0.021c0.048,0.098,0.1,0.197,0.159,0.295
					c0.335,0.591,0.829,1.123,0.947,1.241c0.018,0.02,0.051,0.055,0.09,0.096c-0.235-0.035-0.464-0.056-0.672-0.058
					c-0.461-0.011-0.822,0.067-0.95,0.091c-0.247,0.045-1.341,0.321-2.104,1.076c-0.385,0.359-0.652,0.847-0.703,1.239
					c-0.024,0.174-0.012,0.313,0.017,0.419c0,0.001-0.002,0.008-0.002,0.008s0.019,0.411,0.327,0.995
					c0.007,0.013,0.01,0.024,0.017,0.038c0.005,0.009,0.012,0.018,0.017,0.027c0.011,0.02,0.019,0.038,0.031,0.058
					c0.011,0.019,0.031,0.042,0.046,0.062c0.26,0.421,0.686,0.895,1.241,1.238c0.61,0.398,1.344,0.626,1.956,0.685
					c0.614,0.07,1.091-0.032,1.259-0.056c0.161-0.039,0.599-0.11,1.127-0.338c0.524-0.224,1.145-0.6,1.592-1.139
					c0.465-0.522,0.704-1.188,0.748-1.673C178.574,233.076,178.495,232.801,178.396,232.736z"/>
				<path style="fill:#BC3737;" d="M175.654,261.487c-5.345,6.434,1.386,6.533,7.423,6.731c6.034,0.198,10.59,25.147-9.326,28.434
					c1.001,0.031,2.021,0.03,3.07-0.027c20.044-1.077,26.177-20.529,13.532-33.951c-4.385-4.655-10.246-12.021-12.943-18.539
					l-0.001,0C177.41,244.136,180.999,255.054,175.654,261.487z"/>
				<path style="fill:#BC3737;" d="M176.026,239.258c0,0-2.598,2.52-6.199,2.148c-3.6-0.371-1.188,3.786,2.116,2.153
					c3.303-1.633,4.196-3.57,4.196-3.57L176.026,239.258z"/>
				<path style="fill:#36302C;" d="M154.16,97.394c0.001,0,0.005-0.001,0.005-0.001c0.148-1.527-1.36-3.708-3.365-3.683
					c-2.006,0.025-3.259,1.003-4.763,1.554c-0.99,0.363-2.607,0.41-3.599,0.401c-0.4-0.02-0.702-0.029-0.865-0.025
					c-1.26,0.033-3.12,7.919-3.12,7.919c3.476-2.585,7.574-3.928,7.574-3.928c1.781,2.298,4.028,2.281,4.028,2.281
					C153.435,101.738,154.294,99.067,154.16,97.394z"/>
				<path style="fill:#E4B69E;" d="M140.502,99.731c0,0-1.133-1.271-2.266-0.248c-0.934,0.844-0.586,3.339,2.243,3.522
					C140.479,103.004,141.304,101.525,140.502,99.731z"/>
			</g>
		</g>
		<g>
			<path style="fill:#F8F8F8;" d="M665.228,445.534c0,0-2.661-2.02-3.355-3.824l-3.69,1.169l0.001,0.002l-3.607,1.404
				c0.592,1.841-0.214,5.083-0.214,5.083c-5.562,27.85,1.526,40.363,1.526,40.363l3.102,6.478l32.012-11.289l-1.647-6.991
				C689.356,477.928,687.028,463.737,665.228,445.534z"/>
			<path style="fill:#232C85;" d="M661.826,434.945c0,0-0.636-1.851-2.626-1.387c-1.444,0.337-2.955,0.83-3.678,1.076l0,0
				c0,0-0.023,0.008-0.056,0.02c-0.24,0.082-0.381,0.133-0.381,0.133l0.001,0.004c-0.717,0.262-2.204,0.826-3.54,1.469
				c-1.84,0.886-1.175,2.727-1.175,2.727s1.109,3.24,1.827,4.491c0.718,1.251,2.378,0.807,2.378,0.807l3.607-1.404l-0.001-0.002
				l3.69-1.169c0,0,1.572-0.695,1.346-2.12C662.994,438.164,661.826,434.945,661.826,434.945z"/>
		</g>
		<path style="fill:#F79F4F;" d="M607.272,500c0,0,80.728-21.496,142.728-23v23H607.272z"/>
		<g>
			<path style="fill:#F8F8F8;" d="M107.868,492.264l6.96-42.854c0.611-3.762-1.944-7.308-5.706-7.919l-44.985-7.306
				c-3.762-0.611-7.308,1.944-7.919,5.706l-6.179,38.048C64.56,481.572,90.63,488.012,107.868,492.264z"/>
			
				<ellipse transform="matrix(0.8113 -0.5846 0.5846 0.8113 -253.5701 135.384)" style="fill:#232C85;" cx="82.946" cy="460.513" rx="11.527" ry="11.527"/>
		</g>
		<path style="fill:#F79F4F;" d="M208.593,489.128c-58.406,4-114.593-6-154.178-16.096c-20.098-5.126-39.839-0.895-54.415,4.51V500
			h478.232C416.105,487.967,256.705,485.833,208.593,489.128z"/>
		<path style="fill:#FFFFFF;" d="M318.14,380.3c0,0,2.782-5.755,9.797-5.888c7.014-0.132,15.648-2.613,15.648-2.613
			s4.452,3.097,5.126,4.408c0.674,1.311,2.023,5.003-2.563,6.866c-4.586,1.863-10.348,2.133-12.054,7.934
			c0,0-1.301,4.047-5.753,3.912c-4.452-0.135-9.975-4.289-9.975-4.289S314.093,387.786,318.14,380.3z"/>
		<polygon style="fill:#868063;" points="721.594,333.873 721.594,419.296 739.594,425.509 739.594,333.106 		"/>
		<polygon style="fill:#868063;" points="739.594,333.106 750,333.106 750,425.562 739.594,425.509 		"/>
		<path style="fill:#6A6E62;" d="M721.594,419.296c0,0,12.594-7.613,18,6.212L721.594,419.296z"/>
		<polygon style="fill:#6A6E62;" points="721.594,333.873 739.594,336.667 750,336.667 750,333.106 739.594,333.106 		"/>
		<polygon style="fill:#6A6E62;" points="739.594,336.667 739.594,407.5 733.26,335.684 		"/>
		<path style="fill:#905A51;" d="M186.599,386.761l25.75,2c0,0,4.25,15.75,27,26.75c0,0-18,6.18-32.75,7.59
			C206.599,423.101,182.599,414.011,186.599,386.761z"/>
		<g>
			<path style="fill:#232C85;" d="M27.675,370.235c1.882,0.245,3.663,0.687,5.32,1.289c0.137-5.703-2.931-10.794-7.298-11.733
				c-4.746-1.021-9.218,3.246-9.988,9.53c-0.091,0.743-0.122,1.48-0.106,2.206C19.254,370.194,23.419,369.681,27.675,370.235z"/>
			<path style="fill:#F8F8F8;" d="M36.261,382.237c-4.333-5.48-3.27-10.71-3.27-10.71c-0.008-0.005-0.016-0.008-0.025-0.012
				c-1.649-0.597-3.42-1.036-5.291-1.28c-4.257-0.555-8.421-0.041-12.072,1.292c0,0,1.063,5.23-3.27,10.71
				c-2.971,3.758-6.75,11.201-5,21.485h16.961H24.3h16.961C43.011,393.438,39.232,385.995,36.261,382.237z"/>
		</g>
		<path style="fill:#F79F4F;" d="M0,399.48c0,0,32.021-0.798,53,8.236H0V399.48z"/>
		<path style="fill:#905A51;" d="M588.318,366.087l16.913,8.877c0,0,0.411,7.753-3.379,14.975
			c-3.791,7.222-11.327,15.258-12.897,22.676l-16.653-8.74c0,0,4.814-8.903,8.447-13.566
			C587.254,381.963,590.973,370.83,588.318,366.087z"/>
		<path style="fill:#905A51;" d="M191.588,354.764c0,0,14.412-9.917,26.912-1.591l-19.75,1.591H191.588z"/>
		<path style="fill:#905A51;" d="M581.481,334.01c0,0,1.852-8.818,9.852-6.081c8,2.738,13.667-2.125,18-0.527
			c4.333,1.598,7.667,3.682,7.667,7.307l-17.759,1.958L581.481,334.01z"/>
		<path style="fill:#905A51;" d="M516.003,488.5c0,0,0.208-5.167,7.436-4.5c7.228,0.667,23.361,4.5,23.361,4.5h-23.361H516.003z"/>
	</g>
</g>
</svg>
