<?xml version="1.0" encoding="utf-8"?>
<!-- Generator: Adobe Illustrator 27.5.0, SVG Export Plug-In . SVG Version: 6.00 Build 0)  -->
<svg version="1.1" xmlns="http://www.w3.org/2000/svg" xmlns:xlink="http://www.w3.org/1999/xlink" x="0px" y="0px"
	 viewBox="0 0 750 500" style="enable-background:new 0 0 750 500;" xml:space="preserve">
<g id="BACKGROUND">

</g>
<g id="OBJECTS">
	<g>
		<g>
			<path style="fill:#B2D9F2;" d="M129.665,173.44c0,0,10.371-14.642,36.605-14.642s1.22-24.403,9.761-46.976
				c8.541-22.573,83.581-45.756,134.217-32.334c50.636,13.422,71.379,36.605,60.398,62.838
				c-10.981,26.233,6.624,21.225,39.655,20.133c33.03-1.092,129.336-15.252,136.047,14.032c6.711,29.284-9.151,43.315,19.522,45.146
				c28.674,1.83,50.636,25.013,44.536,47.586c-6.101,22.573-12.812,42.095-79.92,48.196c-67.108,6.101-222.068-14.032-298.328-3.66
				s-172.652,8.541-178.753-29.284C47.305,246.649,49.135,192.352,129.665,173.44z"/>
			<path style="fill:#B2D9F2;" d="M394.439,100.23c0,0-39.655,4.271-42.705-17.692c-3.05-21.963,35.385-28.063,52.467-23.793
				C421.282,63.016,426.163,98.4,394.439,100.23z"/>
			<path style="fill:#B2D9F2;" d="M411.927,120.16c0,0-13.422-0.61-5.491-8.541s21.963-3.66,21.353,2.44
				C427.179,120.16,411.927,120.16,411.927,120.16z"/>
		</g>
		<g>
			<g>
				<g>
					<path style="fill:#7AB3ED;" d="M364.073,242.313c4.553-4.841,10.568-4.984,15.974-1.431c5.835,3.834,11.379,7.548,18.638,7.795
						c2.955,0.101,5.897-0.429,8.599-1.648c3.489-1.575,6.104-4.299,9.875-5.37c3.336-0.948,6.983-0.91,10.377-0.285
						c1.677,0.309,5.438,0.833,6.563,2.313c0.961,1.265,3.133,0.021,2.159-1.262c-2.361-3.108-8.318-3.725-11.859-3.939
						c-3.517-0.213-7.161,0.24-10.409,1.652c-4.896,2.128-8.111,5.767-13.831,6.035c-5.526,0.259-10.874-2.064-15.426-5.012
						c-3.445-2.23-6.307-5.001-10.567-5.422c-4.347-0.429-8.899,1.656-11.86,4.805C361.204,241.717,362.968,243.488,364.073,242.313
						L364.073,242.313z"/>
				</g>
			</g>
			<g>
				<g>
					<path style="fill:#7AB3ED;" d="M483.152,268.074c4.553-4.841,10.568-4.984,15.974-1.431c5.835,3.834,11.379,7.548,18.638,7.795
						c2.955,0.101,5.897-0.429,8.599-1.648c3.489-1.575,6.104-4.299,9.875-5.37c3.336-0.948,6.983-0.91,10.377-0.285
						c1.677,0.309,5.438,0.833,6.563,2.313c0.961,1.265,3.133,0.021,2.159-1.262c-2.361-3.108-8.318-3.724-11.859-3.939
						c-3.517-0.213-7.161,0.24-10.409,1.652c-4.896,2.128-8.111,5.767-13.831,6.035c-5.526,0.259-10.874-2.064-15.426-5.012
						c-3.445-2.23-6.307-5.001-10.567-5.422c-4.347-0.429-8.899,1.656-11.86,4.805C480.283,267.478,482.047,269.249,483.152,268.074
						L483.152,268.074z"/>
				</g>
			</g>
			<g>
				<g>
					<path style="fill:#7AB3ED;" d="M345.897,264.326c3.449-1.401,7.791-2.418,11.461-1.487c5.186,1.316,7.443,6.422,13.261,6.991
						c5.123,0.501,9.121-1.638,13.267-4.274c5.449-3.465,12.263-2.134,17.447,1.356c1.338,0.901,2.591-1.264,1.262-2.159
						c-3.785-2.548-8.784-4.136-13.36-3.787c-6.878,0.525-10.869,7.033-18.274,6.347c-6.064-0.561-8.741-6.623-14.963-7.183
						c-3.581-0.322-7.439,0.434-10.765,1.785C343.761,262.513,344.404,264.932,345.897,264.326L345.897,264.326z"/>
				</g>
			</g>
			<g>
				<g>
					<path style="fill:#7AB3ED;" d="M334.62,198.688c3.449-1.401,7.791-2.418,11.461-1.487c5.186,1.316,7.443,6.422,13.261,6.991
						c5.123,0.501,9.121-1.638,13.267-4.274c5.449-3.465,12.263-2.134,17.447,1.356c1.338,0.901,2.591-1.264,1.262-2.159
						c-3.785-2.548-8.784-4.136-13.36-3.787c-6.878,0.525-10.869,7.033-18.274,6.347c-6.064-0.561-8.741-6.623-14.963-7.183
						c-3.581-0.322-7.439,0.434-10.765,1.785C332.484,196.874,333.127,199.294,334.62,198.688L334.62,198.688z"/>
				</g>
			</g>
			<g>
				<g>
					<path style="fill:#7AB3ED;" d="M193.656,260.856c3.449-1.4,7.791-2.418,11.461-1.487c5.186,1.316,7.443,6.422,13.261,6.991
						c5.123,0.501,9.121-1.638,13.266-4.274c5.449-3.465,12.263-2.134,17.447,1.356c1.338,0.901,2.591-1.264,1.262-2.159
						c-3.785-2.548-8.784-4.136-13.361-3.787c-6.878,0.525-10.869,7.033-18.273,6.347c-6.064-0.561-8.741-6.623-14.963-7.183
						c-3.581-0.322-7.439,0.434-10.765,1.785C191.52,259.043,192.163,261.462,193.656,260.856L193.656,260.856z"/>
				</g>
			</g>
			<g>
				<g>
					<path style="fill:#7AB3ED;" d="M242.668,276.471c3.449-1.4,7.791-2.418,11.461-1.487c5.186,1.316,7.443,6.422,13.261,6.991
						c5.123,0.501,9.121-1.638,13.267-4.274c5.449-3.465,12.263-2.134,17.447,1.356c1.338,0.901,2.591-1.264,1.262-2.159
						c-3.785-2.548-8.784-4.136-13.361-3.787c-6.878,0.525-10.869,7.033-18.273,6.347c-6.065-0.561-8.741-6.623-14.963-7.183
						c-3.581-0.322-7.439,0.434-10.765,1.785C240.532,274.658,241.175,277.077,242.668,276.471L242.668,276.471z"/>
				</g>
			</g>
			<g>
				<g>
					<path style="fill:#7AB3ED;" d="M235.294,235.266c3.449-1.401,7.791-2.418,11.461-1.487c5.186,1.316,7.443,6.422,13.261,6.991
						c5.123,0.501,9.121-1.638,13.266-4.274c5.449-3.465,12.263-2.134,17.447,1.356c1.338,0.901,2.591-1.264,1.262-2.159
						c-3.785-2.548-8.784-4.136-13.361-3.787c-6.878,0.525-10.869,7.033-18.273,6.347c-6.064-0.561-8.741-6.623-14.963-7.183
						c-3.581-0.322-7.439,0.434-10.765,1.785C233.159,233.453,233.802,235.872,235.294,235.266L235.294,235.266z"/>
				</g>
			</g>
		</g>
		<path style="fill:#F7D144;" d="M64.997,298.505c0,0,36.605-21.963,106.153-21.963c69.549,0,103.713,18.912,151.299,16.472
			c47.586-2.44,145.808-18.912,171.432-14.642c25.623,4.271,90.291-4.881,112.864,8.541c22.573,13.422-7.321,31.114-23.793,39.655
			c-16.472,8.541-9.761,15.862,10.371,18.302c20.133,2.44,99.036-8.744,111.237,24.81c12.202,33.554-7.524,62.431-55.72,73.413
			c-48.196,10.981-269.044-17.692-312.97-6.711c-43.925,10.981-35.588,33.554-135.64,27.657
			c-128.747-7.589-35.791-52.67-65.685-59.381c-29.894-6.711-79.92-1.83-92.122-30.504
			C30.223,345.481,37.544,314.367,64.997,298.505z"/>
		<g>
			<g>
				<g>
					<path style="fill:#F75C5C;" d="M86.191,109.912c8.845,44.451,14.362,90.403,14.538,135.728
						c0.067,17.211-0.737,34.543-3.932,51.486c-0.142,0.753,0.335,1.626,1.205,1.582c5.79-0.288,11.579-0.576,17.369-0.864
						c0.671-0.033,1.256-0.546,1.25-1.25c-0.487-58.399-5.752-116.894-19.782-173.684c-1.358-5.496-2.65-11.148-4.663-16.456
						c-0.357-0.941-1.317-1.155-2.089-0.552c-1.191,0.931-2.383,1.862-3.575,2.793c-1.266,0.99,0.514,2.748,1.768,1.768
						c1.191-0.931,2.383-1.862,3.574-2.793c-0.696-0.184-1.393-0.368-2.089-0.552c1.532,4.04,2.576,8.307,3.658,12.48
						c3.863,14.896,6.863,30.022,9.652,45.15c6.46,35.05,9.075,70.631,10.393,106.212c0.316,8.539,0.582,17.086,0.653,25.632
						c0.417-0.417,0.833-0.833,1.25-1.25c-5.789,0.288-11.579,0.576-17.369,0.864c0.402,0.527,0.804,1.055,1.205,1.582
						c5.756-30.53,4.621-62.305,2.241-93.127c-2.053-26.584-5.496-53.077-9.949-79.362c-0.908-5.36-1.838-10.721-2.899-16.053
						C88.288,107.671,85.878,108.338,86.191,109.912z"/>
				</g>
			</g>
			<path style="fill:#169E92;" d="M86.272,104.607c0,0-4.692-23.435,5.952-45.513c10.644-22.079,14.58-15.185,11.636-5.535
				c-2.944,9.649-11.398,26.085-13.549,48.969c0,0,16.089-23.197,33.633-29.137c17.545-5.94,8.93,3.881,2.503,8.295
				c-6.427,4.414-24.973,15.302-31.926,24.433c0,0,22.78-9.423,44.652-1.379c21.872,8.044,4.137,9.967,0.128,9.448
				c-4.009-0.518-30.392-6.488-44.11-4.755c0,0,21.081,9.985,30.431,26.356c8.451,14.798,0.344,14.449-2.515,10.865
				c-19.035-23.864-33.057-36.778-33.175-34.211c0,0-5.369,7.378-11.122,25.143c-5.437,16.789-8.374,30.134-13.322,29.133
				c-4.948-1.001,0.343-29.99,18.318-52.929c0,0-22.668,20.288-30.636,35.548c-7.968,15.26-11.391,4.829-5.128-5.963
				c6.264-10.792,21.284-23.138,33.427-31.738c0,0-16.367,6.19-24.485,13.891c-8.118,7.701-14.32,13.062-14.95,6.206
				c-0.63-6.856,19.859-22.446,38.283-22.707c0,0-16.24-4.909-29.493-2.463c-13.254,2.446-18.169-1.389-6.773-6.69
				c11.397-5.302,30.943-0.355,39.827,7.54c0,0-12.281-20.687-24.634-34.999c-12.354-14.312-3.141-14.443,3.162-7.994
				S82.385,93.463,86.272,104.607z"/>
		</g>
		<g>
			<path style="opacity:0.8;fill:#D1DCF2;" d="M520.125,358.409c-14.049-3.598-39.783-0.723-50.299,1.119
				c-10.516,1.842-22.071-1.051-21.403,4.839c0.667,5.89,20.216,6.821,20.216,6.821s3.496-0.419,3.728,1.349
				c0.232,1.768,1.126,16.164,1.246,20.27c0.12,4.107-1.651,8.123-5.462,8.527c-3.811,0.404-19.947,0.807-19.539,5.513
				s13.678,4.752,19.108,3.546c5.429-1.206,37.442-3.196,43.159-3.802c5.717-0.606,19.813-4.621,21.71-11.268
				c1.897-6.647,5.574-10.865,6.019-20.217C539.052,365.755,534.174,362.007,520.125,358.409z M470.252,367.164
				c-0.686,1.139-11.995-0.279-14.346-0.683c-2.351-0.405-1.773-2.574-1.773-2.574c1.078-2.731,15.211-0.886,16.143-0.549
				C471.207,363.694,470.938,366.025,470.252,367.164z M468.475,407.793c-2.736,1.041-11.119,1.228-13.004,0.991
				c-1.885-0.236-0.835-2.383-0.835-2.383c3.156-3.218,17.509-2.681,18.063-1.043C473.253,406.996,471.21,406.752,468.475,407.793z"
				/>
			<g>
				<g>
					<g>
						<path style="fill:#6F6872;" d="M630.409,395.068c1.421,0.305,2.334,1.717,2.029,3.138l-0.906,4.219
							c-0.305,1.421-1.717,2.334-3.138,2.029l-0.045-0.01c-1.421-0.305-2.334-1.717-2.029-3.138l0.906-4.218
							c0.305-1.421,1.717-2.334,3.138-2.029L630.409,395.068z"/>
					</g>
					<path style="fill:#6F6872;" d="M629.976,402.762c8.418,1.807,13.801,4.774,15.013,6.921c1.211,2.147,3.727,2.687,3.727,2.687
						s15.702,2.936,20.958,3.512c-0.131-0.46-0.53-1.004-1.423-1.625c-2.957-2.058-1.105-3.243,0.913-3.334
						c2.018-0.091,2.389-3.374-0.588-4.433c-2.977-1.059,0.135-2.184,1.616-2.691c1.481-0.507,0.221-1.436-1.06-2.234
						c-0.965-0.602,2.25-0.258,3.221-0.899c-5.52-1.711-20.002-5.225-20.002-5.225s-2.515-0.54-4.501,0.921
						c-1.986,1.461-8.52,2.398-16.938,0.591"/>
				</g>
			</g>
			<g>
				<path style="fill:#FFFFFF;" d="M71.22,284.102c-3.011,2.905-6.023,5.809-9.034,8.714c-0.515,0.497-0.603,1.067-0.24,1.692
					c2.936,5.045,5.872,10.09,8.808,15.135c0.782,1.344,2.705-0.124,1.932-1.453c-2.754-4.733-5.509-9.466-8.263-14.199
					c2.75-2.652,5.5-5.305,8.25-7.958C73.78,284.965,72.337,283.024,71.22,284.102z"/>
				<polygon style="fill:#137A6B;" points="103.287,311.18 78.632,298.214 70.053,318.674 96.497,327.373 				"/>
				
					<rect x="60.154" y="304.986" transform="matrix(0.3867 -0.9222 0.9222 0.3867 -238.9413 256.7545)" style="fill:#D1DCF2;" width="26.833" height="6.079"/>
			</g>
			<g>
				<path style="fill:#FFFFFF;" d="M449.269,431.256c-1.033-4.224-2.065-8.448-3.098-12.672c-0.177-0.722-0.643-1.1-1.394-1.1
					c-6.066-0.003-12.133-0.007-18.199-0.01c-1.617-0.001-1.304,2.494,0.294,2.495c5.691,0.003,11.383,0.006,17.074,0.009
					c0.943,3.857,1.886,7.715,2.829,11.572C447.154,433.103,449.652,432.823,449.269,431.256z"/>
				<polygon style="fill:#FC615F;" points="408.174,445.883 432.717,430.528 418.834,412.118 397.186,431.313 				"/>
				
					<rect x="412.611" y="417.69" transform="matrix(0.6021 0.7984 -0.7984 0.6021 505.7354 -173.1153)" style="fill:#EEEEEE;" width="27.887" height="6.318"/>
			</g>
			<g>
				<g style="opacity:0.8;">
					<path style="fill:#D1DCF2;" d="M149.361,441.181c-5.362,1.73-11.643-2.861-14.027-10.253
						c-2.385-7.393,0.029-14.788,5.391-16.518c5.362-1.73,11.642,2.86,14.027,10.253
						C157.137,432.056,154.724,439.451,149.361,441.181z"/>
					<path style="fill:#D1DCF2;" d="M162.81,436.843c-5.362,1.73-11.642-2.861-14.027-10.253s0.029-14.788,5.391-16.518
						c5.362-1.73,11.642,2.861,14.027,10.253C170.585,427.718,168.172,435.113,162.81,436.843z"/>
					<path style="fill:#D1DCF2;" d="M127.995,448.074c-5.362,1.73-11.643-2.86-14.027-10.253
						c-2.385-7.393,0.029-14.788,5.391-16.518c5.362-1.73,11.643,2.861,14.027,10.253
						C135.771,438.949,133.357,446.344,127.995,448.074z"/>
					<path style="fill:#D1DCF2;" d="M138.301,444.749c-5.362,1.73-11.642-2.861-14.027-10.253
						c-2.385-7.393,0.029-14.788,5.391-16.518c5.362-1.73,11.642,2.861,14.027,10.253
						C146.077,435.624,143.663,443.02,138.301,444.749z"/>
				</g>
				<path style="fill:#025785;" d="M166.478,423.106l-1.3-4.03c-0.363-1.126,0.255-2.333,1.381-2.696l2.899-0.935
					c1.126-0.363,2.333,0.255,2.696,1.381l1.3,4.03c0.363,1.126-0.255,2.333-1.381,2.696l-2.899,0.935
					C168.048,424.849,166.841,424.231,166.478,423.106z"/>
			</g>
			<g>
				<path style="fill:#DBDCE1;" d="M181.99,451.647c0.236-0.816,0.16-1.712-0.327-2.655c-0.016-0.036-0.023-0.07-0.04-0.106
					c-0.232-0.504-0.551-0.955-0.921-1.36c-0.849-1.67-2.786-2.655-4.658-2.374c-0.315,0.047-0.621,0.135-0.921,0.242
					c-1.699-0.073-3.318,0.394-4.322,1.635c0,0-0.001,0.001-0.001,0.002c-0.346,0.278-0.67,0.594-0.961,0.96
					c-3.023,3.808,0.82,8.008,4.917,8.08c1.819,0.032,4.263-0.859,5.83-2.304C181.278,453.208,181.788,452.495,181.99,451.647z"/>
				<path style="fill:#DBDCE1;" d="M187.448,458.365c-0.032-0.022-0.056-0.05-0.089-0.071c-0.546-0.348-1.202-0.567-1.889-0.675
					c-0.529-0.115-1.074-0.174-1.633-0.155c-2.066,0.072-4.21,1.069-4.335,3.393c-0.234,4.339,6.641,6.207,8.862,2.625
					c0.083-0.134,0.143-0.278,0.209-0.419c0.141-0.089,0.276-0.193,0.402-0.319c0.849-0.849,0.959-2.481,0-3.315
					C188.504,459.017,187.99,458.662,187.448,458.365z"/>
				<path style="fill:#DBDCE1;" d="M198.341,448.896c-0.833-0.175-1.648-0.165-2.447-0.039c-1.566-0.056-3.129,0.324-4.538,1.093
					c-1.338,0.73-1.509,2.635-0.474,3.682c2.366,2.393,6.747,2.7,9.148,0.133C201.771,451.904,200.706,449.392,198.341,448.896z"/>
				<path style="fill:#DBDCE1;" d="M188.843,448.285c3.017,0,3.022-4.689,0-4.689C185.826,443.596,185.821,448.285,188.843,448.285z
					"/>
				<path style="fill:#DBDCE1;" d="M277.262,419.764c-0.072-0.001-0.152,0.005-0.227,0.006c-0.073-0.021-0.146-0.041-0.219-0.061
					c0.081-0.013,0.163-0.019,0.243-0.034c0.9-0.171,1.566-1.103,1.679-1.949c0.012-0.09,0.016-0.185,0.016-0.281
					c0.052-0.192,0.087-0.386,0.078-0.572c-0.027-0.606-0.226-1.235-0.687-1.658c-0.49-0.449-1.004-0.604-1.658-0.687
					c-1.099-0.139-2.19,0.17-3.163,0.664c-0.829,0.421-1.236,1.465-1.119,2.336c0.117,0.872,0.644,1.416,1.367,1.788
					c-3.062,0.073-6.014,1.435-6.788,4.649c-0.964,4.003,3.54,6.761,6.895,7.279c3.563,0.551,8.073-0.945,9.148-4.771
					C283.892,422.692,280.906,419.789,277.262,419.764z"/>
				<path style="fill:#DBDCE1;" d="M262.166,423.631c1.092,0.843,2.625,0.707,3.606-0.25c0.26-0.254,0.462-0.565,0.611-0.9
					c0.358-0.305,0.646-0.791,0.754-1.184c0.154-0.561,0.085-1.308-0.236-1.806c-0.747-1.158-1.995-1.374-3.193-0.846
					c-0.883,0.089-1.735,0.649-2.176,1.392C260.822,421.229,261.058,422.775,262.166,423.631z"/>
				<path style="fill:#DBDCE1;" d="M293.115,429.467c-2.931-0.833-6.501-0.236-8.987,1.515c-1.09,0.768-1.868,1.858-1.857,3.17
					c-0.016,0.25-0.005,0.51,0.073,0.794c0.025,0.091,0.068,0.17,0.102,0.255c0.008,0.023,0.019,0.045,0.027,0.068
					c0.039,0.092,0.076,0.186,0.124,0.272c0.501,1.018,1.509,1.61,2.609,2.077c2.826,1.2,6.678,1.36,9.329-0.409
					c1.69-1.128,2.065-2.883,1.475-4.367C295.993,431.371,295.005,430.004,293.115,429.467z"/>
				<path style="fill:#DBDCE1;" d="M288.787,428.161c0.313,0.124,0.651,0.192,0.925,0.192c0.575,0,1.262-0.255,1.658-0.687
					c0.41-0.447,0.715-1.033,0.687-1.658c-0.03-0.661-0.28-1.142-0.687-1.658c-0.639-0.809-1.937-1.095-2.886-0.786
					c-1.164,0.379-2.04,1.64-1.637,2.884C287.127,427.315,287.897,428.023,288.787,428.161z"/>
				<path style="fill:#DBDCE1;" d="M271.092,432.026c-3.15-0.999-7.247-0.008-9.294,2.726c-2.173,2.902-0.285,5.373,2.627,6.595
					c2.781,1.167,5.999,1.128,8.752-0.103c2.417-1.08,5.064-3.592,3.629-6.458C275.865,432.906,273.317,432.184,271.092,432.026z"/>
				<path style="fill:#DBDCE1;" d="M194.735,397.475c0.78-1.015,0.272-2.175-0.548-2.899c-0.248-1.835-1.439-3.504-3.766-4.072
					c-2.645-0.646-5.594,0.329-7.664,1.987c-2.016,1.614-4.012,4.575-1.857,6.915C184.74,403.577,191.773,401.331,194.735,397.475z"
					/>
				<path style="fill:#DBDCE1;" d="M171.066,400.567c0.092-0.068,0.184-0.136,0.253-0.205c0.407-0.407,0.713-1.074,0.687-1.658
					c-0.027-0.606-0.226-1.235-0.687-1.658c-0.491-0.45-1.004-0.6-1.658-0.687c-1.134-0.15-2.276,0.406-2.862,1.385
					c-0.732,1.223-0.303,2.941,0.948,3.64C168.923,402.04,170.353,401.612,171.066,400.567z"/>
				<path style="fill:#DBDCE1;" d="M62.876,349.708c-2.54-5.054-11.802-4.106-15.734-1.558c-3.105,2.012-3.794,4.834-2.737,7.255
					c0.086,0.258,0.214,0.504,0.383,0.736c0.762,1.253,2.006,2.356,3.649,3.111c4.617,2.123,12.752,3.392,15.988-1.702
					C66.688,353.989,65.522,351.354,62.876,349.708z"/>
				<path style="fill:#DBDCE1;" d="M73.768,341.933c-1.511-0.315-3.052,0.363-3.958,1.508c-0.162,0.098-0.318,0.213-0.457,0.365
					c-0.791,0.862-1.004,2.467-0.009,3.306c0.452,0.998,1.309,1.761,2.37,2.074c0.61,0.18,1.209,0.186,1.776,0.058
					c0.932,0.096,1.848-0.151,2.636-0.996C78.092,346.14,76.374,342.476,73.768,341.933z"/>
				<path style="fill:#DBDCE1;" d="M73.96,359.287c-0.726-0.165-1.381-0.02-1.904,0.34c-0.833,0.198-1.594,0.859-1.779,1.671
					c-0.3,1.317,0.4,2.44,1.637,2.884c0.735,0.263,1.62,0.129,2.289-0.246c0.722-0.404,1.116-1.008,1.394-1.765
					C76.022,361.017,75.124,359.552,73.96,359.287z M71.54,360.097c-0.001,0.001-0.002,0.002-0.003,0.003
					C71.538,360.099,71.539,360.098,71.54,360.097z M71.526,360.114c-0.185,0.233-0.337,0.505-0.45,0.81
					C71.175,360.578,71.326,360.31,71.526,360.114z"/>
				<path style="fill:#DBDCE1;" d="M502.791,336.982c-4.212-1.298-10.157-1.41-13.973,1.073c-3.435,2.236-2.883,6.094,0.498,7.961
					c3.635,2.007,8.623,1.364,12.412,0.09c0.283-0.095,0.545-0.216,0.796-0.348c1.226-0.309,2.354-0.855,3.249-1.675
					C509,341.124,505.93,337.949,502.791,336.982z"/>
				<path style="fill:#DBDCE1;" d="M516.779,344.135c-0.475-0.17-1.016-0.196-1.595-0.009c-0.609,0.197-1.133,0.64-1.442,1.192
					c-0.139,0.056-0.277,0.113-0.416,0.169c-1.132,0.46-2.059,1.581-1.637,2.884c0.377,1.164,1.635,2.043,2.884,1.637
					c0.026-0.008,0.036-0.013,0.055-0.021c0.148,0.022,0.317,0.012,0.467,0.013c0.454,0.006,0.951-0.027,1.387-0.165
					c0.727-0.231,1.322-0.718,1.7-1.355c0.882-0.552,1.494-1.519,1.137-2.621C518.998,344.87,517.889,343.936,516.779,344.135z"/>
				<path style="fill:#DBDCE1;" d="M389.261,413.191c-2.215-0.929-4.797-0.984-7.062-0.178c-1.961,0.698-4.637,2.32-3.94,4.818
					c0.519,1.861,2.669,2.648,4.469,2.645c0.819,0.647,2.01,0.895,3.118,0.521c2.041-0.689,3.715-2.594,4.817-4.363
					C391.548,415.212,390.593,413.75,389.261,413.191z"/>
				<path style="fill:#DBDCE1;" d="M367.038,406.389c-1.081,0.791-1.808,2.009-2.07,3.322c-0.12,0.601-0.033,1.25,0.246,1.785
					c0.057,0.237,0.133,0.474,0.24,0.708c0.437,0.958,1.709,1.296,2.647,1.077c1.35-0.315,2.689-0.886,3.456-2.109
					c0.84-1.34,0.761-3.231-0.362-4.391C370.123,405.675,368.291,405.473,367.038,406.389z"/>
				<path style="fill:#DBDCE1;" d="M563.5,429.15c-1.952,2.681,0.882,4.971,3.399,6.214c1.898,1.663,4.892,1.98,7.723,1.303
					c1.869-0.223,3.686-0.819,5.226-1.832c1.788-1.175,2.357-2.721,2.005-4.128C583.637,423.69,566.364,425.216,563.5,429.15z
					 M571.674,432.003c0.01-0.043,0.024-0.085,0.032-0.128c0.799-0.284,1.641-0.444,2.552-0.446c0.222,0,0.438,0.021,0.652,0.052
					c-0.217,0.128-0.442,0.247-0.688,0.345c-0.045,0.018-0.105,0.039-0.175,0.063C573.284,432.023,572.524,432.113,571.674,432.003z
					"/>
				<path style="fill:#DBDCE1;" d="M571.97,421.623c0.069-0.001,0.164,0.008,0.257,0.014c0.332,0.133,0.665,0.266,0.997,0.399
					c0.507,0.203,1.36,0.051,1.806-0.236c0.435-0.281,0.757-0.642,0.959-1.121c0.451-1.069,0.052-2.326-0.959-2.927
					c-0.491-0.292-1.023-0.504-1.574-0.642c-0.022-0.009-0.045-0.018-0.067-0.027c-0.153-0.061-0.331-0.083-0.515-0.087
					c-0.299-0.042-0.6-0.067-0.904-0.061c-1.225,0.024-2.402,1.061-2.344,2.344C569.682,420.529,570.656,421.649,571.97,421.623z
					 M572.155,421.609c0.017,0.007,0.034,0.014,0.051,0.021C572.145,421.617,572.114,421.603,572.155,421.609z M572.282,421.637
					c0.005,0.001,0.009,0.002,0.015,0.004c-0.013-0.001-0.025-0.002-0.038-0.003C572.268,421.638,572.274,421.637,572.282,421.637z"
					/>
				<path style="fill:#DBDCE1;" d="M608.167,422.385c-4.47-0.392-8.66,1.201-12.048,4.053c-1.191,1.003-0.719,2.951,0.474,3.682
					c0.278,0.17,0.56,0.329,0.844,0.48c1.2,2.013,4.382,3.058,6.636,3.076c3.502,0.028,8.226-1.748,9.863-5.094
					C615.863,424.643,611.296,422.66,608.167,422.385z"/>
				<path style="fill:#DBDCE1;" d="M605.993,440.702c-2.752-0.628-6.908,0.214-9.317,1.6c-2.475,1.423-2.846,4.61-0.983,6.718
					c1.332,1.507,3.577,2.083,5.683,1.971c1.086,0.284,2.223,0.384,3.38,0.254c2.547-0.286,5.162-1.915,5.694-4.571
					C611.035,443.75,608.689,441.318,605.993,440.702z"/>
				<path style="fill:#DBDCE1;" d="M655.354,376.145c-0.371-0.369-0.852-0.629-1.366-0.699c-0.095-0.027-0.188-0.066-0.284-0.085
					c-0.444-0.088-0.902-0.128-1.353-0.177c0.549,0.06,0.098-0.008-0.062-0.032c-0.929-0.662-2.221-0.657-3.067,0.189
					c-0.336,0.336-0.549,0.782-0.633,1.251c-0.375,0.403-0.662,0.883-0.792,1.419c-0.684,2.807,2.692,4.44,5.032,4.332
					c2.618-0.121,4.656-2.862,3.301-5.319C655.939,376.678,655.662,376.394,655.354,376.145z"/>
				<path style="fill:#DBDCE1;" d="M698.313,380.034c-0.295-1.293-1.288-2.413-3.312-3.099c-3.063-1.038-6.566-0.41-9.554,0.566
					c-2.22,0.725-6.021,1.693-7.212,4.033c-1.066,2.094-0.095,3.87,1.609,5.238c0.291,0.644,0.724,1.281,1.366,1.891
					c3.266,3.104,8.312,2.565,12.171,0.616c2.077-0.577,3.987-1.582,4.913-3.161c0.703-0.581,1.078-1.659,0.942-2.583
					c0.113-0.378,0.191-0.762,0.178-1.159C699.38,381.389,698.947,380.615,698.313,380.034z"/>
				<path style="fill:#DBDCE1;" d="M674.167,370.19c-1.167-0.101-2.3,0.12-3.371,0.695c-1.249,0.67-1.616,2.722-0.474,3.682
					c0.181,0.152,0.367,0.284,0.557,0.406c0.032,1.01,0.644,2.004,1.689,2.242c1.197,0.272,2.587-0.36,2.884-1.637
					c0.024-0.105,0.182-0.492,0.165-0.498c0.009-0.015,0.018-0.03,0.026-0.045c0.611-0.38,1.14-0.892,1.489-1.519
					C678.208,371.576,676.153,369.284,674.167,370.19z"/>
				<path style="fill:#DBDCE1;" d="M692.511,398.835c-0.549-0.118-1.155-0.11-1.721,0.034c-0.086-0.033-0.17-0.073-0.262-0.094
					c-1.532-0.352-2.771,0.024-3.98,0.991c-0.732,0.585-0.93,2.08-0.367,2.841c1.955,2.642,5.783,3.233,8.216,0.822
					c0.548-0.543,0.895-1.525,0.603-2.281C694.553,399.994,693.765,399.105,692.511,398.835z"/>
				<path style="fill:#DBDCE1;" d="M699.206,364.955c0.058-0.027,0.112-0.063,0.17-0.091c3.019-0.763,5.845-2.755,6.577-5.396
					c1.26-4.543-3.158-7.046-7.096-7.43c-0.308-0.039-0.612-0.057-0.91-0.051c-0.417-0.005-0.827,0.006-1.213,0.051
					c-4.412,0.519-10.925,3.308-9.949,8.822C687.731,366.2,695.208,366.797,699.206,364.955z"/>
				<path style="fill:#DBDCE1;" d="M665.46,391.259c-0.619,0.643-0.905,1.568-0.673,2.445c0.242,0.916,0.897,1.433,1.749,1.745
					c0.878,0.321,1.933-0.122,2.505-0.865c0.312-0.29,0.562-0.649,0.658-1.069c0.149-0.655,0.028-1.195-0.236-1.806
					C668.775,390.12,666.525,390.152,665.46,391.259z M668.698,391.476c0.011,0.006,0.022,0.013,0.033,0.019
					c0.005,0.009,0.011,0.019,0.016,0.028C668.731,391.507,668.715,391.491,668.698,391.476z"/>
				<path style="fill:#DBDCE1;" d="M702.439,390.851c-1.064,1.116-1.498,2.797-1.004,4.269c0.607,1.811,2.557,2.848,4.407,2.377
					c0.068-0.017,0.131-0.047,0.198-0.068c0.544,0.115,1.108,0.14,1.686,0.015c1.721-0.37,3.218-1.921,3.167-3.754
					C710.781,389.795,704.935,388.234,702.439,390.851z"/>
				<path style="fill:#DBDCE1;" d="M249.405,336.478c-0.393-0.026-0.786-0.052-1.179-0.078c-0.402-0.027-0.793,0.096-1.141,0.302
					c-0.246,0.087-0.492,0.19-0.738,0.327c-1.108,0.614-1.468,2.131-0.841,3.207c1.457,2.501,5.365,1.948,6.161-0.791
					C252.114,337.901,250.888,336.576,249.405,336.478z"/>
				<path style="fill:#DBDCE1;" d="M238.078,314.341c-0.152-0.021-0.31-0.044-0.472-0.067c-1.694-0.606-3.513-0.969-5.145-0.576
					c-0.723,0.174-1.309,0.518-1.757,0.966c-0.27,0.164-0.521,0.357-0.746,0.591c-1.924,2.004-0.573,4.871,1.457,6.152
					c0.982,0.619,2.217,0.938,3.437,0.929c3.634,1.072,8.002,0.572,8.368-3.228C243.517,316.042,240.629,314.692,238.078,314.341z"
					/>
				<path style="fill:#DBDCE1;" d="M248.093,305.768c-1.5-0.007-3.081,0.253-4.184,1.362c-0.605,0.609-0.986,1.412-1.098,2.245
					c-0.118,0.278-0.184,0.577-0.184,0.881c0,0.809,0.411,1.492,1.023,1.909c1.686,1.912,5.117,1.691,7.049,0.29
					c0.441-0.32,0.74-0.732,0.911-1.175c0.705-1.076,0.9-2.521,0.244-3.674C251.068,306.226,249.596,305.775,248.093,305.768z"/>
			</g>
		</g>
		<g>
			<g>
				<g>
					<g>
						<g>
							<path style="fill:#918CFF;" d="M276.08,146.79c-0.981-0.412-2.617,3.14-3.325,4.973c0.31-1.827,1.006-5.571-0.057-6.001
								c-1.205-0.488-2.694,2.78-3.721,5.563c0.835-2.831,1.185-6.271-0.101-6.349c-1.474-0.089-2.564,2.61-3.549,4.92
								c0.794-2.714,1.496-5.937,0.371-5.632c-2.236,0.606-4.493,10.74-5.906,14.354c-3.947,10.089-13.049,24.768-28.281,32.831
								c-5.407,2.862-11.642,3.596-17.44,3.359l1.435,22.208c7.452-0.656,15.133-2.745,22.658-6.982
								C274.537,189.552,278.316,147.73,276.08,146.79z"/>
							<path style="fill:#918CFF;" d="M258.787,162.447c0,0-1.085-10.981-0.407-12.066c0.678-1.085,1.763,3.525,2.44,5.423
								C261.498,157.702,258.787,162.447,258.787,162.447z"/>
						</g>
						<g>
							<path style="fill:#FA9E9D;" d="M214.436,217.103l-0.428-22.297c-10.507-0.443-30.464-7.549-30.464-7.549l-19.55,5.753
								l-2.24,7.905C161.754,200.914,186.313,219.069,214.436,217.103z"/>
						</g>
						<polygon style="fill:#FE7B7A;" points="218.705,220.562 216.402,192.263 210.667,191.824 212.618,220.961 						"/>
						<path style="fill:none;stroke:#302430;stroke-miterlimit:10;" d="M200.287,216.54c0,0,3.66,0.61,7.253,0.678"/>
					</g>
					<g>
						<g style="opacity:0.8;">
							<path style="fill:#F3F8FF;" d="M272.674,152.892c3.434,4.467,1.225,11.926-4.933,16.66
								c-6.158,4.734-13.934,4.951-17.368,0.484c-3.434-4.467-1.226-11.926,4.933-16.66
								C261.464,148.642,269.24,148.425,272.674,152.892z"/>
							<path style="fill:#F3F8FF;" d="M264.062,141.689c3.434,4.467,1.226,11.926-4.933,16.66
								c-6.158,4.734-13.934,4.951-17.368,0.484c-3.434-4.467-1.226-11.926,4.933-16.66
								C252.852,137.439,260.628,137.222,264.062,141.689z"/>
							<path style="fill:#F3F8FF;" d="M286.358,170.691c3.434,4.467,1.226,11.926-4.933,16.66
								c-6.158,4.734-13.934,4.951-17.368,0.484c-3.434-4.467-1.226-11.926,4.933-16.66
								C275.148,166.441,282.924,166.224,286.358,170.691z"/>
							
								<ellipse transform="matrix(0.7928 -0.6095 0.6095 0.7928 -48.3693 199.0773)" style="fill:#F3F8FF;" cx="268.607" cy="170.678" rx="14.065" ry="10.202"/>
						</g>
						<path style="fill:#025785;" d="M249.892,142.859l-3.357,2.581c-0.938,0.721-2.282,0.545-3.003-0.393l-1.857-2.415
							c-0.721-0.938-0.545-2.282,0.393-3.003l3.357-2.581c0.938-0.721,2.282-0.545,3.003,0.393l1.857,2.415
							C251.005,140.794,250.829,142.138,249.892,142.859z"/>
					</g>
				</g>
				<g>
					<g>
						<polygon style="fill:#918CFF;" points="105.793,379.838 124.163,369.195 130.535,380.583 112.572,392.039 						"/>
						<g>
							<path style="fill:#6F6872;" d="M123.485,366.213c0,0,20.607-11.117,33.893-28.47c13.286-17.353,18.167-36.333,20.336-44.197
								c2.169-7.863,6.236-36.876,6.236-36.876l18.709-0.271c0,0,6.779,27.928,2.169,56.398
								c-4.609,28.47-24.674,41.214-28.741,44.739s-34.978,21.692-44.468,23.59L123.485,366.213z"/>
							<path style="fill:none;stroke:#302430;stroke-miterlimit:10;" d="M182.053,352.113c0,0,10.303-8.948,14.642-18.438"/>
							
								<rect x="114.244" y="370.031" transform="matrix(0.5267 0.85 -0.85 0.5267 378.9299 68.9672)" style="fill:#D4D4D5;" width="26.572" height="9.49"/>
						</g>
						<g>
							<polygon style="fill:#FC615F;" points="119.181,395.002 106.362,373.98 84.155,383.956 96.782,428.813 107.674,403.844 
															"/>
							<path style="fill:#EEEEEE;" d="M96.598,392.85c2.381,1.948,5.891,1.597,7.839-0.784c1.948-2.381,1.597-5.89-0.784-7.839
								c-2.381-1.948-5.89-1.597-7.839,0.784C93.866,387.392,94.217,390.902,96.598,392.85z"/>
							<g>
								<line style="fill:none;stroke:#302430;stroke-miterlimit:10;" x1="105.127" y1="409.308" x2="99.753" y2="406.286"/>
								<line style="fill:none;stroke:#302430;stroke-miterlimit:10;" x1="103.583" y1="413.048" x2="97.78" y2="409.412"/>
							</g>
						</g>
					</g>
					<g>
						<polygon style="fill:#918CFF;" points="213.539,418.272 212.421,390.209 228.486,389.192 228.791,417.866 						"/>
						<g>
							<path style="fill:#6F6872;" d="M148.566,261.483c0,0-2.847,10.168,4.474,21.149c7.321,10.981,28.063,31.927,35.588,40.469
								c7.524,8.541,12.201,16.879,16.472,27.453c4.27,10.575,4.881,32.334,4.677,38.232c-0.203,5.897,20.539,1.627,20.539,1.627
								s2.034-22.98-1.017-41.689c-3.05-18.709-13.625-42.705-20.946-52.467c-7.321-9.761-23.386-34.571-23.386-34.571
								L148.566,261.483z"/>
							<path style="fill:none;stroke:#302430;stroke-miterlimit:10;" d="M170.529,289.885c0,0,8.541-3.796,7.05-15.455"/>
							<rect x="206.456" y="384.922" style="fill:#D4D4D5;" width="26.572" height="9.49"/>
							<path style="fill:none;stroke:#302430;stroke-miterlimit:10;" d="M196.695,280.259c0,0,12.473,15.727,21.692,33.893"/>
							<path style="fill:none;stroke:#302430;stroke-miterlimit:10;" d="M163.344,295.444c0,0,21.149,21.692,28.47,31.453
								c7.321,9.761,13.286,20.065,15.997,33.622"/>
						</g>
						<g>
							<polygon style="fill:#FC615F;" points="234.14,412.047 209.736,415.314 209.924,439.659 256.068,446.166 237.6,426.14 
															"/>
							<path style="fill:#EEEEEE;" d="M223.076,431.851c2.742-1.395,3.834-4.749,2.44-7.491c-1.395-2.742-4.748-3.834-7.491-2.44
								c-2.742,1.395-3.834,4.749-2.439,7.491C216.98,432.153,220.334,433.246,223.076,431.851z"/>
							<g>
								<line style="fill:none;stroke:#302430;stroke-miterlimit:10;" x1="241.576" y1="430.672" x2="236.645" y2="434.374"/>
								<line style="fill:none;stroke:#302430;stroke-miterlimit:10;" x1="244.377" y1="433.592" x2="238.712" y2="437.439"/>
							</g>
						</g>
					</g>
				</g>
				<g>
					<g>
						<path style="fill:#FA9E9D;" d="M143.716,268.721l63.625-1.426c0.016-1.593,0.019-3.195-0.006-4.812
							c-0.659-42.46-15.472-76.658-33.085-76.385c-17.613,0.273-31.357,34.916-30.698,77.375
							C143.58,265.239,143.64,266.985,143.716,268.721z"/>
						<path style="fill:none;stroke:#302430;stroke-miterlimit:10;" d="M148.261,219.997c0,0-2.135,9.558-3.152,16.675"/>
					</g>
					<path style="fill:none;stroke:#302430;stroke-miterlimit:10;" d="M193.712,202.17c0,0,10.303,16.675,12.066,39.316"/>
				</g>
				<g>
					<g>
						<g>
							<path style="fill:#302430;" d="M129.451,296.054c0,0-19.726,19.116-26.437,35.384c-6.711,16.269-2.034,35.588,13.422,50.23
								c15.455,14.642,33.76,9.29,42.502,5.491c12.947-5.626,20.878-25.894,14.574-43.587c-6.304-17.692-29.012-39.587-36.13-46.298
								C130.264,290.563,129.451,296.054,129.451,296.054z"/>
							<path style="fill:#302430;" d="M133.924,297.477c0,0,5.084-17.692,7.931-17.489c2.847,0.203-1.22,8.744-1.22,8.744
								s4.067-8.948,6.914-6.101c2.847,2.847-3.254,8.948-3.254,8.948s4.271-6.507,6.914-3.05
								C153.854,291.987,139.618,303.985,133.924,297.477z"/>
						</g>
						<g>
							<g>
								<polygon style="fill:#D4D4D5;" points="138.4,343.236 149.525,336.487 147.2,343.366 								"/>
								<path style="fill:#D4D4D5;" d="M131.027,344.415c0,0,2.483-7.239,5.25-7.548c2.767-0.308,5.175,4.946,5.175,4.946
									l6.279-3.884c0,0-4.606-7.816-9.98-8.142c-5.374-0.326-8.565,1.422-11.277,5.423c-2.712,4.001-2.356,6.485-2.356,6.485
									L131.027,344.415z"/>
							</g>
							<g>
								<path style="fill:#D4D4D5;" d="M144.25,348.781l7.379-4.085c0,0,3.967,4.063,3.511,11.354
									c-0.456,7.291-5.913,9.18-7.25,9.633c-1.337,0.453-5.217-0.106-5.217-0.106l0.676-7.448c0,0,3.124,1.594,4.119-0.855
									C148.464,354.825,146.525,350.232,144.25,348.781z"/>
								<polygon style="fill:#D4D4D5;" points="139.757,362.176 142.618,368.767 143.827,355.302 								"/>
							</g>
							<g>
								<polygon style="fill:#D4D4D5;" points="117.415,346.849 126.115,346.138 128.937,352.673 								"/>
								<path style="fill:#D4D4D5;" d="M120.161,347.62c0,0-2.76,4.575-2.222,9.998c0.538,5.423,3.724,7.221,5.318,8.121
									c1.593,0.899,9.08,1.34,12.218,0.27l0.605-7.314c0,0-7.205,3.339-9.922-0.949c-2.717-4.288,0.464-7.338,0.464-7.338
									L120.161,347.62z"/>
							</g>
						</g>
					</g>
					<g>
						<path style="fill:#918CFF;" d="M134.06,308.73c0.952-0.476-0.68-4.03-1.61-5.762c1.185,1.425,3.574,4.391,4.592,3.864
							c1.155-0.597-0.356-3.855-1.8-6.446c1.605,2.477,3.988,4.983,4.884,4.057c1.027-1.061-0.312-3.645-1.424-5.897
							c1.543,2.369,3.532,5.001,4.033,3.949c0.996-2.092-5.227-10.403-7.05-13.828c-5.088-9.564-10.304-26.03-6.508-42.841
							c1.348-5.967,4.85-11.178,8.805-15.424l-17.791-13.37c-4.354,6.083-7.769,13.273-9.452,21.744
							C102.607,279.717,131.891,309.814,134.06,308.73z"/>
						<g>
							<path style="fill:#FA9E9D;" d="M120.825,216.162l17.202,14.192c7.177-7.687,15.827-12.187,15.827-12.187l18.099-24.606
								l-4.542-6.846C167.411,186.714,137.641,193.536,120.825,216.162z"/>
							<path style="fill:none;stroke:#302430;stroke-miterlimit:10;" d="M138.027,230.354c7.177-7.687,15.827-12.187,15.827-12.187"
								/>
						</g>
						<polygon style="fill:#FE7B7A;" points="115.419,217.15 138.398,233.826 142.465,229.759 119.079,212.27 						"/>
					</g>
				</g>
				<g>
					<g>
						<path style="fill:#FE7B7A;" d="M165.004,189.564c0.056,3.833,4.896,6.87,10.809,6.784c5.913-0.087,10.662-3.265,10.605-7.098
							c-0.056-3.833-4.896-6.871-10.809-6.784C169.696,182.553,164.948,185.731,165.004,189.564z"/>
					</g>
					<g>
						<g>
							<path style="fill:#302430;" d="M169.602,174.414c0,0-6.825-3.889-8.321-13.339c-1.496-9.45,0.122-12.828,3.7-16.41
								c3.579-3.582,9.868-5.107,10.15-5.189c0.282-0.082,9.603-0.653,7.971,3.097c-1.632,3.75-12.157,13.853-12.157,13.853
								s0.467,14.432,0.482,16.478C171.442,174.95,170.392,175.654,169.602,174.414z"/>
							<path style="fill:#302430;" d="M168.464,143.59c0,0-6.275-1.264-5.178-3.175c1.096-1.911,4.346,0.632,4.346,0.632
								s-2.378-3.439-0.503-3.832c1.875-0.393,3.303,3.568,3.068,4.861C169.96,143.369,169.55,144.376,168.464,143.59z"/>
						</g>
						<path style="fill:#918CFF;" d="M185.369,148.887l-7.263,0.129c-4.829,0.086-8.699,4.655-8.601,10.152l0.201,11.259
							c0.006,0.317,0.028,0.63,0.059,0.94c-0.072,0.333-0.112,0.678-0.106,1.033l0.122,6.854l0.007,0.382l0.122,6.854
							c0.044,2.487,2.115,4.486,4.602,4.441l2.881-0.051c2.487-0.044,4.486-2.115,4.441-4.602l-0.108-6.065l4.2-0.075
							c4.829-0.086,8.699-4.654,8.601-10.152l-0.201-11.259C194.228,153.229,190.197,148.801,185.369,148.887z"/>
						<g>
							<g>
								<path style="fill:#302430;" d="M179.857,162.664c0.016,0.904,0.762,1.624,1.666,1.608c0.904-0.016,1.624-0.762,1.608-1.666
									c-0.016-0.904-0.762-1.624-1.666-1.608C180.561,161.014,179.841,161.76,179.857,162.664z"/>
								<path style="fill:#302430;" d="M190.572,162.233c0.014,0.772,0.651,1.386,1.422,1.373c0.772-0.014,1.387-0.651,1.373-1.422
									c-0.014-0.772-0.651-1.386-1.423-1.372C191.173,160.825,190.558,161.462,190.572,162.233z"/>
							</g>
							<g>
								<path style="fill:#FFFDFD;" d="M189.165,171.077c0,0-0.78,2.412-2.516,2.608c-1.736,0.196-3.134-1.708-3.255-3.21
									L189.165,171.077z"/>
								<g>
									<path style="fill:#302430;" d="M188.627,170.929c-0.238,0.711-0.693,1.513-1.331,1.928
										c-1.591,1.033-3.159-0.939-3.343-2.382c-0.186,0.186-0.372,0.372-0.558,0.558c1.924,0.201,3.848,0.402,5.771,0.603
										c0.714,0.074,0.709-1.042,0-1.116c-1.924-0.201-3.848-0.402-5.771-0.603c-0.275-0.029-0.594,0.28-0.558,0.558
										c0.245,1.911,1.798,4.07,3.962,3.749c1.478-0.219,2.463-1.675,2.906-2.997C189.933,170.543,188.855,170.25,188.627,170.929
										z"/>
								</g>
							</g>
							<g>
								<path style="fill:#FFBBD2;" d="M174.274,168.786c0.04,2.247,1.894,4.037,4.142,3.997c2.248-0.04,4.037-1.895,3.997-4.142
									c-0.04-2.247-1.894-4.037-4.142-3.997C176.024,164.684,174.234,166.538,174.274,168.786z"/>
								<path style="fill:#FFBBD2;" d="M193.703,165.608c0.248-0.004,0.488,0.023,0.72,0.074l0.075,4.221
									c0.011,0.631-0.001,1.241-0.119,1.837c-0.169,0.032-0.388,0.059-0.566,0.063c-1.711,0.03-3.122-1.332-3.153-3.042
									C190.63,167.049,191.992,165.638,193.703,165.608z"/>
							</g>
							<g>
								<g>
									<path style="fill:#302430;" d="M186.346,163.113c0.655,0.902,1.294,1.844,1.796,2.84c0.09,0.179,0.401,0.648,0.35,0.865
										c-0.048,0.203-0.431,0.218-0.701,0.251c-0.57,0.069-1.169,0.045-1.74-0.009c-0.64-0.061-0.636,0.94,0,1
										c1.095,0.103,3.799,0.265,3.405-1.508c-0.314-1.415-1.408-2.792-2.246-3.944
										C186.834,162.093,185.966,162.591,186.346,163.113L186.346,163.113z"/>
								</g>
							</g>
							<g>
								<g>
									<path style="fill:#302430;" d="M181.96,157.947c-1.123,0.215-2.246,0.431-3.369,0.646
										c-0.789,0.151-0.455,1.356,0.332,1.205c1.123-0.215,2.246-0.431,3.369-0.646
										C183.081,159.001,182.747,157.796,181.96,157.947L181.96,157.947z"/>
								</g>
							</g>
							<g>
								<g>
									<path style="fill:#302430;" d="M193.349,159.117c-0.982-0.135-1.964-0.271-2.946-0.406
										c-0.787-0.109-1.127,1.096-0.332,1.205c0.982,0.135,1.964,0.271,2.946,0.406
										C193.804,160.431,194.144,159.227,193.349,159.117L193.349,159.117z"/>
								</g>
							</g>
						</g>
						<path style="fill:#302430;" d="M171.007,140.34c-10.162,6.304-4.106,14.07-4.106,14.07l-0.148,0.614
							c-2.362,13.052,5.128,8.505,9.352,5.072c3.762-3.058,4.142-7.711,4.181-8.694c2.486,1.771,7.738,4.482,16.449,4.249
							c6.42-0.171,3.23-2.896-1.569-5.578c3.317-0.566,5.924-1.406,6.101-2.648c0.51-3.576-9.495-4.581-9.495-4.581
							s10.381,0.896,11.771-3.019C204.934,135.911,181.169,134.036,171.007,140.34z"/>
						<g>
							<path style="fill:#918CFF;" d="M160.494,167.133c0.056,3.168,2.691,5.689,5.884,5.633c3.193-0.057,5.737-2.671,5.68-5.839
								c-0.056-3.167-2.691-5.689-5.884-5.632C162.981,161.351,160.438,163.965,160.494,167.133z"/>
							<g>
								<g>
									<path style="fill:#302430;" d="M170.106,167.732c0.032-0.788-0.176-1.645-0.552-2.334
										c-0.797-1.456-2.371-1.921-3.943-1.751c-0.871,0.094-0.881,1.472,0,1.376c1.161-0.126,2.322,0.072,2.84,1.235
										c0.22,0.495,0.301,0.962,0.279,1.472C168.693,168.617,170.069,168.615,170.106,167.732L170.106,167.732z"/>
								</g>
							</g>
						</g>
					</g>
				</g>
			</g>
			<g>
				<g>
					<g>
						<path style="fill:#FD6260;" d="M451.01,220.235c0,0,10.778,48.603,19.319,58.771c8.541,10.168,28.877,19.522,36.198,21.556
							l9.761-12.405c0,0-21.658-12.202-30.097-30.097c-7.544-15.998-8.338-46.366-8.338-46.366L451.01,220.235z"/>
						<polygon style="fill:#FA9E9D;" points="528.592,313.577 509.781,302.799 516.695,290.394 537.234,301.68 						"/>
						<g>
							<g>
								<path style="fill:#F6F6F8;" d="M540.464,345.405l12.141-38.835c0,0-0.084-0.712-2.109-1.863
									c-2.025-1.15-16.188-8.324-16.188-8.324l-8.104,19.085l4.737,5.009c0,0,5.602,15.721,6.559,18.932
									C538.457,342.618,539.523,346.938,540.464,345.405z"/>
								<path style="fill:#7D6CEC;" d="M549.994,304.513c-0.825-0.469-3.663-1.936-6.737-3.511
									c-1.032,2.445-2.122,6.825-0.196,10.428c1.536,2.875,4.527,4.418,6.269,5.012l3.18-10.04
									C552.509,306.403,552.019,305.664,549.994,304.513z"/>
							</g>
							<g>
								<g>
									<g>
										<path style="fill:#252928;" d="M531.311,326.058c2.126-0.859,4.253-1.717,6.379-2.576
											c1.128-0.455,0.635-2.308-0.509-1.846c-2.127,0.859-4.253,1.717-6.379,2.576
											C529.675,324.667,530.168,326.52,531.311,326.058L531.311,326.058z"/>
									</g>
								</g>
								<g>
									<g>
										<path style="fill:#252928;" d="M533.68,330.802c1.903-0.739,3.807-1.477,5.71-2.216c1.136-0.441,0.642-2.293-0.509-1.846
											c-1.904,0.739-3.807,1.477-5.71,2.216C532.035,329.397,532.529,331.248,533.68,330.802L533.68,330.802z"/>
									</g>
								</g>
							</g>
						</g>
						<polygon style="fill:#D4D4D5;" points="503.07,302.595 517.102,283.886 523.813,288.36 510.188,307.273 						"/>
						<path style="fill:none;stroke:#302430;stroke-miterlimit:10;" d="M466.364,273.108c0,0-7.524-22.064-9.863-29.284
							c-2.339-7.219-5.592-24.505-5.592-24.505"/>
					</g>
					<g>
						<polygon style="fill:#FA9E9D;" points="436.775,334.218 437.385,308.493 452.535,308.798 451.01,334.523 						"/>
						<g>
							<path style="fill:#FD6260;" d="M436.368,308.086c0,0-0.305-29.894,2.542-42.909c2.847-13.015,13.93-29.894,28.572-41.689
								c14.642-11.795,18.709-17.082,25.827-17.489c7.117-0.407,16.675,6.101,14.642,10.778c-2.034,4.677-5.694,10.778-9.151,14.032
								c-3.457,3.254-24.2,18.912-27.047,21.963c-2.847,3.05-13.625,16.472-14.845,29.08c-1.22,12.608-2.44,25.013-2.44,25.013
								L436.368,308.086z"/>
							<path style="fill:none;stroke:#302430;stroke-miterlimit:10;" d="M449.383,243.079c0,0,7.728-12.066,15.184-16.54"/>
							<path style="fill:none;stroke:#302430;stroke-miterlimit:10;" d="M461.043,268.16c0,0,0.855-1.984,2.778-5.059
								c3.491-5.582,10.501-14.76,22.303-22.191"/>
							<polygon style="fill:#D4D4D5;" points="433.947,304.629 457.518,305.171 456.676,313.17 433.386,312.221 							"/>
						</g>
						<g>
							<g>
								<path style="fill:#F6F6F8;" d="M412.221,355.498l40.543-3.435c0,0,0.628-0.347,0.927-2.657
									c0.3-2.31,1.59-18.134,1.59-18.134l-20.732-0.292l-2.847,6.279c0,0-12.439,11.128-15.049,13.227
									C414.042,352.587,410.445,355.206,412.221,355.498z"/>
								<path style="fill:#7D6CEC;" d="M453.681,348.869c0.122-0.941,0.408-4.123,0.705-7.564c-2.654-0.032-7.121,0.615-9.729,3.759
									c-2.081,2.509-2.379,5.861-2.272,7.698l10.497-0.85C452.882,351.912,453.382,351.179,453.681,348.869z"/>
							</g>
							<g>
								<g>
									<g>
										<path style="fill:#252928;" d="M426.756,339.805c1.599,1.644,3.197,3.289,4.796,4.933c0.86,0.885,2.213-0.469,1.354-1.354
											c-1.599-1.644-3.197-3.289-4.796-4.933C427.25,337.567,425.897,338.921,426.756,339.805L426.756,339.805z"/>
									</g>
								</g>
								<g>
									<g>
										<path style="fill:#252928;" d="M423.259,343.791c1.403,1.483,2.806,2.966,4.209,4.45c0.848,0.897,2.2-0.458,1.354-1.354
											c-1.403-1.483-2.806-2.966-4.209-4.45C423.764,341.541,422.412,342.896,423.259,343.791L423.259,343.791z"/>
									</g>
								</g>
							</g>
						</g>
					</g>
				</g>
				<ellipse style="fill:#005AC2;" cx="484.632" cy="173.124" rx="32.809" ry="44.536"/>
				<g>
					<g>
						<path style="fill:#FFCD3E;" d="M486.61,84.25c0,0,4.556-1.017,8.399,0.039c4.692,1.29,6.768,6.878,3.694,12.037
							C495.63,101.484,483.698,86.516,486.61,84.25z"/>
						<g>
							<path style="fill:#FFCD3E;stroke:#302430;stroke-miterlimit:10;" d="M496.6,89.758c3.357,5.05,2.474,11.541-1.973,14.497
								c-4.447,2.956-10.773,1.258-14.13-3.793c-3.357-5.051-2.474-11.541,1.973-14.497C486.916,83.01,493.243,84.708,496.6,89.758z
								"/>
							<g>
								<line style="fill:none;stroke:#302430;stroke-miterlimit:10;" x1="485.167" y1="89.363" x2="488.08" y2="84.714"/>
								<line style="fill:none;stroke:#302430;stroke-miterlimit:10;" x1="490.196" y1="91.295" x2="493.223" y2="86.62"/>
								<line style="fill:none;stroke:#302430;stroke-miterlimit:10;" x1="493.39" y1="94.649" x2="496.663" y2="90.279"/>
								<line style="fill:none;stroke:#302430;stroke-miterlimit:10;" x1="495.159" y1="99.126" x2="498.52" y2="95.423"/>
							</g>
						</g>
					</g>
					<g>
						<g>
							<path style="fill:#163A68;" d="M493.623,129.654c-0.048,3.298-4.213,5.912-9.301,5.837c-5.089-0.075-9.174-2.809-9.126-6.108
								c0.048-3.299,4.213-5.912,9.301-5.837C489.586,123.621,493.672,126.355,493.623,129.654z"/>
						</g>
						<g>
							<g>
								<path style="fill:#0056BF;" d="M489.667,116.618c0,0,5.873-3.347,7.16-11.479c1.287-8.132-0.105-11.039-3.184-14.121
									c-3.079-3.082-8.491-4.394-8.734-4.465c-0.243-0.071-8.264-0.562-6.859,2.665c1.405,3.227,10.461,11.92,10.461,11.92
									s-0.402,12.419-0.414,14.18C488.084,117.079,488.987,117.684,489.667,116.618z"/>
							</g>
							<path style="fill:#FA9E9D;" d="M476.099,94.651l6.25,0.111c4.155,0.074,7.486,4.005,7.401,8.736l-0.173,9.688
								c-0.005,0.273-0.024,0.542-0.05,0.809c0.062,0.287,0.096,0.584,0.091,0.889l-0.105,5.898l-0.006,0.329l-0.105,5.898
								c-0.038,2.14-1.82,3.86-3.96,3.822l-2.479-0.044c-2.14-0.038-3.86-1.82-3.822-3.96l0.093-5.219l-3.614-0.064
								c-4.155-0.074-7.486-4.005-7.401-8.736l0.173-9.688C468.476,98.388,471.944,94.577,476.099,94.651z"/>
							<path style="fill:#0056BF;" d="M468.213,112.34c0,0,0.678,1.597,2.778,0.372c2.1-1.225,6.3-1.837,7.7,0.175
								c1.4,2.012,5.665,1.619,6.715-0.131c1.05-1.75,1.881-6.737,3.106-7.175c1.225-0.437,1.816,5.644,1.728,7.831
								s-1.867,6.65-4.666,8.137c-2.8,1.488-12.629,2.304-15.166-0.758C467.87,117.728,468.125,115.752,468.213,112.34z"/>
							<g>
								<g>
									<path style="fill:#302430;" d="M480.842,106.506c-0.014,0.778-0.656,1.398-1.434,1.384
										c-0.778-0.014-1.398-0.656-1.384-1.434c0.014-0.778,0.656-1.397,1.434-1.384
										C480.236,105.086,480.856,105.728,480.842,106.506z"/>
									<path style="fill:#302430;" d="M471.622,106.136c-0.012,0.664-0.56,1.193-1.224,1.181c-0.664-0.012-1.193-0.56-1.181-1.224
										c0.012-0.664,0.56-1.193,1.224-1.181C471.105,104.924,471.634,105.472,471.622,106.136z"/>
								</g>
								<g>
									<path style="fill:#FFFDFD;" d="M472.264,114.096c0,0,0.671,2.076,2.165,2.244c1.494,0.168,2.697-1.469,2.801-2.762
										L472.264,114.096z"/>
								</g>
								<g>
									<g>
										<path style="fill:#302430;" d="M474.564,106.486c-0.717,0.987-1.661,2.169-1.927,3.381
											c-0.323,1.471,1.979,1.313,2.877,1.228c0.476-0.045,0.481-0.796,0-0.75c-0.493,0.047-1.006,0.066-1.497,0.007
											c-0.266-0.032-0.621-0.032-0.656-0.286c-0.03-0.221,0.21-0.567,0.306-0.758c0.432-0.857,0.981-1.668,1.545-2.444
											C475.495,106.474,474.845,106.099,474.564,106.486L474.564,106.486z"/>
									</g>
								</g>
								<g>
									<g>
										<path style="fill:#302430;" d="M478.724,103.568c0.966,0.185,1.933,0.37,2.899,0.556c0.786,0.151,1.123-1.054,0.332-1.205
											c-0.966-0.185-1.932-0.371-2.899-0.556C478.27,102.212,477.934,103.417,478.724,103.568L478.724,103.568z"/>
									</g>
								</g>
								<g>
									<g>
										<path style="fill:#302430;" d="M469.95,102.563c0.845-0.117,1.69-0.233,2.535-0.35c0.337-0.046,0.514-0.474,0.436-0.769
											c-0.095-0.361-0.436-0.482-0.769-0.437c-0.845,0.117-1.69,0.233-2.535,0.35c-0.337,0.046-0.514,0.473-0.437,0.769
											C469.276,102.488,469.617,102.609,469.95,102.563L469.95,102.563z"/>
									</g>
								</g>
							</g>
							<path style="fill:#0056BF;" d="M491.991,99.404c0,0,5.119-6.573-3.33-11.974c-1.899-3.039-5.48-5.92-8.717-6.397
								c-5.002-0.737-4.838,2.882-4.838,2.882s-14.198-3.287-16.181,5.773c-1.983,9.06,11.746,10.991,16.243,10.542
								c2.931-0.292,4.326-1.753,4.946-2.738c0.713,2.258,2.004,5.216,3.958,6.805c3.635,2.954,10.08,6.867,8.047-4.364
								L491.991,99.404z"/>
							<g>
								<path style="fill:#FA9E9D;" d="M497.504,110.352c-0.049,2.726-2.316,4.896-5.064,4.847
									c-2.748-0.049-4.936-2.298-4.888-5.024c0.048-2.726,2.316-4.896,5.064-4.847
									C495.365,105.377,497.553,107.626,497.504,110.352z"/>
								<g>
									<g>
										<path style="fill:#302430;" d="M490.326,110.867c-0.018-0.437,0.071-0.905,0.248-1.302
											c0.462-1.035,1.488-1.233,2.528-1.12c0.639,0.069,0.634-0.931,0-1c-1.32-0.143-2.644,0.235-3.314,1.461
											c-0.316,0.579-0.49,1.299-0.463,1.961C489.352,111.508,490.352,111.511,490.326,110.867L490.326,110.867z"/>
									</g>
								</g>
							</g>
						</g>
					</g>
				</g>
				<g>
					<g>
						<path style="fill:#9A8BFF;" d="M425.319,154.076c0,0-6.779-9.083-5.016-13.286c1.762-4.203,6.643,1.22,6.643,1.22
							s-3.932-4.338,0.813-8.27c4.745-3.932,8.134,1.085,8.677,5.83c0.542,4.745,1.085,2.169,3.254,0.678
							c2.169-1.491,7.457-4.881,10.575-1.898c3.118,2.983,4.745,8.812,2.847,13.15C451.214,155.838,426.539,156.787,425.319,154.076
							z"/>
						<g>
							<path style="fill:#FDCE3E;" d="M440.232,150.822c0,0-1.898-5.694,1.085-8.406c2.983-2.712,6.372,2.034,6.372,2.034
								s-0.814-7.05,2.305-7.863c3.118-0.814,4.745,6.507,4.745,6.507s0.678-5.694,3.118-5.694s5.016,5.83,5.016,5.83
								s0.949-5.83,4.609-7.05c3.66-1.22,3.525,9.761,3.525,9.761s2.44-4.203,4.203-3.66c1.762,0.542,2.25,5.027,1.491,7.999
								c-0.759,2.971-17.545,9.158-18.709,9.354C456.828,159.831,440.639,156.245,440.232,150.822z"/>
							<path style="fill:#FDCE3E;" d="M517.237,155.567c0,0-0.271-9.761,1.491-12.608c1.763-2.847,3.525,3.118,3.525,3.118
								s1.356-5.287,4.338-4.338c2.983,0.949,0,6.508,0,6.508s2.169-4.474,4.474-3.525c2.305,0.949-0.407,7.456-1.898,9.897
								C527.677,157.058,517.102,156.923,517.237,155.567z"/>
						</g>
						<g>
							<path style="fill:#D1DCF2;" d="M428.826,142.902c0.374-0.132,0.728-0.307,1.056-0.518c0.032-0.017,0.067-0.025,0.099-0.044
								c0.915-0.536,1.396-1.237,1.783-2.207c0.121-0.303,0.132-0.629,0.071-0.95c-0.006-0.332-0.076-0.652-0.21-0.939
								c-0.007-0.204-0.033-0.409-0.085-0.614c-0.401-1.589-2.014-2.483-3.576-2.292c-1.603,0.196-2.665,1.481-3.155,2.938
								c-0.084,0.252-0.129,0.512-0.154,0.774c-0.255,0.692-0.347,1.422-0.118,2.102
								C425.125,142.893,427.192,143.477,428.826,142.902z M427.524,138.592c-0.023,0.044-0.043,0.091-0.065,0.136
								c-0.001-0.002-0.003-0.004-0.004-0.006C427.477,138.678,427.496,138.631,427.524,138.592z"/>
							<path style="fill:#D1DCF2;" d="M430.986,143.882c0.615,0.99,1.969,1.525,3.042,0.908c0.347-0.099,0.681-0.273,0.973-0.543
								c0.13-0.12,0.26-0.241,0.39-0.361c0.834-0.773,0.861-2.112,0.203-2.985c-0.65-0.863-1.957-1.237-2.925-0.632
								c-0.269,0.168-0.538,0.336-0.807,0.504C430.852,141.405,430.314,142.8,430.986,143.882z"/>
							<path style="fill:#D1DCF2;" d="M428.559,150.114c0.005-0.024,0.005-0.048,0.01-0.073c0.506-1.32,0.158-2.874-1.049-3.79
								c-0.046-0.035-0.096-0.063-0.143-0.096c-0.214-0.248-0.442-0.486-0.689-0.702c-0.692-0.604-1.432-1.138-2.394-1.144
								c-1.399-0.008-2.419,1.078-2.696,2.37c-0.191,0.888-0.12,1.865,0.175,2.757c0.012,1.424,0.949,2.798,2.389,3.24
								C426.1,153.273,428.109,152.092,428.559,150.114z"/>
						</g>
						<g>
							<path style="fill:#EEEEEE;" d="M480.26,152.083c1.041-0.585,1.526-2.06,0.874-3.109c-0.15-0.242-0.34-0.447-0.552-0.62
								c-0.158-0.41-0.38-0.796-0.675-1.128c-0.954-1.075-2.464-1.281-3.738-0.808c-0.362-0.625-0.923-1.082-1.582-1.318
								c-0.079-0.09-0.16-0.179-0.252-0.266c-1.733-1.644-3.996-0.868-5.578,0.521c-1.576,1.384-2.32,3.854-0.807,5.584
								c0.429,0.491,0.943,0.791,1.49,0.966c0.092,0.112,0.181,0.226,0.293,0.329c0.959,0.884,2.386,0.979,3.506,0.349
								c0.411-0.231,0.844-0.554,1.257-0.935c0.142,0.201,0.305,0.39,0.494,0.562c0.691,0.626,1.575,0.988,2.51,0.974
								c0.28-0.004,0.545-0.053,0.802-0.128c0.213-0.046,0.425-0.113,0.628-0.227c0.068-0.038,0.136-0.077,0.205-0.115
								C479.517,152.519,479.887,152.292,480.26,152.083z"/>
							<path style="fill:#EEEEEE;" d="M466.754,142.794c-0.06,1.662,0.708,3.41,2.09,4.382c1.118,0.787,2.493,0.996,3.721,0.548
								c0.905,0.005,1.836-0.479,2.144-1.374c0.135-0.394,0.216-0.808,0.253-1.228c0.208-0.796,0.143-1.654-0.27-2.421
								c-0.017-0.031-0.041-0.057-0.059-0.088c-0.625-1.779-2.055-3.255-4.044-3.437
								C468.461,138.982,466.828,140.752,466.754,142.794z"/>
							<path style="fill:#EEEEEE;" d="M466.774,142.843c-0.336-0.746-0.899-1.356-1.794-1.676c-1.221-0.438-2.408,0.059-2.993,1.214
								c-0.285,0.564-0.519,1.167-0.681,1.781c-1.939,2.578-2.177,6.817,1.516,7.35c0.625,0.09,1.159,0.004,1.623-0.2
								c0.519,0.217,1.078,0.321,1.657,0.269C470.315,151.208,469.723,144.921,466.774,142.843z"/>
							<path style="fill:#EEEEEE;" d="M482.669,143.116c-0.019-0.019-0.037-0.039-0.056-0.058c-1.574-1.599-3.651-2.21-5.201,0.065
								c-0.507,0.744-0.612,1.589-0.494,2.434c-0.005,0.184-0.003,0.368,0.017,0.553c0.205,1.972,1.349,4.104,3.196,4.979
								c1.017,0.482,2.101,0.433,2.98-0.015c0.341-0.031,0.685-0.082,1.034-0.178c1.19-0.326,1.712-1.897,1.295-2.959
								c-0.15-0.382-0.379-0.673-0.65-0.896C484.503,145.674,483.699,144.186,482.669,143.116z"/>
							<path style="fill:#EEEEEE;" d="M463.915,142.555c0.245,0.31,0.569,0.569,0.981,0.736c0.424,0.172,0.899,0.203,1.348,0.113
								c0.022,0.004,0.044,0.011,0.066,0.014c0.91,0.139,1.824-0.336,2.281-1.115c0.478-0.817,0.38-1.73-0.125-2.512
								c-0.407-0.629-1.02-1.087-1.694-1.305c-0.944-0.591-1.936-0.703-3.009-0.376c-0.763,0.233-1.318,1.042-1.428,1.801
								c-0.12,0.828,0.228,1.604,0.86,2.131C463.421,142.232,463.663,142.402,463.915,142.555z"/>
							<path style="fill:#EEEEEE;" d="M472.93,141.064c0.245,0.31,0.569,0.569,0.981,0.736c0.424,0.172,0.899,0.203,1.348,0.113
								c0.022,0.004,0.044,0.011,0.066,0.014c0.91,0.139,1.824-0.336,2.281-1.115c0.478-0.817,0.38-1.73-0.125-2.512
								c-0.407-0.629-1.02-1.087-1.694-1.305c-0.944-0.591-1.936-0.703-3.009-0.376c-0.763,0.232-1.318,1.042-1.428,1.8
								c-0.12,0.828,0.228,1.604,0.86,2.131C472.437,140.741,472.678,140.911,472.93,141.064z"/>
							<path style="fill:#EEEEEE;" d="M502.984,139.992c-4.52-0.528-6.53,6.281-3.415,9.017c1.628,1.43,3.845,0.868,5.056-0.747
								c1.399-0.981,2.306-2.637,2.14-4.382C506.572,141.867,505.002,140.228,502.984,139.992z"/>
						</g>
						<g>
							<g>
								<g>
									<path style="fill:#9A8BFF;" d="M511.313,121.566c-0.195,1.234-1.529,2.058-2.964,1.831l-2.862-0.452
										c-1.435-0.227-2.45-1.422-2.255-2.656c0.195-1.234,1.529-2.058,2.964-1.832l2.862,0.452
										C510.493,119.137,511.508,120.332,511.313,121.566z"/>
								</g>
								<path style="fill:#9A8BFF;" d="M504.742,121.576c-1.145,7.249-3.418,11.968-5.189,13.1
									c-1.771,1.131-2.113,3.297-2.113,3.297s-1.766,13.5-2.01,18c0.385-0.133,0.83-0.498,1.317-1.287
									c1.613-2.613,2.708-1.092,2.88,0.621c0.171,1.713,2.983,1.876,3.745-0.708c0.762-2.583,1.865,0.013,2.366,1.25
									c0.501,1.237,1.232,0.121,1.852-1.006c0.467-0.849,0.325,1.902,0.916,2.699c1.198-4.778,3.513-17.267,3.513-17.267
									s0.342-2.166-0.994-3.788c-1.336-1.622-2.439-7.139-1.294-14.388"/>
							</g>
						</g>
						<g>
							<g>
								<g>
									<path style="fill:#00887A;" d="M438.191,121.474c0.14,1.275-0.927,2.448-2.371,2.606l-3.095,0.34
										c-1.444,0.159-2.741-0.754-2.881-2.029c-0.14-1.275,0.927-2.448,2.371-2.606l3.095-0.34
										C436.755,119.286,438.051,120.199,438.191,121.474z"/>
								</g>
								<path style="fill:#00887A;" d="M431.686,123.258c0.823,7.488-0.154,12.776-1.602,14.374
									c-1.448,1.598-1.202,3.835-1.202,3.835s1.896,13.847,2.869,18.369c0.346-0.235,0.688-0.718,0.957-1.63
									c0.892-3.023,2.387-1.813,3.02-0.162c0.633,1.65,3.461,1.052,3.518-1.712c0.057-2.764,1.85-0.491,2.68,0.599
									c0.83,1.089,1.253-0.213,1.562-1.497c0.233-0.967,0.835,1.796,1.635,2.426c-0.104-5.055-1.183-18.049-1.183-18.049
									s-0.246-2.237-2.007-3.483c-1.761-1.245-4.343-6.411-5.166-13.9"/>
							</g>
						</g>
						<g>
							<g>
								<g>
									<path style="fill:#00887A;" d="M516.85,171.547c-0.158-1.273,0.893-2.46,2.335-2.639l3.09-0.383
										c1.442-0.179,2.751,0.716,2.909,1.989s-0.893,2.46-2.335,2.639l-3.09,0.383C518.317,173.715,517.008,172.82,516.85,171.547
										z"/>
								</g>
								<path style="fill:#00887A;" d="M523.33,169.672c-0.928-7.476-0.025-12.777,1.401-14.395
									c1.426-1.618,1.149-3.852,1.149-3.852s-2.089-13.819-3.125-18.327c-0.343,0.24-0.677,0.727-0.934,1.643
									c-0.85,3.035-2.362,1.846-3.017,0.204c-0.655-1.642-3.475-1.004-3.494,1.761c-0.019,2.765-1.843,0.516-2.688-0.561
									c-0.845-1.078-1.25,0.231-1.541,1.518c-0.219,0.971-0.86-1.785-1.669-2.403c0.174,5.053,1.435,18.031,1.435,18.031
									s0.277,2.234,2.055,3.454c1.778,1.221,4.432,6.35,5.359,13.826"/>
							</g>
						</g>
						<g>
							<path style="fill:#FFFFFF;" d="M506.827,127.513c-2.416-1.008-4.832-2.016-7.248-3.023c-0.413-0.172-0.763-0.081-1.031,0.283
								c-2.168,2.939-4.336,5.878-6.504,8.817c-0.578,0.783,0.743,1.523,1.314,0.748c2.034-2.757,4.068-5.515,6.102-8.272
								c2.206,0.92,4.413,1.841,6.619,2.761C506.967,129.198,507.723,127.887,506.827,127.513z"/>
							<polygon style="fill:#FF6766;" points="492.598,157.988 501.082,137.309 484.087,132.01 479.147,153.794 							"/>
							
								<rect x="482.095" y="131.572" transform="matrix(0.9547 0.2977 -0.2977 0.9547 62.2373 -140.6414)" style="fill:#EEEEEE;" width="21.531" height="4.878"/>
						</g>
						<g>
							<g style="opacity:0.8;">
								<path style="fill:#D1DCF2;" d="M519.269,150.578c-3.294,3.636-10.028,2.902-15.041-1.64
									c-5.013-4.542-6.406-11.171-3.111-14.807c3.294-3.636,10.028-2.902,15.041,1.64
									C521.17,140.313,522.564,146.942,519.269,150.578z"/>
								<path style="fill:#D1DCF2;" d="M527.531,141.459c-3.294,3.636-10.028,2.902-15.041-1.64
									c-5.013-4.542-6.406-11.171-3.111-14.807c3.294-3.636,10.028-2.902,15.041,1.64
									C529.432,131.194,530.826,137.823,527.531,141.459z"/>
								<path style="fill:#D1DCF2;" d="M506.143,165.066c-3.294,3.636-10.028,2.902-15.041-1.64
									c-5.013-4.542-6.406-11.171-3.111-14.807c3.294-3.636,10.028-2.902,15.041,1.64
									C508.044,154.8,509.437,161.43,506.143,165.066z"/>
								<path style="fill:#D1DCF2;" d="M512.474,158.077c-3.294,3.636-10.028,2.902-15.041-1.64
									c-5.013-4.542-6.406-11.171-3.111-14.807c3.294-3.636,10.028-2.902,15.041,1.64
									C514.376,147.812,515.769,154.441,512.474,158.077z"/>
							</g>
							<path style="fill:#025785;" d="M524.124,129.313l-2.323-2.104c-0.877-0.794-0.943-2.148-0.149-3.025l1.41-1.556
								c0.794-0.876,2.148-0.943,3.025-0.149l2.323,2.104c0.877,0.794,0.943,2.148,0.149,3.025l-1.409,1.556
								C526.355,130.04,525,130.107,524.124,129.313z"/>
						</g>
						<g>
							<g style="opacity:0.8;">
								<path style="fill:#D1DCF2;" d="M467.618,147.775c1.389,4.706-2.743,10.073-9.231,11.988
									c-6.487,1.915-12.872-0.347-14.262-5.052c-1.389-4.705,2.743-10.073,9.231-11.988
									C459.844,140.807,466.229,143.069,467.618,147.775z"/>
								<path style="fill:#D1DCF2;" d="M464.134,135.973c1.389,4.706-2.743,10.073-9.231,11.988
									c-6.487,1.915-12.872-0.347-14.262-5.052c-1.389-4.705,2.743-10.073,9.231-11.988
									C456.36,129.006,462.745,131.268,464.134,135.973z"/>
								<path style="fill:#D1DCF2;" d="M473.154,166.525c1.389,4.706-2.743,10.073-9.231,11.988
									c-6.487,1.915-12.872-0.347-14.262-5.052c-1.389-4.706,2.743-10.073,9.231-11.988
									C465.38,159.557,471.765,161.819,473.154,166.525z"/>
								<path style="fill:#D1DCF2;" d="M470.484,157.481c1.389,4.705-2.743,10.073-9.231,11.988
									c-6.487,1.915-12.873-0.347-14.262-5.052c-1.389-4.705,2.743-10.073,9.231-11.988
									C462.71,150.513,469.095,152.775,470.484,157.481z"/>
							</g>
							<path style="fill:#FF6766;" d="M451.99,132.559l-3.006,0.887c-1.134,0.335-2.326-0.313-2.66-1.447l-0.594-2.014
								c-0.335-1.134,0.313-2.325,1.447-2.66l3.006-0.887c1.134-0.335,2.325,0.313,2.66,1.447l0.595,2.013
								C453.772,131.033,453.124,132.225,451.99,132.559z"/>
						</g>
					</g>
					<g>
						<polygon style="fill:#6F6872;" points="420.1,147.365 444.774,231.962 510.391,233.047 532.896,151.974 						"/>
						<g>
							<g>
								<polygon style="fill:#D4D4D5;" points="479.716,181.809 488.382,176.903 486.445,182.111 								"/>
								<path style="fill:#D4D4D5;" d="M474.049,182.541c0,0,2.066-5.48,4.19-5.653c2.123-0.172,3.845,3.903,3.845,3.903
									l4.892-2.826c0,0-3.343-6.085-7.446-6.458c-4.103-0.373-6.585,0.891-8.751,3.889c-2.167,2.999-1.951,4.907-1.951,4.907
									L474.049,182.541z"/>
							</g>
							<g>
								<path style="fill:#D4D4D5;" d="M484.063,186.185l5.739-2.955c0,0,2.941,3.199,2.424,8.766
									c-0.517,5.567-4.735,6.886-5.768,7.202c-1.033,0.316-3.988-0.201-3.988-0.201l0.689-5.681c0,0,2.353,1.291,3.171-0.559
									C487.148,190.905,485.771,187.347,484.063,186.185z"/>
								<polygon style="fill:#D4D4D5;" points="480.318,196.328 482.355,201.436 483.59,191.163 								"/>
							</g>
							<g>
								<polygon style="fill:#D4D4D5;" points="463.581,184.09 470.252,183.745 472.261,188.81 								"/>
								<path style="fill:#D4D4D5;" d="M465.664,184.742c0,0-2.217,3.436-1.93,7.597c0.287,4.161,2.683,5.61,3.881,6.334
									c1.198,0.725,6.915,1.234,9.34,0.488l0.631-5.581c0,0-5.588,2.388-7.568-0.954s0.524-5.602,0.524-5.602L465.664,184.742z"/>
							</g>
						</g>
					</g>
				</g>
				<g>
					<path style="fill:#FA9E9D;" d="M432.199,204.373c0,0-2.847-3.05-3.152-7.524c-0.305-4.474,4.779-10.88,6.202-10.676
						c1.424,0.203-1.83,6.202-1.83,6.202s3.355-3.66,4.576-2.44c1.22,1.22-2.847,6.304-2.847,6.304s4.576-3.355,5.084-1.322
						c0.508,2.034-3.457,5.389-3.457,5.389s4.881-3.762,2.949,0.813C437.792,205.695,434.843,206.407,432.199,204.373z"/>
					<path style="fill:#FA9E9D;" d="M525.123,198.982c0,0,1.656-3.83,0.439-8.146c-1.217-4.316-8.158-8.64-9.43-7.97
						c-1.272,0.67,3.809,5.226,3.809,5.226s-4.391-2.319-5.13-0.76c-0.739,1.559,4.801,4.98,4.801,4.98s-5.437-1.622-5.232,0.464
						c0.205,2.086,5.068,3.913,5.068,3.913s-5.861-1.902-2.504,1.757C520.3,202.107,523.317,201.786,525.123,198.982z"/>
				</g>
			</g>
			<g>
				<g>
					<g>
						<g>
							<path style="fill:#0056BE;" d="M353.742,334.205c0,0,14.001-3.462,20.052,6.97c6.052,10.432,11.932,34.035,11.932,34.035
								l15.542-3.913c0,0-11.075-34.686-14.133-41.612c-2.943-6.668-9.231-19.638-17.459-22.174s-27.314,4.343-27.314,4.343
								l3.744,20.957C346.108,332.811,346.956,335.558,353.742,334.205z"/>
							<path style="fill:none;stroke:#302430;stroke-miterlimit:10;" d="M382.181,320.537c0,0,2.938,3.909,6.155,11.839"/>
						</g>
						<g>
							<g>
								<path style="fill:#F6F6F8;" d="M435.266,392.703l-48.025,1.211c0,0-0.782-0.326-1.432-2.998
									c-0.65-2.672-4.21-21.076-4.21-21.076l24.293-3.023l4.153,7.001c0,0,16.036,11.451,19.372,13.577
									C432.753,389.522,437.313,392.131,435.266,392.703z"/>
								<g>
									<g>
										<path style="fill:#302430;" d="M383.947,382.122c7.736-0.816,14.332,3.012,14.94,11.27c0.059,0.797,1.309,0.804,1.25,0
											c-0.657-8.907-7.671-13.418-16.19-12.52C383.155,380.956,383.146,382.207,383.947,382.122L383.947,382.122z"/>
									</g>
								</g>
							</g>
							<g>
								<g>
									<g>
										<path style="fill:#302430;" d="M414.62,374.782c-1.664,2.136-3.327,4.273-4.991,6.409
											c-0.748,0.961,0.597,2.325,1.354,1.354c1.664-2.136,3.327-4.273,4.991-6.409
											C416.722,375.175,415.377,373.81,414.62,374.782L414.62,374.782z"/>
									</g>
								</g>
								<g>
									<g>
										<path style="fill:#302430;" d="M419.091,379.201c-1.455,1.922-2.91,3.844-4.365,5.766
											c-0.743,0.982,0.918,1.937,1.653,0.966c1.455-1.922,2.91-3.844,4.365-5.766
											C421.487,379.185,419.826,378.23,419.091,379.201L419.091,379.201z"/>
									</g>
								</g>
							</g>
						</g>
						<g>
							<polygon style="fill:#FE7B7A;" points="331.321,346.007 353.599,338.483 343.952,308.032 321.449,315.866 							"/>
							<polygon style="fill:#FA9E9D;" points="340.829,306.95 352.14,341.392 357.981,339.708 347.688,304.761 							"/>
						</g>
					</g>
					<g>
						<g>
							<path style="fill:#0056BE;" d="M442.962,311.78c1.22-0.542-0.163-1.374-0.542-1.491c-3.647-1.13-9.626-0.949-9.626-0.949
								s4.694-1.593,4.203-2.847c-0.357-0.91-11.422,1.864-11.422,1.864c-8.406,0.407-35.757-2.406-35.757-2.406
								c-2.076-0.343-4.238-0.861-6.459-1.523c-1.631,5.014-3.872,11.882-5.782,17.666c19.968,3.254,63.653-0.563,64.505-2.111
								c0.746-1.356-3.179-2.21-5.727-2.269c2.767-0.069,6.44-0.366,6.608-1.459c0.167-1.082-3.454-1.455-6.275-1.581
								c2.861,0,6.599-0.16,6.682-0.994c0.119-1.19-7.456-1.688-9.305-1.792C435.704,311.97,441.905,312.25,442.962,311.78z"/>
							<path style="fill:none;stroke:#302430;stroke-miterlimit:10;" d="M381.311,322.338c0,0,6.558,1.068,16.777,1.068"/>
							<g>
								<path style="fill:#137A6B;" d="M379.604,321.767c1.804-5.656,3.614-12.324,4.981-17.615
									c-26.909-7.468-63.435-37.45-63.435-37.45l3.118,11.795c0,0,5.287,20.336,10.846,25.216
									c5.558,4.881,21.42,12.879,39.723,17.218C376.258,321.268,377.86,321.544,379.604,321.767z"/>
								<g>
									<path style="fill:#CBCED5;" d="M373.326,324.092c0,0,5.582-12.289,8.627-24.088l7.929,1.977c0,0-4.421,13.523-7.484,21.505
										l-1.39,3.43L373.326,324.092z"/>
								</g>
							</g>
						</g>
						<g>
							<g style="opacity:0.8;">
								<path style="fill:#E9F1FF;" d="M439.584,308.164c-0.944,4.815-7.091,7.662-13.728,6.36
									c-6.638-1.302-11.253-6.261-10.308-11.075c0.944-4.815,7.091-7.662,13.728-6.36
									C435.913,298.391,440.529,303.35,439.584,308.164z"/>
								<path style="fill:#E9F1FF;" d="M441.953,296.09c-0.944,4.815-7.091,7.662-13.728,6.36
									c-6.638-1.302-11.253-6.261-10.308-11.075c0.944-4.815,7.091-7.662,13.728-6.36
									C438.282,286.316,442.897,291.275,441.953,296.09z"/>
								<path style="fill:#E9F1FF;" d="M435.821,327.349c-0.944,4.814-7.091,7.662-13.728,6.36
									c-6.638-1.302-11.253-6.26-10.308-11.075c0.944-4.815,7.091-7.662,13.728-6.36
									C432.15,317.576,436.765,322.534,435.821,327.349z"/>
								<path style="fill:#E9F1FF;" d="M437.636,318.095c-0.944,4.815-7.091,7.662-13.728,6.36
									c-6.638-1.302-11.253-6.261-10.308-11.075c0.944-4.815,7.091-7.662,13.728-6.36
									C433.965,308.322,438.581,313.28,437.636,318.095z"/>
							</g>
							<path style="fill:#169B91;" d="M432.764,287.446l-3.076-0.603c-1.161-0.228-1.917-1.353-1.689-2.514l0.404-2.06
								c0.228-1.161,1.353-1.917,2.514-1.689l3.076,0.603c1.161,0.228,1.917,1.353,1.689,2.514l-0.404,2.06
								C435.051,286.918,433.925,287.674,432.764,287.446z"/>
						</g>
					</g>
					<g>
						<g>
							<path style="fill:#0056BE;" d="M276.81,378.684c0,0,65.077,12.63,80.063,11.56c14.985-1.07,16.698-16.269,11.346-25.26
								c-5.352-8.991-26.759-26.973-26.759-26.973l-20.301,24.582l13.237,5.816c0,0-42.386-3.425-53.304-1.713
								C270.174,368.409,276.81,378.684,276.81,378.684z"/>
							<path style="fill:none;stroke:#302430;stroke-miterlimit:10;" d="M323.038,363.396c0,0,13.289,6.572,23.06,8.866"/>
						</g>
						<g>
							<g>
								<path style="fill:#F6F6F8;" d="M245.813,404.274l17.089-47.596c0,0,0.618-0.643,3.488-0.264
									c2.87,0.379,22.287,3.889,22.287,3.889l-6.279,24.993l-8.452,1.412c0,0-17.342,11.381-20.698,13.845
									C249.892,403.018,245.596,406.5,245.813,404.274z"/>
								<g>
									<g>
										<path style="fill:#302430;" d="M275.741,358.005c-2.163,7.94-8.474,12.823-16.829,10.313
											c-0.772-0.232-1.102,0.974-0.332,1.205c9.08,2.728,15.999-2.496,18.367-11.186
											C277.158,357.56,275.952,357.228,275.741,358.005L275.741,358.005z"/>
									</g>
								</g>
							</g>
							<g>
								<g>
									<g>
										<path style="fill:#302430;" d="M271.164,390.755c-1.464-2.446-2.927-4.892-4.391-7.337
											c-0.632-1.056-2.288-0.095-1.653,0.966c1.464,2.446,2.927,4.892,4.391,7.337
											C270.143,392.777,271.799,391.816,271.164,390.755L271.164,390.755z"/>
									</g>
								</g>
								<g>
									<g>
										<path style="fill:#302430;" d="M265.259,393.681c-1.333-2.159-2.666-4.319-3.998-6.478
											c-0.646-1.047-2.302-0.086-1.653,0.966c1.333,2.16,2.665,4.319,3.998,6.479
											C264.252,395.694,265.909,394.733,265.259,393.681L265.259,393.681z"/>
									</g>
								</g>
							</g>
						</g>
						<g>
							<path style="fill:#FE7B7A;" d="M276.739,320.314c0,0-5.423,13.701-1.713,22.549c3.711,8.848,42.529,23.12,42.529,23.12
								l27.258-30.826l-22.121-15.128c0,0-44.955-7.992-45.954-0.285"/>
							<line style="fill:none;stroke:#302430;stroke-miterlimit:10;" x1="335.894" y1="328.832" x2="342.048" y2="333.435"/>
							<polygon style="fill:#FA9E9D;" points="311.315,366.189 320.846,370.519 352.484,335.763 344.136,330.197 							"/>
						</g>
						<line style="fill:none;stroke:#302430;stroke-miterlimit:10;" x1="302.041" y1="366.399" x2="308.865" y2="366.64"/>
					</g>
				</g>
				<g>
					<path style="fill:#169B91;" d="M283.421,330.387c17.459,2.07,40.124,3.664,56.965,0.967
						c2.423-35.071-7.812-64.359-23.197-65.804c-15.646-1.47-30.684,26.408-33.588,62.268
						C283.531,328.679,283.476,329.533,283.421,330.387z"/>
					<g>
						<g>
							<polygon style="fill:#0056BE;stroke:#302430;stroke-miterlimit:10;" points="337.648,239.941 336.717,247.541 
								340.793,246.029 							"/>
							<g>
								<path style="fill:#0056BF;" d="M330.456,227.354l-6.941-0.384c-4.615-0.255-8.628,3.835-8.918,9.089l-0.595,10.76
									c-0.017,0.303-0.018,0.603-0.009,0.901c-0.092,0.313-0.154,0.64-0.173,0.979l-0.362,6.55l-0.02,0.365l-0.362,6.55
									c-0.131,2.377,1.706,4.429,4.083,4.56l2.753,0.152c2.377,0.131,4.429-1.706,4.56-4.083l0.32-5.796l4.014,0.222
									c4.615,0.255,8.628-3.835,8.919-9.089l0.595-10.76C338.609,232.117,335.071,227.609,330.456,227.354z"/>
								<path style="fill:none;stroke:#1E0041;stroke-width:2;stroke-miterlimit:10;" d="M305.439,243.031
									c0.149-3.027,2.559-5.338,5.385-5.163c1.206,0.075,2.29,0.593,3.128,1.395l-0.639,8.72
									c-0.871,0.594-1.915,0.914-3.027,0.845C307.46,248.653,305.29,246.058,305.439,243.031z"/>
							</g>
							<path style="fill:#302430;" d="M314.037,218.626c8.889-3.337,18.743,0.685,18.743,0.685s3.826-6.047,8.272-3.735
								c4.447,2.312,0.032,8.18,0.032,8.18s6.569-5.441,10.656-2.048c4.087,3.393,5.157,10.375-0.272,14.811
								c-3.948,3.225-10.168,2.337-15.588,0.406c-0.446-0.102-0.945-0.227-1.52-0.383c-2.302-0.625-4.238-1.816-5.756-3.046
								c-1.92-1.246-3.076-2.495-3.756-3.51c-0.044,0.432-0.218,1.18-0.731,2.385c-0.758,4.163-4.345,6.156-6.609,7.011
								c-0.684,0.341-1.327,0.616-1.89,0.837c-0.038,1.113-0.604,5.199-1.23,7.748c-0.329,1.338-0.548,5.038-1.237,5.117
								c-4.775,0.549-10.926-7.611-11.66-12.793C300.175,231.003,304.715,222.125,314.037,218.626z"/>
							<g>
								<path style="fill:#0056BE;" d="M305.44,243.031c-0.167,3.027,2.171,5.618,5.223,5.787c3.052,0.169,5.662-2.149,5.829-5.176
									s-2.171-5.618-5.223-5.787C308.217,237.687,305.608,240.004,305.44,243.031z"/>
								<g>
									<g>
										<path style="fill:#302430;" d="M314.603,244.226c0.087-0.756-0.07-1.586-0.39-2.27c-0.678-1.45-2.176-1.98-3.695-1.925
											c-0.883,0.032-0.887,1.408,0,1.376c1.093-0.039,2.148,0.243,2.547,1.359c0.169,0.473,0.221,0.949,0.162,1.46
											C313.126,245.104,314.503,245.097,314.603,244.226L314.603,244.226z"/>
									</g>
								</g>
							</g>
							<g>
								<path style="fill:#302430;" d="M328.068,240.969c-0.059,1.059,0.753,1.965,1.811,2.024c1.059,0.059,1.965-0.753,2.024-1.812
									c0.059-1.059-0.753-1.965-1.811-2.024C329.032,239.099,328.126,239.91,328.068,240.969z"/>
								<path style="fill:#FF6766;" d="M322.102,247.044c0.55,1.826,2.477,2.861,4.303,2.311c1.826-0.55,2.861-2.477,2.311-4.303
									c-0.55-1.826-2.477-2.861-4.303-2.311C322.587,243.291,321.552,245.217,322.102,247.044z"/>
								<g>
									<g>
										<path style="fill:#302430;" d="M332.367,250.617c1.174,1.278,2.685,2.17,4.464,2.082c0.801-0.04,0.805-1.29,0-1.25
											c-1.464,0.072-2.614-0.665-3.58-1.716C332.705,249.14,331.823,250.025,332.367,250.617L332.367,250.617z"/>
									</g>
								</g>
								<g>
									<g>
										<path style="fill:#302430;" d="M326.596,237.717c0.952-0.458,1.904-0.917,2.856-1.375
											c0.725-0.349,0.091-1.427-0.631-1.079c-0.952,0.458-1.904,0.917-2.856,1.375
											C325.241,236.987,325.874,238.065,326.596,237.717L326.596,237.717z"/>
									</g>
								</g>
							</g>
							<path style="fill:#302430;" d="M314.773,216.489c-0.701,7.763-7.562,13.487-15.325,12.786
								c-7.763-0.701-13.487-7.562-12.786-15.325c0.701-7.763,7.562-13.487,15.325-12.786
								C309.749,201.865,315.474,208.727,314.773,216.489z"/>
						</g>
						<path style="fill:#383139;" d="M313.788,269.756l8.051,0.727c2.043,0.185,3.848-1.322,4.033-3.365l0.058-0.644
							c0.185-2.043-1.322-3.848-3.365-4.033l-8.051-0.727c-2.043-0.185-3.848,1.322-4.033,3.365l-0.058,0.644
							C310.239,267.766,311.745,269.572,313.788,269.756z"/>
					</g>
				</g>
				<g>
					<path style="fill:#137A6B;" d="M285.82,332.319c-0.556-11.91,4.881-21.737,11.808-29.758
						c7.728-8.948,19.726-17.896,19.522-22.979c-0.203-5.084-5.999-12.1-16.777-5.592c0,0-15.048,7.219-30.199,30.199
						c-4.52,6.855-6.936,16.017-6.193,25.835C269.645,331.318,277.775,332.682,285.82,332.319z"/>
					<g>
						<g>
							<g>
								<path style="fill:#918CFF;" d="M351.076,399.985c-1.401,0.387-2.863-0.442-3.25-1.843l-1.831-6.625
									c-0.387-1.401,0.442-2.863,1.843-3.25l1.414-0.391c1.401-0.387,2.863,0.442,3.25,1.843l1.831,6.625
									c0.387,1.401-0.442,2.863-1.843,3.25L351.076,399.985z"/>
							</g>
							<path style="fill:#918CFF;" d="M347.732,390.904c-10.512,2.904-18.295,2.728-20.913,1.027
								c-2.619-1.701-5.759-0.833-5.759-0.833s-19.352,5.905-25.591,8.339c0.416,0.44,1.184,0.817,2.55,0.991
								c4.527,0.577,3.141,2.994,0.929,4.278c-2.213,1.285-0.705,5.189,3.258,4.633c3.963-0.556,1.128,2.531-0.237,3.969
								c-1.365,1.438,0.594,1.742,2.499,1.887c1.436,0.11-2.375,1.608-3.09,2.897c7.201-1.314,25.522-5.856,25.522-5.856
								s3.141-0.868,4.514-3.672c1.374-2.804,8.161-7.686,18.673-10.59"/>
						</g>
					</g>
					<g>
						<g>
							<path style="fill:#0056BE;" d="M322.642,393.869c0,0,6.101,4.881,8.134,4.067c2.034-0.814-5.491-6.914-5.491-6.914
								s5.898,4.474,7.118,3.66c1.22-0.814-5.491-6.507-5.491-6.507s6.101,4.677,6.914,3.05
								c0.813-1.627-13.625-10.371-13.625-10.371s6.507,1.22,5.491-0.61c-1.017-1.83-5.491-0.407-13.015-6.304
								c-7.524-5.897-24.2-23.59-26.437-37.418c-0.27-1.671-0.417-3.302-0.46-4.897c-8.839-0.54-16.416-1.97-21.896-3.309
								c0.296,7.622,2.489,15.704,7.104,23.458c10.168,17.082,25.827,30.707,44.739,42.705
								C334.64,406.478,329.556,399.563,322.642,393.869z"/>
							<path style="fill:none;stroke:#302430;stroke-miterlimit:10;" d="M331.939,388.834c-3.762-3.148-11.738-7.979-11.738-7.979
								s6.507,1.22,5.491-0.61c-1.017-1.83-5.491-0.407-13.015-6.304c-3.216-2.521-8.104-7.196-12.821-12.803"/>
						</g>
						<path style="fill:#CBCED5;" d="M261.363,332.658c0,0,9.626,5.423,26.979,3.118l0.136-7.728c0,0-20.2,1.22-26.437-1.762
							L261.363,332.658z"/>
					</g>
				</g>
			</g>
		</g>
		<g>
			<g>
				<g>
					<g>
						<g>
							<path style="fill:#FD6260;" d="M592.497,106.143c-14.653,35.88-27.607,72.669-38.403,109.885
								c-14.624,50.411-21.911,102.638-27.397,154.743c-1.116,10.603-2.138,21.219-2.949,31.851
								c-0.411,5.388-1.115,10.967-0.812,16.38c0.04,0.712,0.542,1.199,1.25,1.25c7.064,0.506,14.128,1.012,21.192,1.518
								c0.718,0.052,1.192-0.617,1.25-1.25c3.821-41.354,8.3-82.722,14.291-123.82c3.522-24.161,8.789-47.779,13.949-71.624
								c6.202-28.658,12.102-57.382,18.489-86c2.165-9.699,4.047-19.651,7.132-29.114c0.672-2.063,3.315-5.786,1.156-7.532
								c-2.287-1.85-6.797,1.697-8.574,2.966c-1.298,0.927-0.051,3.096,1.262,2.159c1.036-0.739,2.116-1.459,3.244-2.049
								c2.881-1.506,2.092-0.52,1.223,1.751c-0.876,2.286-1.512,4.654-2.14,7.018c-2.548,9.594-4.654,19.312-6.793,29.003
								c-6.143,27.833-11.9,55.75-17.945,83.605c-4.953,22.824-9.946,45.441-13.329,68.57c-3.795,25.948-6.857,52.004-9.688,78.072
								c-1.7,15.653-3.328,31.317-4.777,46.995c0.417-0.417,0.833-0.833,1.25-1.25c-7.064-0.506-14.128-1.012-21.192-1.518
								c0.417,0.417,0.833,0.833,1.25,1.25c-0.731-13.045,1.607-26.788,2.891-39.727c2.5-25.197,5.604-50.346,9.457-75.373
								c4.051-26.315,9.053-52.436,16.144-78.114c7.148-25.882,15.676-51.383,24.823-76.622
								c5.147-14.203,10.444-28.371,16.157-42.358C595.516,105.319,593.098,104.671,592.497,106.143z"/>
						</g>
					</g>
					<g>
						<g>
							<g>
								<g>
									<path style="fill:#FD6260;" d="M546.502,252.655c6.622-1.407,14.012-0.617,20.03,2.449
										c1.431,0.729,2.697-1.428,1.262-2.159c-6.661-3.393-14.64-4.255-21.957-2.701
										C544.265,250.579,544.93,252.989,546.502,252.655L546.502,252.655z"/>
								</g>
							</g>
							<g>
								<g>
									<path style="fill:#FD6260;" d="M545.71,257.738c6.347-0.917,13.614,0.368,19.669,2.905
										c1.482,0.621,2.129-1.797,0.665-2.411c-6.52-2.731-13.954-3.922-20.998-2.905
										C543.459,255.557,544.134,257.966,545.71,257.738L545.71,257.738z"/>
								</g>
							</g>
							<g>
								<g>
									<path style="fill:#FD6260;" d="M544.321,262.008c6.555-0.61,14.165-0.365,19.967,2.998
										c1.394,0.809,2.655-1.351,1.262-2.159c-6.185-3.586-14.241-3.989-21.228-3.34
										C542.733,259.656,542.717,262.158,544.321,262.008L544.321,262.008z"/>
								</g>
							</g>
						</g>
						<g>
							<g>
								<g>
									<path style="fill:#FD6260;" d="M560.133,202.097c5.427,0.385,11.267,1.076,16.303,3.229
										c1.463,0.626,2.738-1.527,1.262-2.159c-5.471-2.34-11.659-3.152-17.564-3.57
										C558.527,199.484,558.534,201.984,560.133,202.097L560.133,202.097z"/>
								</g>
							</g>
							<g>
								<g>
									<path style="fill:#FD6260;" d="M561.486,197.575c5.29,0.291,10.957,1.175,15.741,3.526
										c1.439,0.707,2.707-1.448,1.262-2.159c-5.204-2.558-11.244-3.551-17.003-3.868
										C559.878,194.987,559.883,197.487,561.486,197.575L561.486,197.575z"/>
								</g>
							</g>
							<g>
								<g>
									<path style="fill:#FD6260;" d="M563.07,194.142c5.195,0.033,10.559,1.236,15.213,3.526
										c1.438,0.708,2.707-1.448,1.262-2.159c-5.057-2.488-10.826-3.832-16.475-3.868
										C561.461,191.632,561.46,194.132,563.07,194.142L563.07,194.142z"/>
								</g>
							</g>
						</g>
						<g>
							<g>
								<g>
									<path style="fill:#FD6260;" d="M577.594,151.099c3.37,0.312,6.84,1.412,9.668,3.262c1.35,0.884,2.604-1.28,1.262-2.159
										c-3.214-2.104-7.116-3.25-10.93-3.604C575.993,148.451,576.003,150.951,577.594,151.099L577.594,151.099z"/>
								</g>
							</g>
							<g>
								<g>
									<path style="fill:#FD6260;" d="M578.651,146.61c3.242,0.233,7.18,0.621,9.932,2.47c1.339,0.9,2.592-1.265,1.262-2.159
										c-3.118-2.095-7.522-2.547-11.194-2.811C577.045,143.994,577.052,146.495,578.651,146.61L578.651,146.61z"/>
								</g>
							</g>
							<g>
								<g>
									<path style="fill:#FD6260;" d="M580.763,142.385c3.144-0.125,6.372,0.841,8.876,2.734c1.283,0.97,2.53-1.199,1.262-2.159
										c-2.819-2.132-6.601-3.216-10.137-3.075C579.16,139.948,579.152,142.449,580.763,142.385L580.763,142.385z"/>
								</g>
							</g>
						</g>
						<g>
							<g>
								<g>
									<path style="fill:#FD6260;" d="M531.382,344.662c6.923-0.37,14.485-0.311,21.057,2.068
										c1.515,0.548,2.168-1.866,0.665-2.411c-6.771-2.451-14.598-2.538-21.722-2.157
										C529.782,342.248,529.772,344.748,531.382,344.662L531.382,344.662z"/>
								</g>
							</g>
							<g>
								<g>
									<path style="fill:#FD6260;" d="M530.922,350.955c6.783-1.127,14.033-0.135,20.461,2.113
										c1.522,0.532,2.176-1.882,0.665-2.411c-6.88-2.405-14.556-3.314-21.79-2.113
										C528.674,348.808,529.346,351.217,530.922,350.955L530.922,350.955z"/>
								</g>
							</g>
							<g>
								<g>
									<path style="fill:#FD6260;" d="M530.625,356.402c6.782-1.127,14.033-0.135,20.461,2.113
										c1.522,0.532,2.176-1.882,0.665-2.411c-6.88-2.406-14.556-3.314-21.79-2.113
										C528.377,354.254,529.049,356.664,530.625,356.402L530.625,356.402z"/>
								</g>
							</g>
						</g>
					</g>
				</g>
				<path style="fill:#169B91;" d="M596.343,112.351c0,0-11.883,2.377-26.143,18.485c-10.338,11.678-26.671,43.836-29.312,55.455
					c-2.641,11.619-12.939,9.243-12.147-3.433c0.792-12.675,28.784-64.697,58.095-75.788c0,0-30.104,6.866-51.758,25.087
					c-21.654,18.221-36.859,26.502-40.875,19.061c-4.017-7.442,50.118-51.013,92.369-49.429c0,0-43.308-17.429-70.243-14.524
					c-26.935,2.905-11.883-12.675-2.905-13.732c8.978-1.056,50.966-6.866,78.693,26.407c0,0-10.299-29.84-37.498-53.342
					c-27.199-23.502-11.355-29.576,0-23.766c11.355,5.809,42.251,47.005,45.684,77.108c0,0,25.615-63.113,58.624-61
					c0,0,9.507-1.056-8.186,12.675c-17.693,13.732-32.217,27.199-40.931,45.948c0,0,45.156-17.429,74.468-16.636
					c29.312,0.792,16.108,9.243,11.883,10.299c-4.225,1.056-75.26,9.771-80.277,11.619c-5.017,1.849,35.914,5.546,63.905,30.368
					c27.992,24.823,19.805,28.52,15.316,29.84c-4.489,1.32-29.312-26.935-44.628-35.385c-15.316-8.45-40.403-20.333-40.403-20.333
					s38.554,30.632,45.42,60.472c6.866,29.84-2.113,31.424-5.546,24.03c-3.433-7.394-18.749-63.905-43.043-81.07
					c0,0,20.862,42.515,15.844,72.883c-5.017,30.368-13.468,19.013-13.732,11.091C608.755,186.819,614.564,136.645,596.343,112.351z
					"/>
			</g>
			<g>
				<g>
					<g>
						<g>
							<g>
								<path style="fill:#FD6260;" d="M589.643,393.484c5.135,0.034,10.983-0.219,15.909,1.364c0.768,0.247,1.096-0.96,0.332-1.205
									c-5.035-1.618-11-1.375-16.241-1.409C588.838,392.229,588.837,393.479,589.643,393.484L589.643,393.484z"/>
							</g>
						</g>
						<g>
							<g>
								<path style="fill:#FD6260;" d="M588.685,397.776c5.045,0.008,10.746-0.123,15.546,1.562c0.761,0.267,1.088-0.94,0.332-1.205
									c-4.91-1.724-10.728-1.598-15.878-1.607C587.881,396.524,587.88,397.774,588.685,397.776L588.685,397.776z"/>
							</g>
						</g>
						<g>
							<g>
								<path style="fill:#FD6260;" d="M588.652,401.06c4.873,0.378,10.493,0.164,15.183,1.579c0.772,0.233,1.102-0.973,0.332-1.205
									c-4.805-1.449-10.53-1.237-15.515-1.623C587.85,399.748,587.854,400.998,588.652,401.06L588.652,401.06z"/>
							</g>
						</g>
						<g>
							<g>
								<path style="fill:#FD6260;" d="M598.06,357.901c4.647,0.576,9.417,1.064,13.962,2.222c0.78,0.199,1.112-1.006,0.332-1.205
									c-4.653-1.186-9.534-1.677-14.294-2.267C597.263,356.552,597.271,357.803,598.06,357.901L598.06,357.901z"/>
							</g>
						</g>
						<g>
							<g>
								<path style="fill:#FD6260;" d="M599.248,354.336c4.622,0.367,9.59,0.725,13.962,2.354c0.755,0.281,1.081-0.927,0.332-1.205
									c-4.459-1.662-9.577-2.024-14.294-2.399C598.446,353.022,598.45,354.273,599.248,354.336L599.248,354.336z"/>
							</g>
						</g>
						<g>
							<g>
								<path style="fill:#FD6260;" d="M599.908,350.903c4.741,0.574,9.51,1.07,14.226,1.826c0.787,0.126,1.126-1.078,0.332-1.205
									c-4.827-0.774-9.705-1.284-14.558-1.871C599.111,349.557,599.118,350.807,599.908,350.903L599.908,350.903z"/>
							</g>
						</g>
						<g>
							<g>
								<path style="fill:#FD6260;" d="M609.249,319.192c3.882,0.542,8.237,0.885,11.883,2.377c0.744,0.304,1.068-0.904,0.332-1.205
									c-3.646-1.492-8.001-1.834-11.883-2.377C608.794,317.877,608.454,319.081,609.249,319.192L609.249,319.192z"/>
							</g>
						</g>
						<g>
							<g>
								<path style="fill:#FD6260;" d="M610.735,316.31c3.736,0.424,7.911,0.627,11.453,1.958c0.754,0.283,1.08-0.924,0.332-1.205
									c-3.64-1.368-7.94-1.567-11.785-2.003C609.937,314.969,609.944,316.22,610.735,316.31L610.735,316.31z"/>
							</g>
						</g>
						<g>
							<g>
								<path style="fill:#FD6260;" d="M612.188,312.481c3.533,0.431,7.445,0.689,10.793,1.958c0.753,0.285,1.079-0.922,0.332-1.205
									c-3.451-1.308-7.479-1.558-11.125-2.003C611.391,311.134,611.398,312.384,612.188,312.481L612.188,312.481z"/>
							</g>
						</g>
						<g>
							<g>
								<path style="fill:#FD6260;" d="M622.188,286.58c3.175,0.795,6.427,1.525,9.506,2.641c0.758,0.274,1.084-0.933,0.332-1.205
									c-3.08-1.116-6.332-1.846-9.507-2.641C621.74,285.179,621.407,286.384,622.188,286.58L622.188,286.58z"/>
							</g>
						</g>
						<g>
							<g>
								<path style="fill:#FD6260;" d="M623.376,283.807c2.951,0.872,6.165,1.547,8.961,2.842c0.725,0.336,1.361-0.741,0.631-1.079
									c-2.902-1.344-6.198-2.064-9.26-2.968C622.936,282.373,622.605,283.579,623.376,283.807L623.376,283.807z"/>
							</g>
						</g>
						<g>
							<g>
								<path style="fill:#FD6260;" d="M624.829,280.902c2.842,0.725,6.107,1.306,8.697,2.71c0.707,0.383,1.339-0.696,0.631-1.079
									c-2.705-1.465-6.033-2.079-8.996-2.836C624.381,279.498,624.049,280.703,624.829,280.902L624.829,280.902z"/>
							</g>
						</g>
						<g>
							<g>
								<path style="fill:#FD6260;" d="M633.015,264.134c2.393,0.633,4.855,1.288,7.113,2.314c0.727,0.33,1.363-0.746,0.631-1.079
									c-2.361-1.073-4.908-1.778-7.411-2.44C632.569,262.723,632.237,263.928,633.015,264.134L633.015,264.134z"/>
							</g>
						</g>
						<g>
							<g>
								<path style="fill:#FD6260;" d="M635.162,261.251c1.047-0.106,2.555,0.699,3.53,1.029c1.016,0.343,2.029,0.697,3.038,1.062
									c0.758,0.274,1.084-0.934,0.332-1.205c-1.096-0.396-2.196-0.78-3.3-1.15c-1.025-0.344-2.487-1.098-3.6-0.985
									C634.369,260.082,634.361,261.333,635.162,261.251L635.162,261.251z"/>
							</g>
						</g>
						<g>
							<g>
								<path style="fill:#FD6260;" d="M636.448,258.984c2.068,0.616,4.137,1.232,6.206,1.848c0.773,0.23,1.103-0.976,0.332-1.205
									c-2.068-0.616-4.137-1.232-6.206-1.849C636.008,257.549,635.677,258.755,636.448,258.984L636.448,258.984z"/>
							</g>
						</g>
					</g>
					<g>
						<g>
							<path style="fill:#FD6260;" d="M646.445,241.769c-13.282,17.422-22.879,38.356-31.05,58.516
								c-8.691,21.442-15.08,43.682-20.686,66.104c-3.212,12.844-6.282,25.85-7.869,39.013c-0.412,3.418-1.159,7.446-0.44,10.895
								c0.082,0.395,0.552,0.772,0.964,0.734c4.841-0.44,9.682-0.88,14.524-1.32c0.408-0.037,0.884-0.282,0.964-0.734
								c3.542-19.867,7.47-39.679,11.765-59.397c3.028-13.9,6.182-27.815,10.204-41.467c5.335-18.111,12.25-35.879,19.164-53.437
								c2.203-5.594,4.447-11.165,6.969-16.621c2.408-5.209-0.429-6.564-4.353-2.489c-0.893,0.928,0.52,2.344,1.414,1.414
								c2.156-2.24,2.13-1.956,1.066,0.346c-0.307,0.664-0.627,1.321-0.927,1.988c-1.023,2.273-1.97,4.583-2.915,6.889
								c-3.575,8.723-6.94,17.535-10.216,26.374c-6.124,16.521-11.921,33.052-16.217,50.145
								c-6.661,26.5-11.939,53.371-16.884,80.238c-0.232,1.263-0.64,2.615-0.712,3.897c-0.086,1.526-0.828,1.45,0.591,0.86
								c-4.163,1.728-9.925-0.423-14.098,1.282c1.066-0.435,0.211,1.888,0.532-0.683c0.249-1.99,0.11-4.087,0.299-6.098
								c1.066-11.344,3.626-22.592,6.243-33.658c4.993-21.117,10.709-42.182,18.218-62.554c8.785-23.836,19.638-48.846,35.177-69.23
								C648.952,241.755,647.216,240.757,646.445,241.769z"/>
						</g>
					</g>
				</g>
				<path style="fill:#169B91;" d="M638.264,234.813c0,0-5.942-15.25-10.101-22.776c-4.159-7.526-7.586-13.618-3.367-15.844
					c10.761-5.678,16.636,31.49,18.419,38.422c0,0,15.25-32.679,31.094-40.799c15.844-8.12,14.26-1.584,8.714,4.357
					c-5.546,5.941-24.559,27.133-29.906,38.026c0,0,20.994-19.607,39.016-23.766c18.023-4.159,23.766-2.575,20.399,2.773
					c-3.367,5.347-36.64,8.318-57.237,24.757c0,0,18.221-4.159,40.403-1.981c22.182,2.179,23.172,7.922,19.409,10.101
					s-54.068-5.942-62.783-4.357c0,0,40.601,10.893,52.088,45.552c0,0,2.773,5.545-0.396,7.526
					c-3.169,1.98-19.211-24.955-27.727-32.877c-8.516-7.922-17.032-15.448-24.757-18.023c0,0,13.666,20.201,13.666,44.364
					c0,24.162-9.11,18.815-10.497,10.695c-1.386-8.12,0.198-40.403-8.12-54.663c0,0-11.487,5.546-27.925,26.143
					c-16.438,20.598-23.964,24.955-23.964,16.24c0-8.714,26.341-37.036,45.552-42.581c0,0-22.974,0.396-43.77,15.052
					c-20.795,14.656-22.182,6.932-17.032-0.198c5.149-7.13,30.104-24.36,60.01-18.023c0,0-14.854-8.516-35.055-11.289
					c-20.201-2.773-25.516-3.227-21.39-9.309C586.771,216.791,617.667,210.057,638.264,234.813z"/>
			</g>
		</g>
	</g>
</g>
</svg>
